M48
; DRILL file {KiCad 9.0.0} date 2025-03-20T10:08:45+0900
; FORMAT={-:-/ absolute / metric / decimal}
; #@! TF.CreationDate,2025-03-20T10:08:45+09:00
; #@! TF.GenerationSoftware,Kicad,Pcbnew,9.0.0
; #@! TF.FileFunction,MixedPlating,1,2
FMAT,2
METRIC
; #@! TA.AperFunction,Plated,PTH,ViaDrill
T1C0.300
; #@! TA.AperFunction,Plated,PTH,ComponentDrill
T2C0.800
; #@! TA.AperFunction,Plated,PTH,ComponentDrill
T3C0.900
; #@! TA.AperFunction,Plated,PTH,ComponentDrill
T4C1.000
; #@! TA.AperFunction,Plated,PTH,ComponentDrill
T5C1.100
; #@! TA.AperFunction,NonPlated,NPTH,ComponentDrill
T6C3.200
%
G90
G05
T1
X93.0Y-60.0
X96.776Y-114.021
X98.5Y-104.5
X100.5Y-121.0
X105.009Y-75.145
X105.644Y-94.127
X106.753Y-90.462
X111.083Y-85.626
X111.34Y-86.743
X111.438Y-93.171
X111.722Y-52.943
X111.898Y-92.416
X112.601Y-67.483
X113.001Y-73.174
X113.037Y-69.635
X113.224Y-55.692
X113.409Y-53.996
X113.504Y-58.367
X114.207Y-98.947
X114.623Y-58.147
X115.696Y-95.69
X116.038Y-72.651
X116.333Y-88.101
X117.041Y-68.815
X117.095Y-72.074
X117.326Y-83.6
X117.426Y-85.501
X117.725Y-61.403
X117.862Y-71.326
X118.028Y-95.071
X118.331Y-103.166
X118.7Y-69.665
X118.739Y-107.513
X118.998Y-98.697
X119.938Y-69.635
X120.214Y-93.973
X120.37Y-78.311
X120.56Y-68.928
X121.304Y-92.317
X121.341Y-95.738
X121.419Y-90.757
X122.549Y-79.148
X123.021Y-77.532
X123.936Y-52.526
X124.167Y-64.606
X124.691Y-52.979
X124.91Y-80.211
X125.052Y-71.575
X125.588Y-94.447
X125.914Y-86.301
X126.367Y-91.837
X127.19Y-94.275
X127.5Y-121.5
X127.59Y-65.907
X127.923Y-80.152
X129.686Y-104.407
X129.93Y-93.829
X130.029Y-86.493
X130.452Y-84.249
X130.788Y-62.61
X131.362Y-69.281
X132.633Y-63.535
X133.201Y-121.112
X133.262Y-73.897
X133.616Y-70.343
X133.639Y-101.816
X135.106Y-72.817
X135.115Y-69.579
X135.58Y-91.837
X135.787Y-84.081
X136.365Y-89.204
X137.35Y-89.88
X138.031Y-72.585
X138.238Y-115.906
X139.352Y-84.229
X140.811Y-66.256
X141.191Y-95.275
X141.745Y-51.911
X142.303Y-63.894
X142.34Y-69.399
X143.313Y-62.019
X144.05Y-73.027
X145.046Y-100.252
X146.09Y-84.229
X147.518Y-101.122
X148.326Y-98.34
X148.86Y-69.414
X149.713Y-115.7
X149.96Y-69.698
X151.012Y-86.018
X151.078Y-76.264
X151.718Y-62.619
X152.22Y-67.957
X152.407Y-58.977
X152.445Y-77.989
X154.232Y-66.225
X159.005Y-114.571
X159.403Y-110.424
X159.606Y-113.106
X159.779Y-69.236
X159.875Y-74.094
X160.529Y-105.522
X161.031Y-62.397
X161.229Y-72.98
X161.594Y-107.384
X164.07Y-77.31
X164.688Y-87.967
X172.0Y-55.5
X172.917Y-111.604
X174.231Y-107.72
X174.849Y-84.58
X176.105Y-53.107
X176.839Y-74.437
X177.121Y-107.578
X178.026Y-70.248
X179.0Y-121.0
X179.524Y-65.563
X181.0Y-96.5
X186.0Y-99.5
T2
X93.56Y-100.4
X93.56Y-115.64
X96.1Y-100.4
X96.1Y-115.64
X97.4Y-88.4
X97.4Y-90.9
X98.64Y-100.4
X98.64Y-115.64
X101.18Y-100.4
X101.18Y-115.64
X102.295Y-56.5
X103.72Y-100.4
X103.72Y-115.64
X104.795Y-56.5
X105.2Y-80.52
X105.2Y-90.68
X106.26Y-100.4
X106.26Y-115.64
X108.5Y-62.02
X108.5Y-72.18
X108.8Y-100.4
X108.8Y-115.64
X111.34Y-100.4
X111.34Y-115.64
X113.88Y-100.4
X113.88Y-115.64
X114.4Y-60.3
X114.4Y-75.54
X114.49Y-82.0
X114.49Y-97.24
X116.42Y-100.4
X116.42Y-115.64
X116.94Y-60.3
X116.94Y-75.54
X117.03Y-82.0
X117.03Y-97.24
X118.96Y-100.4
X118.96Y-115.64
X119.48Y-60.3
X119.48Y-75.54
X119.57Y-82.0
X119.57Y-97.24
X121.5Y-100.4
X121.5Y-115.64
X122.02Y-60.3
X122.02Y-75.54
X122.11Y-82.0
X122.11Y-97.24
X124.04Y-100.4
X124.04Y-115.64
X124.56Y-60.3
X124.56Y-75.54
X124.65Y-82.0
X124.65Y-97.24
X125.5Y-106.75
X125.5Y-109.25
X126.58Y-100.4
X126.58Y-115.64
X127.1Y-60.3
X127.1Y-75.54
X127.19Y-82.0
X127.19Y-97.24
X129.12Y-100.4
X129.12Y-115.64
X129.64Y-60.3
X129.64Y-75.54
X129.73Y-82.0
X129.73Y-97.24
X131.66Y-100.4
X131.66Y-115.64
X132.18Y-60.3
X132.18Y-75.54
X132.27Y-82.0
X132.27Y-97.24
X134.72Y-60.3
X134.72Y-75.54
X134.81Y-82.0
X134.81Y-97.24
X135.18Y-103.86
X135.18Y-106.4
X135.18Y-108.94
X135.18Y-111.48
X135.18Y-114.02
X135.18Y-116.56
X135.18Y-119.1
X135.18Y-121.64
X137.26Y-60.3
X137.26Y-75.54
X137.34Y-78.8
X137.35Y-82.0
X137.35Y-97.24
X139.8Y-60.3
X139.8Y-75.54
X139.88Y-78.8
X139.89Y-82.0
X139.89Y-97.24
X140.2Y-88.45
X140.2Y-90.95
X140.75Y-100.8
X142.34Y-60.3
X142.34Y-75.54
X142.42Y-78.8
X142.43Y-82.0
X142.43Y-97.24
X142.8Y-103.86
X142.8Y-106.4
X142.8Y-108.94
X142.8Y-111.48
X142.8Y-114.02
X142.8Y-116.56
X142.8Y-119.1
X142.8Y-121.64
X143.25Y-100.8
X144.88Y-60.3
X144.88Y-75.54
X144.96Y-78.8
X144.97Y-82.0
X144.97Y-97.24
X145.0Y-68.05
X145.0Y-70.55
X146.3Y-106.4
X146.3Y-108.94
X146.3Y-111.48
X146.3Y-114.02
X146.3Y-116.56
X146.3Y-119.1
X146.3Y-121.64
X147.42Y-60.3
X147.42Y-75.54
X147.5Y-78.8
X147.51Y-82.0
X147.51Y-97.24
X149.96Y-60.3
X149.96Y-75.54
X151.85Y-103.3
X152.5Y-60.3
X152.5Y-75.54
X152.5Y-97.0
X153.25Y-85.3
X153.92Y-106.4
X153.92Y-108.94
X153.92Y-111.48
X153.92Y-114.02
X153.92Y-116.56
X153.92Y-119.1
X153.92Y-121.64
X154.35Y-103.3
X155.04Y-60.3
X155.04Y-75.54
X155.04Y-97.0
X155.65Y-81.0
X155.75Y-85.3
X157.29Y-106.385
X157.29Y-108.925
X157.29Y-111.465
X157.29Y-114.005
X157.29Y-116.545
X157.29Y-119.085
X157.29Y-121.625
X157.58Y-60.3
X157.58Y-75.54
X157.58Y-97.0
X160.12Y-60.3
X160.12Y-75.54
X160.12Y-97.0
X160.53Y-81.0
X160.55Y-85.3
X162.65Y-103.3
X162.66Y-60.3
X162.66Y-75.54
X162.66Y-97.0
X163.05Y-85.3
X164.91Y-106.385
X164.91Y-108.925
X164.91Y-111.465
X164.91Y-114.005
X164.91Y-116.545
X164.91Y-119.085
X164.91Y-121.625
X165.15Y-103.3
X166.25Y-95.4
X166.26Y-64.26
X166.26Y-66.8
X166.26Y-69.34
X166.26Y-71.88
X166.26Y-74.42
X166.26Y-76.96
X166.26Y-79.5
X166.26Y-82.04
X166.26Y-84.58
X166.26Y-87.12
X166.26Y-89.66
X166.26Y-92.2
X167.795Y-103.91
X167.795Y-106.45
X167.795Y-108.99
X167.795Y-111.53
X167.795Y-114.07
X167.795Y-116.61
X167.795Y-119.15
X167.795Y-121.69
X168.75Y-95.4
X172.85Y-100.9
X175.35Y-100.9
X175.415Y-103.91
X175.415Y-106.45
X175.415Y-108.99
X175.415Y-111.53
X175.415Y-114.07
X175.415Y-116.61
X175.415Y-119.15
X175.415Y-121.69
X178.83Y-106.1
X178.83Y-116.26
X181.5Y-64.26
X181.5Y-66.8
X181.5Y-69.34
X181.5Y-71.88
X181.5Y-74.42
X181.5Y-76.96
X181.5Y-79.5
X181.5Y-82.04
X181.5Y-84.58
X181.5Y-87.12
X181.5Y-89.66
X181.5Y-92.2
X183.63Y-108.57
X183.63Y-113.45
X187.9Y-106.31
X187.9Y-108.81
X188.0Y-112.97
X188.0Y-115.47
T3
X108.5Y-75.16
X108.5Y-77.7
X109.5Y-80.62
X109.5Y-90.78
T4
X96.42Y-63.2
X98.96Y-63.2
X101.5Y-63.2
X115.86Y-54.3
X115.86Y-56.84
X118.4Y-54.3
X118.4Y-56.84
X120.94Y-54.3
X120.94Y-56.84
X123.48Y-54.3
X123.48Y-56.84
X126.02Y-54.3
X126.02Y-56.84
X128.56Y-54.3
X128.56Y-56.84
X131.1Y-54.3
X131.1Y-56.84
X133.64Y-54.3
X133.64Y-56.84
X136.18Y-54.3
X136.18Y-56.84
X138.72Y-54.3
X138.72Y-56.84
X141.26Y-54.3
X141.26Y-56.84
X143.8Y-54.3
X143.8Y-56.84
X146.34Y-54.3
X146.34Y-56.84
X148.88Y-54.3
X148.88Y-56.84
X151.42Y-54.3
X151.42Y-56.84
X152.42Y-92.9
X153.96Y-54.3
X153.96Y-56.84
X154.96Y-92.9
X156.5Y-54.3
X156.5Y-56.84
X157.5Y-92.9
X159.04Y-54.3
X159.04Y-56.84
X161.58Y-54.3
X161.58Y-56.84
X164.12Y-54.3
X164.12Y-56.84
X185.5Y-64.88
X185.5Y-67.42
X185.5Y-69.96
X185.5Y-72.5
X185.5Y-75.04
X185.5Y-77.58
T5
X94.2Y-79.8
X94.2Y-84.3
X100.7Y-79.8
X100.7Y-84.3
T6
X95.5Y-54.5
X95.5Y-120.5
X184.5Y-120.5
X186.0Y-54.0
T4
G00X96.5Y-69.7
M15
G01X96.5Y-71.7
M16
G05
G00X98.5Y-75.4
M15
G01X100.5Y-75.4
M16
G05
G00X102.5Y-69.7
M15
G01X102.5Y-71.7
M16
G05
M30
