G04 #@! TF.GenerationSoftware,KiCad,Pcbnew,9.0.0*
G04 #@! TF.CreationDate,2025-03-02T14:28:04+09:00*
G04 #@! TF.ProjectId,K6802-SBC,4b363830-322d-4534-9243-2e6b69636164,rev?*
G04 #@! TF.SameCoordinates,Original*
G04 #@! TF.FileFunction,Legend,Bot*
G04 #@! TF.FilePolarity,Positive*
%FSLAX46Y46*%
G04 Gerber Fmt 4.6, Leading zero omitted, Abs format (unit mm)*
G04 Created by KiCad (PCBNEW 9.0.0) date 2025-03-02 14:28:04*
%MOMM*%
%LPD*%
G01*
G04 APERTURE LIST*
%ADD10C,0.150000*%
%ADD11C,0.120000*%
G04 APERTURE END LIST*
D10*
X172483333Y-106954819D02*
X172483333Y-107669104D01*
X172483333Y-107669104D02*
X172530952Y-107811961D01*
X172530952Y-107811961D02*
X172626190Y-107907200D01*
X172626190Y-107907200D02*
X172769047Y-107954819D01*
X172769047Y-107954819D02*
X172864285Y-107954819D01*
X172007142Y-107954819D02*
X172007142Y-106954819D01*
X172007142Y-106954819D02*
X171626190Y-106954819D01*
X171626190Y-106954819D02*
X171530952Y-107002438D01*
X171530952Y-107002438D02*
X171483333Y-107050057D01*
X171483333Y-107050057D02*
X171435714Y-107145295D01*
X171435714Y-107145295D02*
X171435714Y-107288152D01*
X171435714Y-107288152D02*
X171483333Y-107383390D01*
X171483333Y-107383390D02*
X171530952Y-107431009D01*
X171530952Y-107431009D02*
X171626190Y-107478628D01*
X171626190Y-107478628D02*
X172007142Y-107478628D01*
X171102380Y-106954819D02*
X170483333Y-106954819D01*
X170483333Y-106954819D02*
X170816666Y-107335771D01*
X170816666Y-107335771D02*
X170673809Y-107335771D01*
X170673809Y-107335771D02*
X170578571Y-107383390D01*
X170578571Y-107383390D02*
X170530952Y-107431009D01*
X170530952Y-107431009D02*
X170483333Y-107526247D01*
X170483333Y-107526247D02*
X170483333Y-107764342D01*
X170483333Y-107764342D02*
X170530952Y-107859580D01*
X170530952Y-107859580D02*
X170578571Y-107907200D01*
X170578571Y-107907200D02*
X170673809Y-107954819D01*
X170673809Y-107954819D02*
X170959523Y-107954819D01*
X170959523Y-107954819D02*
X171054761Y-107907200D01*
X171054761Y-107907200D02*
X171102380Y-107859580D01*
X172483333Y-119654819D02*
X172483333Y-120369104D01*
X172483333Y-120369104D02*
X172530952Y-120511961D01*
X172530952Y-120511961D02*
X172626190Y-120607200D01*
X172626190Y-120607200D02*
X172769047Y-120654819D01*
X172769047Y-120654819D02*
X172864285Y-120654819D01*
X172007142Y-120654819D02*
X172007142Y-119654819D01*
X172007142Y-119654819D02*
X171626190Y-119654819D01*
X171626190Y-119654819D02*
X171530952Y-119702438D01*
X171530952Y-119702438D02*
X171483333Y-119750057D01*
X171483333Y-119750057D02*
X171435714Y-119845295D01*
X171435714Y-119845295D02*
X171435714Y-119988152D01*
X171435714Y-119988152D02*
X171483333Y-120083390D01*
X171483333Y-120083390D02*
X171530952Y-120131009D01*
X171530952Y-120131009D02*
X171626190Y-120178628D01*
X171626190Y-120178628D02*
X172007142Y-120178628D01*
X170578571Y-119654819D02*
X170769047Y-119654819D01*
X170769047Y-119654819D02*
X170864285Y-119702438D01*
X170864285Y-119702438D02*
X170911904Y-119750057D01*
X170911904Y-119750057D02*
X171007142Y-119892914D01*
X171007142Y-119892914D02*
X171054761Y-120083390D01*
X171054761Y-120083390D02*
X171054761Y-120464342D01*
X171054761Y-120464342D02*
X171007142Y-120559580D01*
X171007142Y-120559580D02*
X170959523Y-120607200D01*
X170959523Y-120607200D02*
X170864285Y-120654819D01*
X170864285Y-120654819D02*
X170673809Y-120654819D01*
X170673809Y-120654819D02*
X170578571Y-120607200D01*
X170578571Y-120607200D02*
X170530952Y-120559580D01*
X170530952Y-120559580D02*
X170483333Y-120464342D01*
X170483333Y-120464342D02*
X170483333Y-120226247D01*
X170483333Y-120226247D02*
X170530952Y-120131009D01*
X170530952Y-120131009D02*
X170578571Y-120083390D01*
X170578571Y-120083390D02*
X170673809Y-120035771D01*
X170673809Y-120035771D02*
X170864285Y-120035771D01*
X170864285Y-120035771D02*
X170959523Y-120083390D01*
X170959523Y-120083390D02*
X171007142Y-120131009D01*
X171007142Y-120131009D02*
X171054761Y-120226247D01*
X161783333Y-109954819D02*
X161783333Y-110669104D01*
X161783333Y-110669104D02*
X161830952Y-110811961D01*
X161830952Y-110811961D02*
X161926190Y-110907200D01*
X161926190Y-110907200D02*
X162069047Y-110954819D01*
X162069047Y-110954819D02*
X162164285Y-110954819D01*
X161307142Y-110954819D02*
X161307142Y-109954819D01*
X161307142Y-109954819D02*
X160926190Y-109954819D01*
X160926190Y-109954819D02*
X160830952Y-110002438D01*
X160830952Y-110002438D02*
X160783333Y-110050057D01*
X160783333Y-110050057D02*
X160735714Y-110145295D01*
X160735714Y-110145295D02*
X160735714Y-110288152D01*
X160735714Y-110288152D02*
X160783333Y-110383390D01*
X160783333Y-110383390D02*
X160830952Y-110431009D01*
X160830952Y-110431009D02*
X160926190Y-110478628D01*
X160926190Y-110478628D02*
X161307142Y-110478628D01*
X159783333Y-110954819D02*
X160354761Y-110954819D01*
X160069047Y-110954819D02*
X160069047Y-109954819D01*
X160069047Y-109954819D02*
X160164285Y-110097676D01*
X160164285Y-110097676D02*
X160259523Y-110192914D01*
X160259523Y-110192914D02*
X160354761Y-110240533D01*
X172433333Y-115254819D02*
X172433333Y-115969104D01*
X172433333Y-115969104D02*
X172480952Y-116111961D01*
X172480952Y-116111961D02*
X172576190Y-116207200D01*
X172576190Y-116207200D02*
X172719047Y-116254819D01*
X172719047Y-116254819D02*
X172814285Y-116254819D01*
X171957142Y-116254819D02*
X171957142Y-115254819D01*
X171957142Y-115254819D02*
X171576190Y-115254819D01*
X171576190Y-115254819D02*
X171480952Y-115302438D01*
X171480952Y-115302438D02*
X171433333Y-115350057D01*
X171433333Y-115350057D02*
X171385714Y-115445295D01*
X171385714Y-115445295D02*
X171385714Y-115588152D01*
X171385714Y-115588152D02*
X171433333Y-115683390D01*
X171433333Y-115683390D02*
X171480952Y-115731009D01*
X171480952Y-115731009D02*
X171576190Y-115778628D01*
X171576190Y-115778628D02*
X171957142Y-115778628D01*
X170480952Y-115254819D02*
X170957142Y-115254819D01*
X170957142Y-115254819D02*
X171004761Y-115731009D01*
X171004761Y-115731009D02*
X170957142Y-115683390D01*
X170957142Y-115683390D02*
X170861904Y-115635771D01*
X170861904Y-115635771D02*
X170623809Y-115635771D01*
X170623809Y-115635771D02*
X170528571Y-115683390D01*
X170528571Y-115683390D02*
X170480952Y-115731009D01*
X170480952Y-115731009D02*
X170433333Y-115826247D01*
X170433333Y-115826247D02*
X170433333Y-116064342D01*
X170433333Y-116064342D02*
X170480952Y-116159580D01*
X170480952Y-116159580D02*
X170528571Y-116207200D01*
X170528571Y-116207200D02*
X170623809Y-116254819D01*
X170623809Y-116254819D02*
X170861904Y-116254819D01*
X170861904Y-116254819D02*
X170957142Y-116207200D01*
X170957142Y-116207200D02*
X171004761Y-116159580D01*
X172483333Y-111154819D02*
X172483333Y-111869104D01*
X172483333Y-111869104D02*
X172530952Y-112011961D01*
X172530952Y-112011961D02*
X172626190Y-112107200D01*
X172626190Y-112107200D02*
X172769047Y-112154819D01*
X172769047Y-112154819D02*
X172864285Y-112154819D01*
X172007142Y-112154819D02*
X172007142Y-111154819D01*
X172007142Y-111154819D02*
X171626190Y-111154819D01*
X171626190Y-111154819D02*
X171530952Y-111202438D01*
X171530952Y-111202438D02*
X171483333Y-111250057D01*
X171483333Y-111250057D02*
X171435714Y-111345295D01*
X171435714Y-111345295D02*
X171435714Y-111488152D01*
X171435714Y-111488152D02*
X171483333Y-111583390D01*
X171483333Y-111583390D02*
X171530952Y-111631009D01*
X171530952Y-111631009D02*
X171626190Y-111678628D01*
X171626190Y-111678628D02*
X172007142Y-111678628D01*
X170578571Y-111488152D02*
X170578571Y-112154819D01*
X170816666Y-111107200D02*
X171054761Y-111821485D01*
X171054761Y-111821485D02*
X170435714Y-111821485D01*
X161783333Y-115654819D02*
X161783333Y-116369104D01*
X161783333Y-116369104D02*
X161830952Y-116511961D01*
X161830952Y-116511961D02*
X161926190Y-116607200D01*
X161926190Y-116607200D02*
X162069047Y-116654819D01*
X162069047Y-116654819D02*
X162164285Y-116654819D01*
X161307142Y-116654819D02*
X161307142Y-115654819D01*
X161307142Y-115654819D02*
X160926190Y-115654819D01*
X160926190Y-115654819D02*
X160830952Y-115702438D01*
X160830952Y-115702438D02*
X160783333Y-115750057D01*
X160783333Y-115750057D02*
X160735714Y-115845295D01*
X160735714Y-115845295D02*
X160735714Y-115988152D01*
X160735714Y-115988152D02*
X160783333Y-116083390D01*
X160783333Y-116083390D02*
X160830952Y-116131009D01*
X160830952Y-116131009D02*
X160926190Y-116178628D01*
X160926190Y-116178628D02*
X161307142Y-116178628D01*
X160354761Y-115750057D02*
X160307142Y-115702438D01*
X160307142Y-115702438D02*
X160211904Y-115654819D01*
X160211904Y-115654819D02*
X159973809Y-115654819D01*
X159973809Y-115654819D02*
X159878571Y-115702438D01*
X159878571Y-115702438D02*
X159830952Y-115750057D01*
X159830952Y-115750057D02*
X159783333Y-115845295D01*
X159783333Y-115845295D02*
X159783333Y-115940533D01*
X159783333Y-115940533D02*
X159830952Y-116083390D01*
X159830952Y-116083390D02*
X160402380Y-116654819D01*
X160402380Y-116654819D02*
X159783333Y-116654819D01*
D11*
X170250000Y-105400000D02*
X170250000Y-106000000D01*
X170950000Y-106700000D02*
X172350000Y-106700000D01*
X172350000Y-104700000D02*
X170950000Y-104700000D01*
X173050000Y-106000000D02*
X173050000Y-105400000D01*
X170250000Y-105400000D02*
G75*
G02*
X170950000Y-104700000I699999J1D01*
G01*
X170950000Y-106700000D02*
G75*
G02*
X170250000Y-106000000I-1J699999D01*
G01*
X172350000Y-104700000D02*
G75*
G02*
X173050000Y-105400000I0J-700000D01*
G01*
X173050000Y-106000000D02*
G75*
G02*
X172350000Y-106700000I-700000J0D01*
G01*
X170250000Y-118100000D02*
X170250000Y-118700000D01*
X170950000Y-119400000D02*
X172350000Y-119400000D01*
X172350000Y-117400000D02*
X170950000Y-117400000D01*
X173050000Y-118700000D02*
X173050000Y-118100000D01*
X170250000Y-118100000D02*
G75*
G02*
X170950000Y-117400000I699999J1D01*
G01*
X170950000Y-119400000D02*
G75*
G02*
X170250000Y-118700000I-1J699999D01*
G01*
X172350000Y-117400000D02*
G75*
G02*
X173050000Y-118100000I0J-700000D01*
G01*
X173050000Y-118700000D02*
G75*
G02*
X172350000Y-119400000I-700000J0D01*
G01*
X159550000Y-108400000D02*
X159550000Y-109000000D01*
X160250000Y-109700000D02*
X161650000Y-109700000D01*
X161650000Y-107700000D02*
X160250000Y-107700000D01*
X162350000Y-109000000D02*
X162350000Y-108400000D01*
X159550000Y-108400000D02*
G75*
G02*
X160250000Y-107700000I699999J1D01*
G01*
X160250000Y-109700000D02*
G75*
G02*
X159550000Y-109000000I-1J699999D01*
G01*
X161650000Y-107700000D02*
G75*
G02*
X162350000Y-108400000I0J-700000D01*
G01*
X162350000Y-109000000D02*
G75*
G02*
X161650000Y-109700000I-700000J0D01*
G01*
X170200000Y-113700000D02*
X170200000Y-114300000D01*
X170900000Y-115000000D02*
X172300000Y-115000000D01*
X172300000Y-113000000D02*
X170900000Y-113000000D01*
X173000000Y-114300000D02*
X173000000Y-113700000D01*
X170200000Y-113700000D02*
G75*
G02*
X170900000Y-113000000I699999J1D01*
G01*
X170900000Y-115000000D02*
G75*
G02*
X170200000Y-114300000I-1J699999D01*
G01*
X172300000Y-113000000D02*
G75*
G02*
X173000000Y-113700000I0J-700000D01*
G01*
X173000000Y-114300000D02*
G75*
G02*
X172300000Y-115000000I-700000J0D01*
G01*
X170250000Y-109600000D02*
X170250000Y-110200000D01*
X170950000Y-110900000D02*
X172350000Y-110900000D01*
X172350000Y-108900000D02*
X170950000Y-108900000D01*
X173050000Y-110200000D02*
X173050000Y-109600000D01*
X170250000Y-109600000D02*
G75*
G02*
X170950000Y-108900000I699999J1D01*
G01*
X170950000Y-110900000D02*
G75*
G02*
X170250000Y-110200000I-1J699999D01*
G01*
X172350000Y-108900000D02*
G75*
G02*
X173050000Y-109600000I0J-700000D01*
G01*
X173050000Y-110200000D02*
G75*
G02*
X172350000Y-110900000I-700000J0D01*
G01*
X159550000Y-114100000D02*
X159550000Y-114700000D01*
X160250000Y-115400000D02*
X161650000Y-115400000D01*
X161650000Y-113400000D02*
X160250000Y-113400000D01*
X162350000Y-114700000D02*
X162350000Y-114100000D01*
X159550000Y-114100000D02*
G75*
G02*
X160250000Y-113400000I699999J1D01*
G01*
X160250000Y-115400000D02*
G75*
G02*
X159550000Y-114700000I-1J699999D01*
G01*
X161650000Y-113400000D02*
G75*
G02*
X162350000Y-114100000I0J-700000D01*
G01*
X162350000Y-114700000D02*
G75*
G02*
X161650000Y-115400000I-700000J0D01*
G01*
M02*
