G04 #@! TF.GenerationSoftware,KiCad,Pcbnew,9.0.0*
G04 #@! TF.CreationDate,2025-03-20T10:08:34+09:00*
G04 #@! TF.ProjectId,K6802-SBC,4b363830-322d-4534-9243-2e6b69636164,rev?*
G04 #@! TF.SameCoordinates,Original*
G04 #@! TF.FileFunction,Legend,Bot*
G04 #@! TF.FilePolarity,Positive*
%FSLAX46Y46*%
G04 Gerber Fmt 4.6, Leading zero omitted, Abs format (unit mm)*
G04 Created by KiCad (PCBNEW 9.0.0) date 2025-03-20 10:08:34*
%MOMM*%
%LPD*%
G01*
G04 APERTURE LIST*
%ADD10C,0.150000*%
%ADD11C,0.120000*%
G04 APERTURE END LIST*
D10*
X163390839Y-122132200D02*
X163247982Y-122179819D01*
X163247982Y-122179819D02*
X163009887Y-122179819D01*
X163009887Y-122179819D02*
X162914649Y-122132200D01*
X162914649Y-122132200D02*
X162867030Y-122084580D01*
X162867030Y-122084580D02*
X162819411Y-121989342D01*
X162819411Y-121989342D02*
X162819411Y-121894104D01*
X162819411Y-121894104D02*
X162867030Y-121798866D01*
X162867030Y-121798866D02*
X162914649Y-121751247D01*
X162914649Y-121751247D02*
X163009887Y-121703628D01*
X163009887Y-121703628D02*
X163200363Y-121656009D01*
X163200363Y-121656009D02*
X163295601Y-121608390D01*
X163295601Y-121608390D02*
X163343220Y-121560771D01*
X163343220Y-121560771D02*
X163390839Y-121465533D01*
X163390839Y-121465533D02*
X163390839Y-121370295D01*
X163390839Y-121370295D02*
X163343220Y-121275057D01*
X163343220Y-121275057D02*
X163295601Y-121227438D01*
X163295601Y-121227438D02*
X163200363Y-121179819D01*
X163200363Y-121179819D02*
X162962268Y-121179819D01*
X162962268Y-121179819D02*
X162819411Y-121227438D01*
X163105125Y-121036961D02*
X163105125Y-122322676D01*
X161819411Y-122084580D02*
X161867030Y-122132200D01*
X161867030Y-122132200D02*
X162009887Y-122179819D01*
X162009887Y-122179819D02*
X162105125Y-122179819D01*
X162105125Y-122179819D02*
X162247982Y-122132200D01*
X162247982Y-122132200D02*
X162343220Y-122036961D01*
X162343220Y-122036961D02*
X162390839Y-121941723D01*
X162390839Y-121941723D02*
X162438458Y-121751247D01*
X162438458Y-121751247D02*
X162438458Y-121608390D01*
X162438458Y-121608390D02*
X162390839Y-121417914D01*
X162390839Y-121417914D02*
X162343220Y-121322676D01*
X162343220Y-121322676D02*
X162247982Y-121227438D01*
X162247982Y-121227438D02*
X162105125Y-121179819D01*
X162105125Y-121179819D02*
X162009887Y-121179819D01*
X162009887Y-121179819D02*
X161867030Y-121227438D01*
X161867030Y-121227438D02*
X161819411Y-121275057D01*
X161200363Y-121179819D02*
X161105125Y-121179819D01*
X161105125Y-121179819D02*
X161009887Y-121227438D01*
X161009887Y-121227438D02*
X160962268Y-121275057D01*
X160962268Y-121275057D02*
X160914649Y-121370295D01*
X160914649Y-121370295D02*
X160867030Y-121560771D01*
X160867030Y-121560771D02*
X160867030Y-121798866D01*
X160867030Y-121798866D02*
X160914649Y-121989342D01*
X160914649Y-121989342D02*
X160962268Y-122084580D01*
X160962268Y-122084580D02*
X161009887Y-122132200D01*
X161009887Y-122132200D02*
X161105125Y-122179819D01*
X161105125Y-122179819D02*
X161200363Y-122179819D01*
X161200363Y-122179819D02*
X161295601Y-122132200D01*
X161295601Y-122132200D02*
X161343220Y-122084580D01*
X161343220Y-122084580D02*
X161390839Y-121989342D01*
X161390839Y-121989342D02*
X161438458Y-121798866D01*
X161438458Y-121798866D02*
X161438458Y-121560771D01*
X161438458Y-121560771D02*
X161390839Y-121370295D01*
X161390839Y-121370295D02*
X161343220Y-121275057D01*
X161343220Y-121275057D02*
X161295601Y-121227438D01*
X161295601Y-121227438D02*
X161200363Y-121179819D01*
X160247982Y-121179819D02*
X160152744Y-121179819D01*
X160152744Y-121179819D02*
X160057506Y-121227438D01*
X160057506Y-121227438D02*
X160009887Y-121275057D01*
X160009887Y-121275057D02*
X159962268Y-121370295D01*
X159962268Y-121370295D02*
X159914649Y-121560771D01*
X159914649Y-121560771D02*
X159914649Y-121798866D01*
X159914649Y-121798866D02*
X159962268Y-121989342D01*
X159962268Y-121989342D02*
X160009887Y-122084580D01*
X160009887Y-122084580D02*
X160057506Y-122132200D01*
X160057506Y-122132200D02*
X160152744Y-122179819D01*
X160152744Y-122179819D02*
X160247982Y-122179819D01*
X160247982Y-122179819D02*
X160343220Y-122132200D01*
X160343220Y-122132200D02*
X160390839Y-122084580D01*
X160390839Y-122084580D02*
X160438458Y-121989342D01*
X160438458Y-121989342D02*
X160486077Y-121798866D01*
X160486077Y-121798866D02*
X160486077Y-121560771D01*
X160486077Y-121560771D02*
X160438458Y-121370295D01*
X160438458Y-121370295D02*
X160390839Y-121275057D01*
X160390839Y-121275057D02*
X160343220Y-121227438D01*
X160343220Y-121227438D02*
X160247982Y-121179819D01*
X159295601Y-121179819D02*
X159200363Y-121179819D01*
X159200363Y-121179819D02*
X159105125Y-121227438D01*
X159105125Y-121227438D02*
X159057506Y-121275057D01*
X159057506Y-121275057D02*
X159009887Y-121370295D01*
X159009887Y-121370295D02*
X158962268Y-121560771D01*
X158962268Y-121560771D02*
X158962268Y-121798866D01*
X158962268Y-121798866D02*
X159009887Y-121989342D01*
X159009887Y-121989342D02*
X159057506Y-122084580D01*
X159057506Y-122084580D02*
X159105125Y-122132200D01*
X159105125Y-122132200D02*
X159200363Y-122179819D01*
X159200363Y-122179819D02*
X159295601Y-122179819D01*
X159295601Y-122179819D02*
X159390839Y-122132200D01*
X159390839Y-122132200D02*
X159438458Y-122084580D01*
X159438458Y-122084580D02*
X159486077Y-121989342D01*
X159486077Y-121989342D02*
X159533696Y-121798866D01*
X159533696Y-121798866D02*
X159533696Y-121560771D01*
X159533696Y-121560771D02*
X159486077Y-121370295D01*
X159486077Y-121370295D02*
X159438458Y-121275057D01*
X159438458Y-121275057D02*
X159390839Y-121227438D01*
X159390839Y-121227438D02*
X159295601Y-121179819D01*
X163101792Y-107359819D02*
X163435125Y-106883628D01*
X163673220Y-107359819D02*
X163673220Y-106359819D01*
X163673220Y-106359819D02*
X163292268Y-106359819D01*
X163292268Y-106359819D02*
X163197030Y-106407438D01*
X163197030Y-106407438D02*
X163149411Y-106455057D01*
X163149411Y-106455057D02*
X163101792Y-106550295D01*
X163101792Y-106550295D02*
X163101792Y-106693152D01*
X163101792Y-106693152D02*
X163149411Y-106788390D01*
X163149411Y-106788390D02*
X163197030Y-106836009D01*
X163197030Y-106836009D02*
X163292268Y-106883628D01*
X163292268Y-106883628D02*
X163673220Y-106883628D01*
X162482744Y-106359819D02*
X162292268Y-106359819D01*
X162292268Y-106359819D02*
X162197030Y-106407438D01*
X162197030Y-106407438D02*
X162101792Y-106502676D01*
X162101792Y-106502676D02*
X162054173Y-106693152D01*
X162054173Y-106693152D02*
X162054173Y-107026485D01*
X162054173Y-107026485D02*
X162101792Y-107216961D01*
X162101792Y-107216961D02*
X162197030Y-107312200D01*
X162197030Y-107312200D02*
X162292268Y-107359819D01*
X162292268Y-107359819D02*
X162482744Y-107359819D01*
X162482744Y-107359819D02*
X162577982Y-107312200D01*
X162577982Y-107312200D02*
X162673220Y-107216961D01*
X162673220Y-107216961D02*
X162720839Y-107026485D01*
X162720839Y-107026485D02*
X162720839Y-106693152D01*
X162720839Y-106693152D02*
X162673220Y-106502676D01*
X162673220Y-106502676D02*
X162577982Y-106407438D01*
X162577982Y-106407438D02*
X162482744Y-106359819D01*
X161625601Y-107359819D02*
X161625601Y-106359819D01*
X161625601Y-106359819D02*
X161292268Y-107074104D01*
X161292268Y-107074104D02*
X160958935Y-106359819D01*
X160958935Y-106359819D02*
X160958935Y-107359819D01*
X159958935Y-107359819D02*
X160530363Y-107359819D01*
X160244649Y-107359819D02*
X160244649Y-106359819D01*
X160244649Y-106359819D02*
X160339887Y-106502676D01*
X160339887Y-106502676D02*
X160435125Y-106597914D01*
X160435125Y-106597914D02*
X160530363Y-106645533D01*
X159101792Y-106359819D02*
X159292268Y-106359819D01*
X159292268Y-106359819D02*
X159387506Y-106407438D01*
X159387506Y-106407438D02*
X159435125Y-106455057D01*
X159435125Y-106455057D02*
X159530363Y-106597914D01*
X159530363Y-106597914D02*
X159577982Y-106788390D01*
X159577982Y-106788390D02*
X159577982Y-107169342D01*
X159577982Y-107169342D02*
X159530363Y-107264580D01*
X159530363Y-107264580D02*
X159482744Y-107312200D01*
X159482744Y-107312200D02*
X159387506Y-107359819D01*
X159387506Y-107359819D02*
X159197030Y-107359819D01*
X159197030Y-107359819D02*
X159101792Y-107312200D01*
X159101792Y-107312200D02*
X159054173Y-107264580D01*
X159054173Y-107264580D02*
X159006554Y-107169342D01*
X159006554Y-107169342D02*
X159006554Y-106931247D01*
X159006554Y-106931247D02*
X159054173Y-106836009D01*
X159054173Y-106836009D02*
X159101792Y-106788390D01*
X159101792Y-106788390D02*
X159197030Y-106740771D01*
X159197030Y-106740771D02*
X159387506Y-106740771D01*
X159387506Y-106740771D02*
X159482744Y-106788390D01*
X159482744Y-106788390D02*
X159530363Y-106836009D01*
X159530363Y-106836009D02*
X159577982Y-106931247D01*
X158577982Y-107359819D02*
X158577982Y-106359819D01*
X158482744Y-106978866D02*
X158197030Y-107359819D01*
X158197030Y-106693152D02*
X158577982Y-107074104D01*
X162970839Y-113062200D02*
X162827982Y-113109819D01*
X162827982Y-113109819D02*
X162589887Y-113109819D01*
X162589887Y-113109819D02*
X162494649Y-113062200D01*
X162494649Y-113062200D02*
X162447030Y-113014580D01*
X162447030Y-113014580D02*
X162399411Y-112919342D01*
X162399411Y-112919342D02*
X162399411Y-112824104D01*
X162399411Y-112824104D02*
X162447030Y-112728866D01*
X162447030Y-112728866D02*
X162494649Y-112681247D01*
X162494649Y-112681247D02*
X162589887Y-112633628D01*
X162589887Y-112633628D02*
X162780363Y-112586009D01*
X162780363Y-112586009D02*
X162875601Y-112538390D01*
X162875601Y-112538390D02*
X162923220Y-112490771D01*
X162923220Y-112490771D02*
X162970839Y-112395533D01*
X162970839Y-112395533D02*
X162970839Y-112300295D01*
X162970839Y-112300295D02*
X162923220Y-112205057D01*
X162923220Y-112205057D02*
X162875601Y-112157438D01*
X162875601Y-112157438D02*
X162780363Y-112109819D01*
X162780363Y-112109819D02*
X162542268Y-112109819D01*
X162542268Y-112109819D02*
X162399411Y-112157438D01*
X162685125Y-111966961D02*
X162685125Y-113252676D01*
X162018458Y-112824104D02*
X161542268Y-112824104D01*
X162113696Y-113109819D02*
X161780363Y-112109819D01*
X161780363Y-112109819D02*
X161447030Y-113109819D01*
X160923220Y-112109819D02*
X160827982Y-112109819D01*
X160827982Y-112109819D02*
X160732744Y-112157438D01*
X160732744Y-112157438D02*
X160685125Y-112205057D01*
X160685125Y-112205057D02*
X160637506Y-112300295D01*
X160637506Y-112300295D02*
X160589887Y-112490771D01*
X160589887Y-112490771D02*
X160589887Y-112728866D01*
X160589887Y-112728866D02*
X160637506Y-112919342D01*
X160637506Y-112919342D02*
X160685125Y-113014580D01*
X160685125Y-113014580D02*
X160732744Y-113062200D01*
X160732744Y-113062200D02*
X160827982Y-113109819D01*
X160827982Y-113109819D02*
X160923220Y-113109819D01*
X160923220Y-113109819D02*
X161018458Y-113062200D01*
X161018458Y-113062200D02*
X161066077Y-113014580D01*
X161066077Y-113014580D02*
X161113696Y-112919342D01*
X161113696Y-112919342D02*
X161161315Y-112728866D01*
X161161315Y-112728866D02*
X161161315Y-112490771D01*
X161161315Y-112490771D02*
X161113696Y-112300295D01*
X161113696Y-112300295D02*
X161066077Y-112205057D01*
X161066077Y-112205057D02*
X161018458Y-112157438D01*
X161018458Y-112157438D02*
X160923220Y-112109819D01*
X159970839Y-112109819D02*
X159875601Y-112109819D01*
X159875601Y-112109819D02*
X159780363Y-112157438D01*
X159780363Y-112157438D02*
X159732744Y-112205057D01*
X159732744Y-112205057D02*
X159685125Y-112300295D01*
X159685125Y-112300295D02*
X159637506Y-112490771D01*
X159637506Y-112490771D02*
X159637506Y-112728866D01*
X159637506Y-112728866D02*
X159685125Y-112919342D01*
X159685125Y-112919342D02*
X159732744Y-113014580D01*
X159732744Y-113014580D02*
X159780363Y-113062200D01*
X159780363Y-113062200D02*
X159875601Y-113109819D01*
X159875601Y-113109819D02*
X159970839Y-113109819D01*
X159970839Y-113109819D02*
X160066077Y-113062200D01*
X160066077Y-113062200D02*
X160113696Y-113014580D01*
X160113696Y-113014580D02*
X160161315Y-112919342D01*
X160161315Y-112919342D02*
X160208934Y-112728866D01*
X160208934Y-112728866D02*
X160208934Y-112490771D01*
X160208934Y-112490771D02*
X160161315Y-112300295D01*
X160161315Y-112300295D02*
X160113696Y-112205057D01*
X160113696Y-112205057D02*
X160066077Y-112157438D01*
X160066077Y-112157438D02*
X159970839Y-112109819D01*
X159018458Y-112109819D02*
X158923220Y-112109819D01*
X158923220Y-112109819D02*
X158827982Y-112157438D01*
X158827982Y-112157438D02*
X158780363Y-112205057D01*
X158780363Y-112205057D02*
X158732744Y-112300295D01*
X158732744Y-112300295D02*
X158685125Y-112490771D01*
X158685125Y-112490771D02*
X158685125Y-112728866D01*
X158685125Y-112728866D02*
X158732744Y-112919342D01*
X158732744Y-112919342D02*
X158780363Y-113014580D01*
X158780363Y-113014580D02*
X158827982Y-113062200D01*
X158827982Y-113062200D02*
X158923220Y-113109819D01*
X158923220Y-113109819D02*
X159018458Y-113109819D01*
X159018458Y-113109819D02*
X159113696Y-113062200D01*
X159113696Y-113062200D02*
X159161315Y-113014580D01*
X159161315Y-113014580D02*
X159208934Y-112919342D01*
X159208934Y-112919342D02*
X159256553Y-112728866D01*
X159256553Y-112728866D02*
X159256553Y-112490771D01*
X159256553Y-112490771D02*
X159208934Y-112300295D01*
X159208934Y-112300295D02*
X159161315Y-112205057D01*
X159161315Y-112205057D02*
X159113696Y-112157438D01*
X159113696Y-112157438D02*
X159018458Y-112109819D01*
X172483333Y-106954819D02*
X172483333Y-107669104D01*
X172483333Y-107669104D02*
X172530952Y-107811961D01*
X172530952Y-107811961D02*
X172626190Y-107907200D01*
X172626190Y-107907200D02*
X172769047Y-107954819D01*
X172769047Y-107954819D02*
X172864285Y-107954819D01*
X172007142Y-107954819D02*
X172007142Y-106954819D01*
X172007142Y-106954819D02*
X171626190Y-106954819D01*
X171626190Y-106954819D02*
X171530952Y-107002438D01*
X171530952Y-107002438D02*
X171483333Y-107050057D01*
X171483333Y-107050057D02*
X171435714Y-107145295D01*
X171435714Y-107145295D02*
X171435714Y-107288152D01*
X171435714Y-107288152D02*
X171483333Y-107383390D01*
X171483333Y-107383390D02*
X171530952Y-107431009D01*
X171530952Y-107431009D02*
X171626190Y-107478628D01*
X171626190Y-107478628D02*
X172007142Y-107478628D01*
X171102380Y-106954819D02*
X170483333Y-106954819D01*
X170483333Y-106954819D02*
X170816666Y-107335771D01*
X170816666Y-107335771D02*
X170673809Y-107335771D01*
X170673809Y-107335771D02*
X170578571Y-107383390D01*
X170578571Y-107383390D02*
X170530952Y-107431009D01*
X170530952Y-107431009D02*
X170483333Y-107526247D01*
X170483333Y-107526247D02*
X170483333Y-107764342D01*
X170483333Y-107764342D02*
X170530952Y-107859580D01*
X170530952Y-107859580D02*
X170578571Y-107907200D01*
X170578571Y-107907200D02*
X170673809Y-107954819D01*
X170673809Y-107954819D02*
X170959523Y-107954819D01*
X170959523Y-107954819D02*
X171054761Y-107907200D01*
X171054761Y-107907200D02*
X171102380Y-107859580D01*
X172483333Y-119654819D02*
X172483333Y-120369104D01*
X172483333Y-120369104D02*
X172530952Y-120511961D01*
X172530952Y-120511961D02*
X172626190Y-120607200D01*
X172626190Y-120607200D02*
X172769047Y-120654819D01*
X172769047Y-120654819D02*
X172864285Y-120654819D01*
X172007142Y-120654819D02*
X172007142Y-119654819D01*
X172007142Y-119654819D02*
X171626190Y-119654819D01*
X171626190Y-119654819D02*
X171530952Y-119702438D01*
X171530952Y-119702438D02*
X171483333Y-119750057D01*
X171483333Y-119750057D02*
X171435714Y-119845295D01*
X171435714Y-119845295D02*
X171435714Y-119988152D01*
X171435714Y-119988152D02*
X171483333Y-120083390D01*
X171483333Y-120083390D02*
X171530952Y-120131009D01*
X171530952Y-120131009D02*
X171626190Y-120178628D01*
X171626190Y-120178628D02*
X172007142Y-120178628D01*
X170578571Y-119654819D02*
X170769047Y-119654819D01*
X170769047Y-119654819D02*
X170864285Y-119702438D01*
X170864285Y-119702438D02*
X170911904Y-119750057D01*
X170911904Y-119750057D02*
X171007142Y-119892914D01*
X171007142Y-119892914D02*
X171054761Y-120083390D01*
X171054761Y-120083390D02*
X171054761Y-120464342D01*
X171054761Y-120464342D02*
X171007142Y-120559580D01*
X171007142Y-120559580D02*
X170959523Y-120607200D01*
X170959523Y-120607200D02*
X170864285Y-120654819D01*
X170864285Y-120654819D02*
X170673809Y-120654819D01*
X170673809Y-120654819D02*
X170578571Y-120607200D01*
X170578571Y-120607200D02*
X170530952Y-120559580D01*
X170530952Y-120559580D02*
X170483333Y-120464342D01*
X170483333Y-120464342D02*
X170483333Y-120226247D01*
X170483333Y-120226247D02*
X170530952Y-120131009D01*
X170530952Y-120131009D02*
X170578571Y-120083390D01*
X170578571Y-120083390D02*
X170673809Y-120035771D01*
X170673809Y-120035771D02*
X170864285Y-120035771D01*
X170864285Y-120035771D02*
X170959523Y-120083390D01*
X170959523Y-120083390D02*
X171007142Y-120131009D01*
X171007142Y-120131009D02*
X171054761Y-120226247D01*
X161783333Y-109954819D02*
X161783333Y-110669104D01*
X161783333Y-110669104D02*
X161830952Y-110811961D01*
X161830952Y-110811961D02*
X161926190Y-110907200D01*
X161926190Y-110907200D02*
X162069047Y-110954819D01*
X162069047Y-110954819D02*
X162164285Y-110954819D01*
X161307142Y-110954819D02*
X161307142Y-109954819D01*
X161307142Y-109954819D02*
X160926190Y-109954819D01*
X160926190Y-109954819D02*
X160830952Y-110002438D01*
X160830952Y-110002438D02*
X160783333Y-110050057D01*
X160783333Y-110050057D02*
X160735714Y-110145295D01*
X160735714Y-110145295D02*
X160735714Y-110288152D01*
X160735714Y-110288152D02*
X160783333Y-110383390D01*
X160783333Y-110383390D02*
X160830952Y-110431009D01*
X160830952Y-110431009D02*
X160926190Y-110478628D01*
X160926190Y-110478628D02*
X161307142Y-110478628D01*
X159783333Y-110954819D02*
X160354761Y-110954819D01*
X160069047Y-110954819D02*
X160069047Y-109954819D01*
X160069047Y-109954819D02*
X160164285Y-110097676D01*
X160164285Y-110097676D02*
X160259523Y-110192914D01*
X160259523Y-110192914D02*
X160354761Y-110240533D01*
X172433333Y-115254819D02*
X172433333Y-115969104D01*
X172433333Y-115969104D02*
X172480952Y-116111961D01*
X172480952Y-116111961D02*
X172576190Y-116207200D01*
X172576190Y-116207200D02*
X172719047Y-116254819D01*
X172719047Y-116254819D02*
X172814285Y-116254819D01*
X171957142Y-116254819D02*
X171957142Y-115254819D01*
X171957142Y-115254819D02*
X171576190Y-115254819D01*
X171576190Y-115254819D02*
X171480952Y-115302438D01*
X171480952Y-115302438D02*
X171433333Y-115350057D01*
X171433333Y-115350057D02*
X171385714Y-115445295D01*
X171385714Y-115445295D02*
X171385714Y-115588152D01*
X171385714Y-115588152D02*
X171433333Y-115683390D01*
X171433333Y-115683390D02*
X171480952Y-115731009D01*
X171480952Y-115731009D02*
X171576190Y-115778628D01*
X171576190Y-115778628D02*
X171957142Y-115778628D01*
X170480952Y-115254819D02*
X170957142Y-115254819D01*
X170957142Y-115254819D02*
X171004761Y-115731009D01*
X171004761Y-115731009D02*
X170957142Y-115683390D01*
X170957142Y-115683390D02*
X170861904Y-115635771D01*
X170861904Y-115635771D02*
X170623809Y-115635771D01*
X170623809Y-115635771D02*
X170528571Y-115683390D01*
X170528571Y-115683390D02*
X170480952Y-115731009D01*
X170480952Y-115731009D02*
X170433333Y-115826247D01*
X170433333Y-115826247D02*
X170433333Y-116064342D01*
X170433333Y-116064342D02*
X170480952Y-116159580D01*
X170480952Y-116159580D02*
X170528571Y-116207200D01*
X170528571Y-116207200D02*
X170623809Y-116254819D01*
X170623809Y-116254819D02*
X170861904Y-116254819D01*
X170861904Y-116254819D02*
X170957142Y-116207200D01*
X170957142Y-116207200D02*
X171004761Y-116159580D01*
X161983333Y-119904819D02*
X161983333Y-120619104D01*
X161983333Y-120619104D02*
X162030952Y-120761961D01*
X162030952Y-120761961D02*
X162126190Y-120857200D01*
X162126190Y-120857200D02*
X162269047Y-120904819D01*
X162269047Y-120904819D02*
X162364285Y-120904819D01*
X161507142Y-120904819D02*
X161507142Y-119904819D01*
X161507142Y-119904819D02*
X161126190Y-119904819D01*
X161126190Y-119904819D02*
X161030952Y-119952438D01*
X161030952Y-119952438D02*
X160983333Y-120000057D01*
X160983333Y-120000057D02*
X160935714Y-120095295D01*
X160935714Y-120095295D02*
X160935714Y-120238152D01*
X160935714Y-120238152D02*
X160983333Y-120333390D01*
X160983333Y-120333390D02*
X161030952Y-120381009D01*
X161030952Y-120381009D02*
X161126190Y-120428628D01*
X161126190Y-120428628D02*
X161507142Y-120428628D01*
X160364285Y-120333390D02*
X160459523Y-120285771D01*
X160459523Y-120285771D02*
X160507142Y-120238152D01*
X160507142Y-120238152D02*
X160554761Y-120142914D01*
X160554761Y-120142914D02*
X160554761Y-120095295D01*
X160554761Y-120095295D02*
X160507142Y-120000057D01*
X160507142Y-120000057D02*
X160459523Y-119952438D01*
X160459523Y-119952438D02*
X160364285Y-119904819D01*
X160364285Y-119904819D02*
X160173809Y-119904819D01*
X160173809Y-119904819D02*
X160078571Y-119952438D01*
X160078571Y-119952438D02*
X160030952Y-120000057D01*
X160030952Y-120000057D02*
X159983333Y-120095295D01*
X159983333Y-120095295D02*
X159983333Y-120142914D01*
X159983333Y-120142914D02*
X160030952Y-120238152D01*
X160030952Y-120238152D02*
X160078571Y-120285771D01*
X160078571Y-120285771D02*
X160173809Y-120333390D01*
X160173809Y-120333390D02*
X160364285Y-120333390D01*
X160364285Y-120333390D02*
X160459523Y-120381009D01*
X160459523Y-120381009D02*
X160507142Y-120428628D01*
X160507142Y-120428628D02*
X160554761Y-120523866D01*
X160554761Y-120523866D02*
X160554761Y-120714342D01*
X160554761Y-120714342D02*
X160507142Y-120809580D01*
X160507142Y-120809580D02*
X160459523Y-120857200D01*
X160459523Y-120857200D02*
X160364285Y-120904819D01*
X160364285Y-120904819D02*
X160173809Y-120904819D01*
X160173809Y-120904819D02*
X160078571Y-120857200D01*
X160078571Y-120857200D02*
X160030952Y-120809580D01*
X160030952Y-120809580D02*
X159983333Y-120714342D01*
X159983333Y-120714342D02*
X159983333Y-120523866D01*
X159983333Y-120523866D02*
X160030952Y-120428628D01*
X160030952Y-120428628D02*
X160078571Y-120381009D01*
X160078571Y-120381009D02*
X160173809Y-120333390D01*
X172483333Y-111154819D02*
X172483333Y-111869104D01*
X172483333Y-111869104D02*
X172530952Y-112011961D01*
X172530952Y-112011961D02*
X172626190Y-112107200D01*
X172626190Y-112107200D02*
X172769047Y-112154819D01*
X172769047Y-112154819D02*
X172864285Y-112154819D01*
X172007142Y-112154819D02*
X172007142Y-111154819D01*
X172007142Y-111154819D02*
X171626190Y-111154819D01*
X171626190Y-111154819D02*
X171530952Y-111202438D01*
X171530952Y-111202438D02*
X171483333Y-111250057D01*
X171483333Y-111250057D02*
X171435714Y-111345295D01*
X171435714Y-111345295D02*
X171435714Y-111488152D01*
X171435714Y-111488152D02*
X171483333Y-111583390D01*
X171483333Y-111583390D02*
X171530952Y-111631009D01*
X171530952Y-111631009D02*
X171626190Y-111678628D01*
X171626190Y-111678628D02*
X172007142Y-111678628D01*
X170578571Y-111488152D02*
X170578571Y-112154819D01*
X170816666Y-111107200D02*
X171054761Y-111821485D01*
X171054761Y-111821485D02*
X170435714Y-111821485D01*
X161783333Y-115654819D02*
X161783333Y-116369104D01*
X161783333Y-116369104D02*
X161830952Y-116511961D01*
X161830952Y-116511961D02*
X161926190Y-116607200D01*
X161926190Y-116607200D02*
X162069047Y-116654819D01*
X162069047Y-116654819D02*
X162164285Y-116654819D01*
X161307142Y-116654819D02*
X161307142Y-115654819D01*
X161307142Y-115654819D02*
X160926190Y-115654819D01*
X160926190Y-115654819D02*
X160830952Y-115702438D01*
X160830952Y-115702438D02*
X160783333Y-115750057D01*
X160783333Y-115750057D02*
X160735714Y-115845295D01*
X160735714Y-115845295D02*
X160735714Y-115988152D01*
X160735714Y-115988152D02*
X160783333Y-116083390D01*
X160783333Y-116083390D02*
X160830952Y-116131009D01*
X160830952Y-116131009D02*
X160926190Y-116178628D01*
X160926190Y-116178628D02*
X161307142Y-116178628D01*
X160354761Y-115750057D02*
X160307142Y-115702438D01*
X160307142Y-115702438D02*
X160211904Y-115654819D01*
X160211904Y-115654819D02*
X159973809Y-115654819D01*
X159973809Y-115654819D02*
X159878571Y-115702438D01*
X159878571Y-115702438D02*
X159830952Y-115750057D01*
X159830952Y-115750057D02*
X159783333Y-115845295D01*
X159783333Y-115845295D02*
X159783333Y-115940533D01*
X159783333Y-115940533D02*
X159830952Y-116083390D01*
X159830952Y-116083390D02*
X160402380Y-116654819D01*
X160402380Y-116654819D02*
X159783333Y-116654819D01*
D11*
X170250000Y-105400000D02*
X170250000Y-106000000D01*
X170950000Y-106700000D02*
X172350000Y-106700000D01*
X172350000Y-104700000D02*
X170950000Y-104700000D01*
X173050000Y-106000000D02*
X173050000Y-105400000D01*
X170250000Y-105400000D02*
G75*
G02*
X170950000Y-104700000I699999J1D01*
G01*
X170950000Y-106700000D02*
G75*
G02*
X170250000Y-106000000I-1J699999D01*
G01*
X172350000Y-104700000D02*
G75*
G02*
X173050000Y-105400000I0J-700000D01*
G01*
X173050000Y-106000000D02*
G75*
G02*
X172350000Y-106700000I-700000J0D01*
G01*
X170250000Y-118100000D02*
X170250000Y-118700000D01*
X170950000Y-119400000D02*
X172350000Y-119400000D01*
X172350000Y-117400000D02*
X170950000Y-117400000D01*
X173050000Y-118700000D02*
X173050000Y-118100000D01*
X170250000Y-118100000D02*
G75*
G02*
X170950000Y-117400000I699999J1D01*
G01*
X170950000Y-119400000D02*
G75*
G02*
X170250000Y-118700000I-1J699999D01*
G01*
X172350000Y-117400000D02*
G75*
G02*
X173050000Y-118100000I0J-700000D01*
G01*
X173050000Y-118700000D02*
G75*
G02*
X172350000Y-119400000I-700000J0D01*
G01*
X159550000Y-108400000D02*
X159550000Y-109000000D01*
X160250000Y-109700000D02*
X161650000Y-109700000D01*
X161650000Y-107700000D02*
X160250000Y-107700000D01*
X162350000Y-109000000D02*
X162350000Y-108400000D01*
X159550000Y-108400000D02*
G75*
G02*
X160250000Y-107700000I699999J1D01*
G01*
X160250000Y-109700000D02*
G75*
G02*
X159550000Y-109000000I-1J699999D01*
G01*
X161650000Y-107700000D02*
G75*
G02*
X162350000Y-108400000I0J-700000D01*
G01*
X162350000Y-109000000D02*
G75*
G02*
X161650000Y-109700000I-700000J0D01*
G01*
X170200000Y-113700000D02*
X170200000Y-114300000D01*
X170900000Y-115000000D02*
X172300000Y-115000000D01*
X172300000Y-113000000D02*
X170900000Y-113000000D01*
X173000000Y-114300000D02*
X173000000Y-113700000D01*
X170200000Y-113700000D02*
G75*
G02*
X170900000Y-113000000I699999J1D01*
G01*
X170900000Y-115000000D02*
G75*
G02*
X170200000Y-114300000I-1J699999D01*
G01*
X172300000Y-113000000D02*
G75*
G02*
X173000000Y-113700000I0J-700000D01*
G01*
X173000000Y-114300000D02*
G75*
G02*
X172300000Y-115000000I-700000J0D01*
G01*
X159750000Y-118350000D02*
X159750000Y-118950000D01*
X160450000Y-119650000D02*
X161850000Y-119650000D01*
X161850000Y-117650000D02*
X160450000Y-117650000D01*
X162550000Y-118950000D02*
X162550000Y-118350000D01*
X159750000Y-118350000D02*
G75*
G02*
X160450000Y-117650000I699999J1D01*
G01*
X160450000Y-119650000D02*
G75*
G02*
X159750000Y-118950000I-1J699999D01*
G01*
X161850000Y-117650000D02*
G75*
G02*
X162550000Y-118350000I0J-700000D01*
G01*
X162550000Y-118950000D02*
G75*
G02*
X161850000Y-119650000I-700000J0D01*
G01*
X170250000Y-109600000D02*
X170250000Y-110200000D01*
X170950000Y-110900000D02*
X172350000Y-110900000D01*
X172350000Y-108900000D02*
X170950000Y-108900000D01*
X173050000Y-110200000D02*
X173050000Y-109600000D01*
X170250000Y-109600000D02*
G75*
G02*
X170950000Y-108900000I699999J1D01*
G01*
X170950000Y-110900000D02*
G75*
G02*
X170250000Y-110200000I-1J699999D01*
G01*
X172350000Y-108900000D02*
G75*
G02*
X173050000Y-109600000I0J-700000D01*
G01*
X173050000Y-110200000D02*
G75*
G02*
X172350000Y-110900000I-700000J0D01*
G01*
X159550000Y-114100000D02*
X159550000Y-114700000D01*
X160250000Y-115400000D02*
X161650000Y-115400000D01*
X161650000Y-113400000D02*
X160250000Y-113400000D01*
X162350000Y-114700000D02*
X162350000Y-114100000D01*
X159550000Y-114100000D02*
G75*
G02*
X160250000Y-113400000I699999J1D01*
G01*
X160250000Y-115400000D02*
G75*
G02*
X159550000Y-114700000I-1J699999D01*
G01*
X161650000Y-113400000D02*
G75*
G02*
X162350000Y-114100000I0J-700000D01*
G01*
X162350000Y-114700000D02*
G75*
G02*
X161650000Y-115400000I-700000J0D01*
G01*
M02*
