G04 #@! TF.GenerationSoftware,KiCad,Pcbnew,9.0.0*
G04 #@! TF.CreationDate,2025-03-20T10:08:34+09:00*
G04 #@! TF.ProjectId,K6802-SBC,4b363830-322d-4534-9243-2e6b69636164,rev?*
G04 #@! TF.SameCoordinates,Original*
G04 #@! TF.FileFunction,Legend,Top*
G04 #@! TF.FilePolarity,Positive*
%FSLAX46Y46*%
G04 Gerber Fmt 4.6, Leading zero omitted, Abs format (unit mm)*
G04 Created by KiCad (PCBNEW 9.0.0) date 2025-03-20 10:08:34*
%MOMM*%
%LPD*%
G01*
G04 APERTURE LIST*
%ADD10C,0.100000*%
%ADD11C,0.150000*%
%ADD12C,0.200000*%
%ADD13C,0.120000*%
G04 APERTURE END LIST*
D10*
X155387693Y-99862419D02*
X154816265Y-99862419D01*
X155101979Y-99862419D02*
X155101979Y-98862419D01*
X155101979Y-98862419D02*
X155006741Y-99005276D01*
X155006741Y-99005276D02*
X154911503Y-99100514D01*
X154911503Y-99100514D02*
X154816265Y-99148133D01*
X156006741Y-98862419D02*
X156101979Y-98862419D01*
X156101979Y-98862419D02*
X156197217Y-98910038D01*
X156197217Y-98910038D02*
X156244836Y-98957657D01*
X156244836Y-98957657D02*
X156292455Y-99052895D01*
X156292455Y-99052895D02*
X156340074Y-99243371D01*
X156340074Y-99243371D02*
X156340074Y-99481466D01*
X156340074Y-99481466D02*
X156292455Y-99671942D01*
X156292455Y-99671942D02*
X156244836Y-99767180D01*
X156244836Y-99767180D02*
X156197217Y-99814800D01*
X156197217Y-99814800D02*
X156101979Y-99862419D01*
X156101979Y-99862419D02*
X156006741Y-99862419D01*
X156006741Y-99862419D02*
X155911503Y-99814800D01*
X155911503Y-99814800D02*
X155863884Y-99767180D01*
X155863884Y-99767180D02*
X155816265Y-99671942D01*
X155816265Y-99671942D02*
X155768646Y-99481466D01*
X155768646Y-99481466D02*
X155768646Y-99243371D01*
X155768646Y-99243371D02*
X155816265Y-99052895D01*
X155816265Y-99052895D02*
X155863884Y-98957657D01*
X155863884Y-98957657D02*
X155911503Y-98910038D01*
X155911503Y-98910038D02*
X156006741Y-98862419D01*
X156768646Y-99862419D02*
X156768646Y-98862419D01*
X156863884Y-99481466D02*
X157149598Y-99862419D01*
X157149598Y-99195752D02*
X156768646Y-99576704D01*
X149767693Y-80072419D02*
X149196265Y-80072419D01*
X149481979Y-80072419D02*
X149481979Y-79072419D01*
X149481979Y-79072419D02*
X149386741Y-79215276D01*
X149386741Y-79215276D02*
X149291503Y-79310514D01*
X149291503Y-79310514D02*
X149196265Y-79358133D01*
X150386741Y-79072419D02*
X150481979Y-79072419D01*
X150481979Y-79072419D02*
X150577217Y-79120038D01*
X150577217Y-79120038D02*
X150624836Y-79167657D01*
X150624836Y-79167657D02*
X150672455Y-79262895D01*
X150672455Y-79262895D02*
X150720074Y-79453371D01*
X150720074Y-79453371D02*
X150720074Y-79691466D01*
X150720074Y-79691466D02*
X150672455Y-79881942D01*
X150672455Y-79881942D02*
X150624836Y-79977180D01*
X150624836Y-79977180D02*
X150577217Y-80024800D01*
X150577217Y-80024800D02*
X150481979Y-80072419D01*
X150481979Y-80072419D02*
X150386741Y-80072419D01*
X150386741Y-80072419D02*
X150291503Y-80024800D01*
X150291503Y-80024800D02*
X150243884Y-79977180D01*
X150243884Y-79977180D02*
X150196265Y-79881942D01*
X150196265Y-79881942D02*
X150148646Y-79691466D01*
X150148646Y-79691466D02*
X150148646Y-79453371D01*
X150148646Y-79453371D02*
X150196265Y-79262895D01*
X150196265Y-79262895D02*
X150243884Y-79167657D01*
X150243884Y-79167657D02*
X150291503Y-79120038D01*
X150291503Y-79120038D02*
X150386741Y-79072419D01*
X151148646Y-80072419D02*
X151148646Y-79072419D01*
X151243884Y-79691466D02*
X151529598Y-80072419D01*
X151529598Y-79405752D02*
X151148646Y-79786704D01*
D11*
X161691371Y-108412969D02*
X161691371Y-109412969D01*
X161691371Y-109412969D02*
X160191371Y-108770112D01*
X161191371Y-110627255D02*
X160191371Y-110627255D01*
X161762800Y-110270112D02*
X160691371Y-109912969D01*
X160691371Y-109912969D02*
X160691371Y-110841540D01*
X160191371Y-112127254D02*
X160191371Y-111412968D01*
X160191371Y-111412968D02*
X161691371Y-111412968D01*
X160262800Y-112555826D02*
X160191371Y-112770112D01*
X160191371Y-112770112D02*
X160191371Y-113127254D01*
X160191371Y-113127254D02*
X160262800Y-113270112D01*
X160262800Y-113270112D02*
X160334228Y-113341540D01*
X160334228Y-113341540D02*
X160477085Y-113412969D01*
X160477085Y-113412969D02*
X160619942Y-113412969D01*
X160619942Y-113412969D02*
X160762800Y-113341540D01*
X160762800Y-113341540D02*
X160834228Y-113270112D01*
X160834228Y-113270112D02*
X160905657Y-113127254D01*
X160905657Y-113127254D02*
X160977085Y-112841540D01*
X160977085Y-112841540D02*
X161048514Y-112698683D01*
X161048514Y-112698683D02*
X161119942Y-112627254D01*
X161119942Y-112627254D02*
X161262800Y-112555826D01*
X161262800Y-112555826D02*
X161405657Y-112555826D01*
X161405657Y-112555826D02*
X161548514Y-112627254D01*
X161548514Y-112627254D02*
X161619942Y-112698683D01*
X161619942Y-112698683D02*
X161691371Y-112841540D01*
X161691371Y-112841540D02*
X161691371Y-113198683D01*
X161691371Y-113198683D02*
X161619942Y-113412969D01*
X161691371Y-114341540D02*
X161691371Y-114484397D01*
X161691371Y-114484397D02*
X161619942Y-114627254D01*
X161619942Y-114627254D02*
X161548514Y-114698683D01*
X161548514Y-114698683D02*
X161405657Y-114770111D01*
X161405657Y-114770111D02*
X161119942Y-114841540D01*
X161119942Y-114841540D02*
X160762800Y-114841540D01*
X160762800Y-114841540D02*
X160477085Y-114770111D01*
X160477085Y-114770111D02*
X160334228Y-114698683D01*
X160334228Y-114698683D02*
X160262800Y-114627254D01*
X160262800Y-114627254D02*
X160191371Y-114484397D01*
X160191371Y-114484397D02*
X160191371Y-114341540D01*
X160191371Y-114341540D02*
X160262800Y-114198683D01*
X160262800Y-114198683D02*
X160334228Y-114127254D01*
X160334228Y-114127254D02*
X160477085Y-114055825D01*
X160477085Y-114055825D02*
X160762800Y-113984397D01*
X160762800Y-113984397D02*
X161119942Y-113984397D01*
X161119942Y-113984397D02*
X161405657Y-114055825D01*
X161405657Y-114055825D02*
X161548514Y-114127254D01*
X161548514Y-114127254D02*
X161619942Y-114198683D01*
X161619942Y-114198683D02*
X161691371Y-114341540D01*
X161691371Y-115770111D02*
X161691371Y-115912968D01*
X161691371Y-115912968D02*
X161619942Y-116055825D01*
X161619942Y-116055825D02*
X161548514Y-116127254D01*
X161548514Y-116127254D02*
X161405657Y-116198682D01*
X161405657Y-116198682D02*
X161119942Y-116270111D01*
X161119942Y-116270111D02*
X160762800Y-116270111D01*
X160762800Y-116270111D02*
X160477085Y-116198682D01*
X160477085Y-116198682D02*
X160334228Y-116127254D01*
X160334228Y-116127254D02*
X160262800Y-116055825D01*
X160262800Y-116055825D02*
X160191371Y-115912968D01*
X160191371Y-115912968D02*
X160191371Y-115770111D01*
X160191371Y-115770111D02*
X160262800Y-115627254D01*
X160262800Y-115627254D02*
X160334228Y-115555825D01*
X160334228Y-115555825D02*
X160477085Y-115484396D01*
X160477085Y-115484396D02*
X160762800Y-115412968D01*
X160762800Y-115412968D02*
X161119942Y-115412968D01*
X161119942Y-115412968D02*
X161405657Y-115484396D01*
X161405657Y-115484396D02*
X161548514Y-115555825D01*
X161548514Y-115555825D02*
X161619942Y-115627254D01*
X161619942Y-115627254D02*
X161691371Y-115770111D01*
D10*
X156486265Y-90316704D02*
X156962455Y-90316704D01*
X156391027Y-90602419D02*
X156724360Y-89602419D01*
X156724360Y-89602419D02*
X157057693Y-90602419D01*
X157914836Y-90602419D02*
X157343408Y-90602419D01*
X157629122Y-90602419D02*
X157629122Y-89602419D01*
X157629122Y-89602419D02*
X157533884Y-89745276D01*
X157533884Y-89745276D02*
X157438646Y-89840514D01*
X157438646Y-89840514D02*
X157343408Y-89888133D01*
X158771979Y-89935752D02*
X158771979Y-90602419D01*
X158533884Y-89554800D02*
X158295789Y-90269085D01*
X158295789Y-90269085D02*
X158914836Y-90269085D01*
D11*
X173291371Y-70955826D02*
X174791371Y-70955826D01*
X174791371Y-70955826D02*
X173719942Y-71455826D01*
X173719942Y-71455826D02*
X174791371Y-71955826D01*
X174791371Y-71955826D02*
X173291371Y-71955826D01*
X173434228Y-73527255D02*
X173362800Y-73455827D01*
X173362800Y-73455827D02*
X173291371Y-73241541D01*
X173291371Y-73241541D02*
X173291371Y-73098684D01*
X173291371Y-73098684D02*
X173362800Y-72884398D01*
X173362800Y-72884398D02*
X173505657Y-72741541D01*
X173505657Y-72741541D02*
X173648514Y-72670112D01*
X173648514Y-72670112D02*
X173934228Y-72598684D01*
X173934228Y-72598684D02*
X174148514Y-72598684D01*
X174148514Y-72598684D02*
X174434228Y-72670112D01*
X174434228Y-72670112D02*
X174577085Y-72741541D01*
X174577085Y-72741541D02*
X174719942Y-72884398D01*
X174719942Y-72884398D02*
X174791371Y-73098684D01*
X174791371Y-73098684D02*
X174791371Y-73241541D01*
X174791371Y-73241541D02*
X174719942Y-73455827D01*
X174719942Y-73455827D02*
X174648514Y-73527255D01*
X174791371Y-74812970D02*
X174791371Y-74527255D01*
X174791371Y-74527255D02*
X174719942Y-74384398D01*
X174719942Y-74384398D02*
X174648514Y-74312970D01*
X174648514Y-74312970D02*
X174434228Y-74170112D01*
X174434228Y-74170112D02*
X174148514Y-74098684D01*
X174148514Y-74098684D02*
X173577085Y-74098684D01*
X173577085Y-74098684D02*
X173434228Y-74170112D01*
X173434228Y-74170112D02*
X173362800Y-74241541D01*
X173362800Y-74241541D02*
X173291371Y-74384398D01*
X173291371Y-74384398D02*
X173291371Y-74670112D01*
X173291371Y-74670112D02*
X173362800Y-74812970D01*
X173362800Y-74812970D02*
X173434228Y-74884398D01*
X173434228Y-74884398D02*
X173577085Y-74955827D01*
X173577085Y-74955827D02*
X173934228Y-74955827D01*
X173934228Y-74955827D02*
X174077085Y-74884398D01*
X174077085Y-74884398D02*
X174148514Y-74812970D01*
X174148514Y-74812970D02*
X174219942Y-74670112D01*
X174219942Y-74670112D02*
X174219942Y-74384398D01*
X174219942Y-74384398D02*
X174148514Y-74241541D01*
X174148514Y-74241541D02*
X174077085Y-74170112D01*
X174077085Y-74170112D02*
X173934228Y-74098684D01*
X174148514Y-75812969D02*
X174219942Y-75670112D01*
X174219942Y-75670112D02*
X174291371Y-75598683D01*
X174291371Y-75598683D02*
X174434228Y-75527255D01*
X174434228Y-75527255D02*
X174505657Y-75527255D01*
X174505657Y-75527255D02*
X174648514Y-75598683D01*
X174648514Y-75598683D02*
X174719942Y-75670112D01*
X174719942Y-75670112D02*
X174791371Y-75812969D01*
X174791371Y-75812969D02*
X174791371Y-76098683D01*
X174791371Y-76098683D02*
X174719942Y-76241541D01*
X174719942Y-76241541D02*
X174648514Y-76312969D01*
X174648514Y-76312969D02*
X174505657Y-76384398D01*
X174505657Y-76384398D02*
X174434228Y-76384398D01*
X174434228Y-76384398D02*
X174291371Y-76312969D01*
X174291371Y-76312969D02*
X174219942Y-76241541D01*
X174219942Y-76241541D02*
X174148514Y-76098683D01*
X174148514Y-76098683D02*
X174148514Y-75812969D01*
X174148514Y-75812969D02*
X174077085Y-75670112D01*
X174077085Y-75670112D02*
X174005657Y-75598683D01*
X174005657Y-75598683D02*
X173862800Y-75527255D01*
X173862800Y-75527255D02*
X173577085Y-75527255D01*
X173577085Y-75527255D02*
X173434228Y-75598683D01*
X173434228Y-75598683D02*
X173362800Y-75670112D01*
X173362800Y-75670112D02*
X173291371Y-75812969D01*
X173291371Y-75812969D02*
X173291371Y-76098683D01*
X173291371Y-76098683D02*
X173362800Y-76241541D01*
X173362800Y-76241541D02*
X173434228Y-76312969D01*
X173434228Y-76312969D02*
X173577085Y-76384398D01*
X173577085Y-76384398D02*
X173862800Y-76384398D01*
X173862800Y-76384398D02*
X174005657Y-76312969D01*
X174005657Y-76312969D02*
X174077085Y-76241541D01*
X174077085Y-76241541D02*
X174148514Y-76098683D01*
X174791371Y-77741540D02*
X174791371Y-77027254D01*
X174791371Y-77027254D02*
X174077085Y-76955826D01*
X174077085Y-76955826D02*
X174148514Y-77027254D01*
X174148514Y-77027254D02*
X174219942Y-77170112D01*
X174219942Y-77170112D02*
X174219942Y-77527254D01*
X174219942Y-77527254D02*
X174148514Y-77670112D01*
X174148514Y-77670112D02*
X174077085Y-77741540D01*
X174077085Y-77741540D02*
X173934228Y-77812969D01*
X173934228Y-77812969D02*
X173577085Y-77812969D01*
X173577085Y-77812969D02*
X173434228Y-77741540D01*
X173434228Y-77741540D02*
X173362800Y-77670112D01*
X173362800Y-77670112D02*
X173291371Y-77527254D01*
X173291371Y-77527254D02*
X173291371Y-77170112D01*
X173291371Y-77170112D02*
X173362800Y-77027254D01*
X173362800Y-77027254D02*
X173434228Y-76955826D01*
X174791371Y-78741540D02*
X174791371Y-78884397D01*
X174791371Y-78884397D02*
X174719942Y-79027254D01*
X174719942Y-79027254D02*
X174648514Y-79098683D01*
X174648514Y-79098683D02*
X174505657Y-79170111D01*
X174505657Y-79170111D02*
X174219942Y-79241540D01*
X174219942Y-79241540D02*
X173862800Y-79241540D01*
X173862800Y-79241540D02*
X173577085Y-79170111D01*
X173577085Y-79170111D02*
X173434228Y-79098683D01*
X173434228Y-79098683D02*
X173362800Y-79027254D01*
X173362800Y-79027254D02*
X173291371Y-78884397D01*
X173291371Y-78884397D02*
X173291371Y-78741540D01*
X173291371Y-78741540D02*
X173362800Y-78598683D01*
X173362800Y-78598683D02*
X173434228Y-78527254D01*
X173434228Y-78527254D02*
X173577085Y-78455825D01*
X173577085Y-78455825D02*
X173862800Y-78384397D01*
X173862800Y-78384397D02*
X174219942Y-78384397D01*
X174219942Y-78384397D02*
X174505657Y-78455825D01*
X174505657Y-78455825D02*
X174648514Y-78527254D01*
X174648514Y-78527254D02*
X174719942Y-78598683D01*
X174719942Y-78598683D02*
X174791371Y-78741540D01*
X173719942Y-80955825D02*
X173719942Y-81670111D01*
X173291371Y-80812968D02*
X174791371Y-81312968D01*
X174791371Y-81312968D02*
X173291371Y-81812968D01*
X173434228Y-83170110D02*
X173362800Y-83098682D01*
X173362800Y-83098682D02*
X173291371Y-82884396D01*
X173291371Y-82884396D02*
X173291371Y-82741539D01*
X173291371Y-82741539D02*
X173362800Y-82527253D01*
X173362800Y-82527253D02*
X173505657Y-82384396D01*
X173505657Y-82384396D02*
X173648514Y-82312967D01*
X173648514Y-82312967D02*
X173934228Y-82241539D01*
X173934228Y-82241539D02*
X174148514Y-82241539D01*
X174148514Y-82241539D02*
X174434228Y-82312967D01*
X174434228Y-82312967D02*
X174577085Y-82384396D01*
X174577085Y-82384396D02*
X174719942Y-82527253D01*
X174719942Y-82527253D02*
X174791371Y-82741539D01*
X174791371Y-82741539D02*
X174791371Y-82884396D01*
X174791371Y-82884396D02*
X174719942Y-83098682D01*
X174719942Y-83098682D02*
X174648514Y-83170110D01*
X173291371Y-83812967D02*
X174791371Y-83812967D01*
X173719942Y-84455825D02*
X173719942Y-85170111D01*
X173291371Y-84312968D02*
X174791371Y-84812968D01*
X174791371Y-84812968D02*
X173291371Y-85312968D01*
D10*
X102405752Y-85767544D02*
X103072419Y-85767544D01*
X102024800Y-86005639D02*
X102739085Y-86243734D01*
X102739085Y-86243734D02*
X102739085Y-85624687D01*
X102072419Y-85338972D02*
X102072419Y-84672306D01*
X102072419Y-84672306D02*
X103072419Y-85100877D01*
X103072419Y-84291353D02*
X102072419Y-84291353D01*
X102691466Y-84196115D02*
X103072419Y-83910401D01*
X102405752Y-83910401D02*
X102786704Y-84291353D01*
X182512419Y-114802306D02*
X182512419Y-115373734D01*
X182512419Y-115088020D02*
X181512419Y-115088020D01*
X181512419Y-115088020D02*
X181655276Y-115183258D01*
X181655276Y-115183258D02*
X181750514Y-115278496D01*
X181750514Y-115278496D02*
X181798133Y-115373734D01*
X182512419Y-114326115D02*
X182512419Y-114135639D01*
X182512419Y-114135639D02*
X182464800Y-114040401D01*
X182464800Y-114040401D02*
X182417180Y-113992782D01*
X182417180Y-113992782D02*
X182274323Y-113897544D01*
X182274323Y-113897544D02*
X182083847Y-113849925D01*
X182083847Y-113849925D02*
X181702895Y-113849925D01*
X181702895Y-113849925D02*
X181607657Y-113897544D01*
X181607657Y-113897544D02*
X181560038Y-113945163D01*
X181560038Y-113945163D02*
X181512419Y-114040401D01*
X181512419Y-114040401D02*
X181512419Y-114230877D01*
X181512419Y-114230877D02*
X181560038Y-114326115D01*
X181560038Y-114326115D02*
X181607657Y-114373734D01*
X181607657Y-114373734D02*
X181702895Y-114421353D01*
X181702895Y-114421353D02*
X181940990Y-114421353D01*
X181940990Y-114421353D02*
X182036228Y-114373734D01*
X182036228Y-114373734D02*
X182083847Y-114326115D01*
X182083847Y-114326115D02*
X182131466Y-114230877D01*
X182131466Y-114230877D02*
X182131466Y-114040401D01*
X182131466Y-114040401D02*
X182083847Y-113945163D01*
X182083847Y-113945163D02*
X182036228Y-113897544D01*
X182036228Y-113897544D02*
X181940990Y-113849925D01*
X182417180Y-113421353D02*
X182464800Y-113373734D01*
X182464800Y-113373734D02*
X182512419Y-113421353D01*
X182512419Y-113421353D02*
X182464800Y-113468972D01*
X182464800Y-113468972D02*
X182417180Y-113421353D01*
X182417180Y-113421353D02*
X182512419Y-113421353D01*
X181512419Y-112516592D02*
X181512419Y-112707068D01*
X181512419Y-112707068D02*
X181560038Y-112802306D01*
X181560038Y-112802306D02*
X181607657Y-112849925D01*
X181607657Y-112849925D02*
X181750514Y-112945163D01*
X181750514Y-112945163D02*
X181940990Y-112992782D01*
X181940990Y-112992782D02*
X182321942Y-112992782D01*
X182321942Y-112992782D02*
X182417180Y-112945163D01*
X182417180Y-112945163D02*
X182464800Y-112897544D01*
X182464800Y-112897544D02*
X182512419Y-112802306D01*
X182512419Y-112802306D02*
X182512419Y-112611830D01*
X182512419Y-112611830D02*
X182464800Y-112516592D01*
X182464800Y-112516592D02*
X182417180Y-112468973D01*
X182417180Y-112468973D02*
X182321942Y-112421354D01*
X182321942Y-112421354D02*
X182083847Y-112421354D01*
X182083847Y-112421354D02*
X181988609Y-112468973D01*
X181988609Y-112468973D02*
X181940990Y-112516592D01*
X181940990Y-112516592D02*
X181893371Y-112611830D01*
X181893371Y-112611830D02*
X181893371Y-112802306D01*
X181893371Y-112802306D02*
X181940990Y-112897544D01*
X181940990Y-112897544D02*
X181988609Y-112945163D01*
X181988609Y-112945163D02*
X182083847Y-112992782D01*
X181512419Y-111564211D02*
X181512419Y-111754687D01*
X181512419Y-111754687D02*
X181560038Y-111849925D01*
X181560038Y-111849925D02*
X181607657Y-111897544D01*
X181607657Y-111897544D02*
X181750514Y-111992782D01*
X181750514Y-111992782D02*
X181940990Y-112040401D01*
X181940990Y-112040401D02*
X182321942Y-112040401D01*
X182321942Y-112040401D02*
X182417180Y-111992782D01*
X182417180Y-111992782D02*
X182464800Y-111945163D01*
X182464800Y-111945163D02*
X182512419Y-111849925D01*
X182512419Y-111849925D02*
X182512419Y-111659449D01*
X182512419Y-111659449D02*
X182464800Y-111564211D01*
X182464800Y-111564211D02*
X182417180Y-111516592D01*
X182417180Y-111516592D02*
X182321942Y-111468973D01*
X182321942Y-111468973D02*
X182083847Y-111468973D01*
X182083847Y-111468973D02*
X181988609Y-111516592D01*
X181988609Y-111516592D02*
X181940990Y-111564211D01*
X181940990Y-111564211D02*
X181893371Y-111659449D01*
X181893371Y-111659449D02*
X181893371Y-111849925D01*
X181893371Y-111849925D02*
X181940990Y-111945163D01*
X181940990Y-111945163D02*
X181988609Y-111992782D01*
X181988609Y-111992782D02*
X182083847Y-112040401D01*
X181512419Y-110849925D02*
X181512419Y-110754687D01*
X181512419Y-110754687D02*
X181560038Y-110659449D01*
X181560038Y-110659449D02*
X181607657Y-110611830D01*
X181607657Y-110611830D02*
X181702895Y-110564211D01*
X181702895Y-110564211D02*
X181893371Y-110516592D01*
X181893371Y-110516592D02*
X182131466Y-110516592D01*
X182131466Y-110516592D02*
X182321942Y-110564211D01*
X182321942Y-110564211D02*
X182417180Y-110611830D01*
X182417180Y-110611830D02*
X182464800Y-110659449D01*
X182464800Y-110659449D02*
X182512419Y-110754687D01*
X182512419Y-110754687D02*
X182512419Y-110849925D01*
X182512419Y-110849925D02*
X182464800Y-110945163D01*
X182464800Y-110945163D02*
X182417180Y-110992782D01*
X182417180Y-110992782D02*
X182321942Y-111040401D01*
X182321942Y-111040401D02*
X182131466Y-111088020D01*
X182131466Y-111088020D02*
X181893371Y-111088020D01*
X181893371Y-111088020D02*
X181702895Y-111040401D01*
X181702895Y-111040401D02*
X181607657Y-110992782D01*
X181607657Y-110992782D02*
X181560038Y-110945163D01*
X181560038Y-110945163D02*
X181512419Y-110849925D01*
X181940990Y-109945163D02*
X181893371Y-110040401D01*
X181893371Y-110040401D02*
X181845752Y-110088020D01*
X181845752Y-110088020D02*
X181750514Y-110135639D01*
X181750514Y-110135639D02*
X181702895Y-110135639D01*
X181702895Y-110135639D02*
X181607657Y-110088020D01*
X181607657Y-110088020D02*
X181560038Y-110040401D01*
X181560038Y-110040401D02*
X181512419Y-109945163D01*
X181512419Y-109945163D02*
X181512419Y-109754687D01*
X181512419Y-109754687D02*
X181560038Y-109659449D01*
X181560038Y-109659449D02*
X181607657Y-109611830D01*
X181607657Y-109611830D02*
X181702895Y-109564211D01*
X181702895Y-109564211D02*
X181750514Y-109564211D01*
X181750514Y-109564211D02*
X181845752Y-109611830D01*
X181845752Y-109611830D02*
X181893371Y-109659449D01*
X181893371Y-109659449D02*
X181940990Y-109754687D01*
X181940990Y-109754687D02*
X181940990Y-109945163D01*
X181940990Y-109945163D02*
X181988609Y-110040401D01*
X181988609Y-110040401D02*
X182036228Y-110088020D01*
X182036228Y-110088020D02*
X182131466Y-110135639D01*
X182131466Y-110135639D02*
X182321942Y-110135639D01*
X182321942Y-110135639D02*
X182417180Y-110088020D01*
X182417180Y-110088020D02*
X182464800Y-110040401D01*
X182464800Y-110040401D02*
X182512419Y-109945163D01*
X182512419Y-109945163D02*
X182512419Y-109754687D01*
X182512419Y-109754687D02*
X182464800Y-109659449D01*
X182464800Y-109659449D02*
X182417180Y-109611830D01*
X182417180Y-109611830D02*
X182321942Y-109564211D01*
X182321942Y-109564211D02*
X182131466Y-109564211D01*
X182131466Y-109564211D02*
X182036228Y-109611830D01*
X182036228Y-109611830D02*
X181988609Y-109659449D01*
X181988609Y-109659449D02*
X181940990Y-109754687D01*
X182512419Y-109135639D02*
X181512419Y-109135639D01*
X181512419Y-109135639D02*
X182226704Y-108802306D01*
X182226704Y-108802306D02*
X181512419Y-108468973D01*
X181512419Y-108468973D02*
X182512419Y-108468973D01*
X182512419Y-107992782D02*
X181512419Y-107992782D01*
X181988609Y-107992782D02*
X181988609Y-107421354D01*
X182512419Y-107421354D02*
X181512419Y-107421354D01*
X181845752Y-107040401D02*
X181845752Y-106516592D01*
X181845752Y-106516592D02*
X182512419Y-107040401D01*
X182512419Y-107040401D02*
X182512419Y-106516592D01*
X179372419Y-103672306D02*
X179372419Y-104243734D01*
X179372419Y-103958020D02*
X178372419Y-103958020D01*
X178372419Y-103958020D02*
X178515276Y-104053258D01*
X178515276Y-104053258D02*
X178610514Y-104148496D01*
X178610514Y-104148496D02*
X178658133Y-104243734D01*
X179372419Y-103243734D02*
X178372419Y-103243734D01*
X178372419Y-103243734D02*
X179086704Y-102910401D01*
X179086704Y-102910401D02*
X178372419Y-102577068D01*
X178372419Y-102577068D02*
X179372419Y-102577068D01*
X156832455Y-79505752D02*
X156832455Y-80172419D01*
X156594360Y-79124800D02*
X156356265Y-79839085D01*
X156356265Y-79839085D02*
X156975312Y-79839085D01*
X157356265Y-80172419D02*
X157356265Y-79172419D01*
X157356265Y-79172419D02*
X157689598Y-79886704D01*
X157689598Y-79886704D02*
X158022931Y-79172419D01*
X158022931Y-79172419D02*
X158022931Y-80172419D01*
X158499122Y-80172419D02*
X158499122Y-79172419D01*
X158499122Y-79648609D02*
X159070550Y-79648609D01*
X159070550Y-80172419D02*
X159070550Y-79172419D01*
X159451503Y-79505752D02*
X159975312Y-79505752D01*
X159975312Y-79505752D02*
X159451503Y-80172419D01*
X159451503Y-80172419D02*
X159975312Y-80172419D01*
D11*
X150891371Y-108512969D02*
X150891371Y-109512969D01*
X150891371Y-109512969D02*
X149391371Y-108870112D01*
X150391371Y-110727255D02*
X149391371Y-110727255D01*
X150962800Y-110370112D02*
X149891371Y-110012969D01*
X149891371Y-110012969D02*
X149891371Y-110941540D01*
X149391371Y-112227254D02*
X149391371Y-111512968D01*
X149391371Y-111512968D02*
X150891371Y-111512968D01*
X149462800Y-112655826D02*
X149391371Y-112870112D01*
X149391371Y-112870112D02*
X149391371Y-113227254D01*
X149391371Y-113227254D02*
X149462800Y-113370112D01*
X149462800Y-113370112D02*
X149534228Y-113441540D01*
X149534228Y-113441540D02*
X149677085Y-113512969D01*
X149677085Y-113512969D02*
X149819942Y-113512969D01*
X149819942Y-113512969D02*
X149962800Y-113441540D01*
X149962800Y-113441540D02*
X150034228Y-113370112D01*
X150034228Y-113370112D02*
X150105657Y-113227254D01*
X150105657Y-113227254D02*
X150177085Y-112941540D01*
X150177085Y-112941540D02*
X150248514Y-112798683D01*
X150248514Y-112798683D02*
X150319942Y-112727254D01*
X150319942Y-112727254D02*
X150462800Y-112655826D01*
X150462800Y-112655826D02*
X150605657Y-112655826D01*
X150605657Y-112655826D02*
X150748514Y-112727254D01*
X150748514Y-112727254D02*
X150819942Y-112798683D01*
X150819942Y-112798683D02*
X150891371Y-112941540D01*
X150891371Y-112941540D02*
X150891371Y-113298683D01*
X150891371Y-113298683D02*
X150819942Y-113512969D01*
X150891371Y-114441540D02*
X150891371Y-114584397D01*
X150891371Y-114584397D02*
X150819942Y-114727254D01*
X150819942Y-114727254D02*
X150748514Y-114798683D01*
X150748514Y-114798683D02*
X150605657Y-114870111D01*
X150605657Y-114870111D02*
X150319942Y-114941540D01*
X150319942Y-114941540D02*
X149962800Y-114941540D01*
X149962800Y-114941540D02*
X149677085Y-114870111D01*
X149677085Y-114870111D02*
X149534228Y-114798683D01*
X149534228Y-114798683D02*
X149462800Y-114727254D01*
X149462800Y-114727254D02*
X149391371Y-114584397D01*
X149391371Y-114584397D02*
X149391371Y-114441540D01*
X149391371Y-114441540D02*
X149462800Y-114298683D01*
X149462800Y-114298683D02*
X149534228Y-114227254D01*
X149534228Y-114227254D02*
X149677085Y-114155825D01*
X149677085Y-114155825D02*
X149962800Y-114084397D01*
X149962800Y-114084397D02*
X150319942Y-114084397D01*
X150319942Y-114084397D02*
X150605657Y-114155825D01*
X150605657Y-114155825D02*
X150748514Y-114227254D01*
X150748514Y-114227254D02*
X150819942Y-114298683D01*
X150819942Y-114298683D02*
X150891371Y-114441540D01*
X150891371Y-115870111D02*
X150891371Y-116012968D01*
X150891371Y-116012968D02*
X150819942Y-116155825D01*
X150819942Y-116155825D02*
X150748514Y-116227254D01*
X150748514Y-116227254D02*
X150605657Y-116298682D01*
X150605657Y-116298682D02*
X150319942Y-116370111D01*
X150319942Y-116370111D02*
X149962800Y-116370111D01*
X149962800Y-116370111D02*
X149677085Y-116298682D01*
X149677085Y-116298682D02*
X149534228Y-116227254D01*
X149534228Y-116227254D02*
X149462800Y-116155825D01*
X149462800Y-116155825D02*
X149391371Y-116012968D01*
X149391371Y-116012968D02*
X149391371Y-115870111D01*
X149391371Y-115870111D02*
X149462800Y-115727254D01*
X149462800Y-115727254D02*
X149534228Y-115655825D01*
X149534228Y-115655825D02*
X149677085Y-115584396D01*
X149677085Y-115584396D02*
X149962800Y-115512968D01*
X149962800Y-115512968D02*
X150319942Y-115512968D01*
X150319942Y-115512968D02*
X150605657Y-115584396D01*
X150605657Y-115584396D02*
X150748514Y-115655825D01*
X150748514Y-115655825D02*
X150819942Y-115727254D01*
X150819942Y-115727254D02*
X150891371Y-115870111D01*
X101128684Y-105753712D02*
X100842969Y-105753712D01*
X100842969Y-105753712D02*
X100700112Y-105825141D01*
X100700112Y-105825141D02*
X100628684Y-105896569D01*
X100628684Y-105896569D02*
X100485826Y-106110855D01*
X100485826Y-106110855D02*
X100414398Y-106396569D01*
X100414398Y-106396569D02*
X100414398Y-106967998D01*
X100414398Y-106967998D02*
X100485826Y-107110855D01*
X100485826Y-107110855D02*
X100557255Y-107182284D01*
X100557255Y-107182284D02*
X100700112Y-107253712D01*
X100700112Y-107253712D02*
X100985826Y-107253712D01*
X100985826Y-107253712D02*
X101128684Y-107182284D01*
X101128684Y-107182284D02*
X101200112Y-107110855D01*
X101200112Y-107110855D02*
X101271541Y-106967998D01*
X101271541Y-106967998D02*
X101271541Y-106610855D01*
X101271541Y-106610855D02*
X101200112Y-106467998D01*
X101200112Y-106467998D02*
X101128684Y-106396569D01*
X101128684Y-106396569D02*
X100985826Y-106325141D01*
X100985826Y-106325141D02*
X100700112Y-106325141D01*
X100700112Y-106325141D02*
X100557255Y-106396569D01*
X100557255Y-106396569D02*
X100485826Y-106467998D01*
X100485826Y-106467998D02*
X100414398Y-106610855D01*
X101842969Y-105896569D02*
X101914397Y-105825141D01*
X101914397Y-105825141D02*
X102057255Y-105753712D01*
X102057255Y-105753712D02*
X102414397Y-105753712D01*
X102414397Y-105753712D02*
X102557255Y-105825141D01*
X102557255Y-105825141D02*
X102628683Y-105896569D01*
X102628683Y-105896569D02*
X102700112Y-106039426D01*
X102700112Y-106039426D02*
X102700112Y-106182284D01*
X102700112Y-106182284D02*
X102628683Y-106396569D01*
X102628683Y-106396569D02*
X101771540Y-107253712D01*
X101771540Y-107253712D02*
X102700112Y-107253712D01*
X103557254Y-106396569D02*
X103414397Y-106325141D01*
X103414397Y-106325141D02*
X103342968Y-106253712D01*
X103342968Y-106253712D02*
X103271540Y-106110855D01*
X103271540Y-106110855D02*
X103271540Y-106039426D01*
X103271540Y-106039426D02*
X103342968Y-105896569D01*
X103342968Y-105896569D02*
X103414397Y-105825141D01*
X103414397Y-105825141D02*
X103557254Y-105753712D01*
X103557254Y-105753712D02*
X103842968Y-105753712D01*
X103842968Y-105753712D02*
X103985826Y-105825141D01*
X103985826Y-105825141D02*
X104057254Y-105896569D01*
X104057254Y-105896569D02*
X104128683Y-106039426D01*
X104128683Y-106039426D02*
X104128683Y-106110855D01*
X104128683Y-106110855D02*
X104057254Y-106253712D01*
X104057254Y-106253712D02*
X103985826Y-106325141D01*
X103985826Y-106325141D02*
X103842968Y-106396569D01*
X103842968Y-106396569D02*
X103557254Y-106396569D01*
X103557254Y-106396569D02*
X103414397Y-106467998D01*
X103414397Y-106467998D02*
X103342968Y-106539426D01*
X103342968Y-106539426D02*
X103271540Y-106682284D01*
X103271540Y-106682284D02*
X103271540Y-106967998D01*
X103271540Y-106967998D02*
X103342968Y-107110855D01*
X103342968Y-107110855D02*
X103414397Y-107182284D01*
X103414397Y-107182284D02*
X103557254Y-107253712D01*
X103557254Y-107253712D02*
X103842968Y-107253712D01*
X103842968Y-107253712D02*
X103985826Y-107182284D01*
X103985826Y-107182284D02*
X104057254Y-107110855D01*
X104057254Y-107110855D02*
X104128683Y-106967998D01*
X104128683Y-106967998D02*
X104128683Y-106682284D01*
X104128683Y-106682284D02*
X104057254Y-106539426D01*
X104057254Y-106539426D02*
X103985826Y-106467998D01*
X103985826Y-106467998D02*
X103842968Y-106396569D01*
X105557254Y-107253712D02*
X104700111Y-107253712D01*
X105128682Y-107253712D02*
X105128682Y-105753712D01*
X105128682Y-105753712D02*
X104985825Y-105967998D01*
X104985825Y-105967998D02*
X104842968Y-106110855D01*
X104842968Y-106110855D02*
X104700111Y-106182284D01*
X106128682Y-105896569D02*
X106200110Y-105825141D01*
X106200110Y-105825141D02*
X106342968Y-105753712D01*
X106342968Y-105753712D02*
X106700110Y-105753712D01*
X106700110Y-105753712D02*
X106842968Y-105825141D01*
X106842968Y-105825141D02*
X106914396Y-105896569D01*
X106914396Y-105896569D02*
X106985825Y-106039426D01*
X106985825Y-106039426D02*
X106985825Y-106182284D01*
X106985825Y-106182284D02*
X106914396Y-106396569D01*
X106914396Y-106396569D02*
X106057253Y-107253712D01*
X106057253Y-107253712D02*
X106985825Y-107253712D01*
X107842967Y-106396569D02*
X107700110Y-106325141D01*
X107700110Y-106325141D02*
X107628681Y-106253712D01*
X107628681Y-106253712D02*
X107557253Y-106110855D01*
X107557253Y-106110855D02*
X107557253Y-106039426D01*
X107557253Y-106039426D02*
X107628681Y-105896569D01*
X107628681Y-105896569D02*
X107700110Y-105825141D01*
X107700110Y-105825141D02*
X107842967Y-105753712D01*
X107842967Y-105753712D02*
X108128681Y-105753712D01*
X108128681Y-105753712D02*
X108271539Y-105825141D01*
X108271539Y-105825141D02*
X108342967Y-105896569D01*
X108342967Y-105896569D02*
X108414396Y-106039426D01*
X108414396Y-106039426D02*
X108414396Y-106110855D01*
X108414396Y-106110855D02*
X108342967Y-106253712D01*
X108342967Y-106253712D02*
X108271539Y-106325141D01*
X108271539Y-106325141D02*
X108128681Y-106396569D01*
X108128681Y-106396569D02*
X107842967Y-106396569D01*
X107842967Y-106396569D02*
X107700110Y-106467998D01*
X107700110Y-106467998D02*
X107628681Y-106539426D01*
X107628681Y-106539426D02*
X107557253Y-106682284D01*
X107557253Y-106682284D02*
X107557253Y-106967998D01*
X107557253Y-106967998D02*
X107628681Y-107110855D01*
X107628681Y-107110855D02*
X107700110Y-107182284D01*
X107700110Y-107182284D02*
X107842967Y-107253712D01*
X107842967Y-107253712D02*
X108128681Y-107253712D01*
X108128681Y-107253712D02*
X108271539Y-107182284D01*
X108271539Y-107182284D02*
X108342967Y-107110855D01*
X108342967Y-107110855D02*
X108414396Y-106967998D01*
X108414396Y-106967998D02*
X108414396Y-106682284D01*
X108414396Y-106682284D02*
X108342967Y-106539426D01*
X108342967Y-106539426D02*
X108271539Y-106467998D01*
X108271539Y-106467998D02*
X108128681Y-106396569D01*
X110628681Y-107825141D02*
X110557252Y-107753712D01*
X110557252Y-107753712D02*
X110414395Y-107539426D01*
X110414395Y-107539426D02*
X110342967Y-107396569D01*
X110342967Y-107396569D02*
X110271538Y-107182284D01*
X110271538Y-107182284D02*
X110200109Y-106825141D01*
X110200109Y-106825141D02*
X110200109Y-106539426D01*
X110200109Y-106539426D02*
X110271538Y-106182284D01*
X110271538Y-106182284D02*
X110342967Y-105967998D01*
X110342967Y-105967998D02*
X110414395Y-105825141D01*
X110414395Y-105825141D02*
X110557252Y-105610855D01*
X110557252Y-105610855D02*
X110628681Y-105539426D01*
X111985824Y-107253712D02*
X111128681Y-107253712D01*
X111557252Y-107253712D02*
X111557252Y-105753712D01*
X111557252Y-105753712D02*
X111414395Y-105967998D01*
X111414395Y-105967998D02*
X111271538Y-106110855D01*
X111271538Y-106110855D02*
X111128681Y-106182284D01*
X112557252Y-105896569D02*
X112628680Y-105825141D01*
X112628680Y-105825141D02*
X112771538Y-105753712D01*
X112771538Y-105753712D02*
X113128680Y-105753712D01*
X113128680Y-105753712D02*
X113271538Y-105825141D01*
X113271538Y-105825141D02*
X113342966Y-105896569D01*
X113342966Y-105896569D02*
X113414395Y-106039426D01*
X113414395Y-106039426D02*
X113414395Y-106182284D01*
X113414395Y-106182284D02*
X113342966Y-106396569D01*
X113342966Y-106396569D02*
X112485823Y-107253712D01*
X112485823Y-107253712D02*
X113414395Y-107253712D01*
X114271537Y-106396569D02*
X114128680Y-106325141D01*
X114128680Y-106325141D02*
X114057251Y-106253712D01*
X114057251Y-106253712D02*
X113985823Y-106110855D01*
X113985823Y-106110855D02*
X113985823Y-106039426D01*
X113985823Y-106039426D02*
X114057251Y-105896569D01*
X114057251Y-105896569D02*
X114128680Y-105825141D01*
X114128680Y-105825141D02*
X114271537Y-105753712D01*
X114271537Y-105753712D02*
X114557251Y-105753712D01*
X114557251Y-105753712D02*
X114700109Y-105825141D01*
X114700109Y-105825141D02*
X114771537Y-105896569D01*
X114771537Y-105896569D02*
X114842966Y-106039426D01*
X114842966Y-106039426D02*
X114842966Y-106110855D01*
X114842966Y-106110855D02*
X114771537Y-106253712D01*
X114771537Y-106253712D02*
X114700109Y-106325141D01*
X114700109Y-106325141D02*
X114557251Y-106396569D01*
X114557251Y-106396569D02*
X114271537Y-106396569D01*
X114271537Y-106396569D02*
X114128680Y-106467998D01*
X114128680Y-106467998D02*
X114057251Y-106539426D01*
X114057251Y-106539426D02*
X113985823Y-106682284D01*
X113985823Y-106682284D02*
X113985823Y-106967998D01*
X113985823Y-106967998D02*
X114057251Y-107110855D01*
X114057251Y-107110855D02*
X114128680Y-107182284D01*
X114128680Y-107182284D02*
X114271537Y-107253712D01*
X114271537Y-107253712D02*
X114557251Y-107253712D01*
X114557251Y-107253712D02*
X114700109Y-107182284D01*
X114700109Y-107182284D02*
X114771537Y-107110855D01*
X114771537Y-107110855D02*
X114842966Y-106967998D01*
X114842966Y-106967998D02*
X114842966Y-106682284D01*
X114842966Y-106682284D02*
X114771537Y-106539426D01*
X114771537Y-106539426D02*
X114700109Y-106467998D01*
X114700109Y-106467998D02*
X114557251Y-106396569D01*
X115485822Y-107253712D02*
X115485822Y-105753712D01*
X115628680Y-106682284D02*
X116057251Y-107253712D01*
X116057251Y-106253712D02*
X115485822Y-106825141D01*
X117200108Y-106467998D02*
X117414394Y-106539426D01*
X117414394Y-106539426D02*
X117485823Y-106610855D01*
X117485823Y-106610855D02*
X117557251Y-106753712D01*
X117557251Y-106753712D02*
X117557251Y-106967998D01*
X117557251Y-106967998D02*
X117485823Y-107110855D01*
X117485823Y-107110855D02*
X117414394Y-107182284D01*
X117414394Y-107182284D02*
X117271537Y-107253712D01*
X117271537Y-107253712D02*
X116700108Y-107253712D01*
X116700108Y-107253712D02*
X116700108Y-105753712D01*
X116700108Y-105753712D02*
X117200108Y-105753712D01*
X117200108Y-105753712D02*
X117342966Y-105825141D01*
X117342966Y-105825141D02*
X117414394Y-105896569D01*
X117414394Y-105896569D02*
X117485823Y-106039426D01*
X117485823Y-106039426D02*
X117485823Y-106182284D01*
X117485823Y-106182284D02*
X117414394Y-106325141D01*
X117414394Y-106325141D02*
X117342966Y-106396569D01*
X117342966Y-106396569D02*
X117200108Y-106467998D01*
X117200108Y-106467998D02*
X116700108Y-106467998D01*
X118057251Y-107825141D02*
X118128680Y-107753712D01*
X118128680Y-107753712D02*
X118271537Y-107539426D01*
X118271537Y-107539426D02*
X118342966Y-107396569D01*
X118342966Y-107396569D02*
X118414394Y-107182284D01*
X118414394Y-107182284D02*
X118485823Y-106825141D01*
X118485823Y-106825141D02*
X118485823Y-106539426D01*
X118485823Y-106539426D02*
X118414394Y-106182284D01*
X118414394Y-106182284D02*
X118342966Y-105967998D01*
X118342966Y-105967998D02*
X118271537Y-105825141D01*
X118271537Y-105825141D02*
X118128680Y-105610855D01*
X118128680Y-105610855D02*
X118057251Y-105539426D01*
X100414398Y-109597200D02*
X100628684Y-109668628D01*
X100628684Y-109668628D02*
X100985826Y-109668628D01*
X100985826Y-109668628D02*
X101128684Y-109597200D01*
X101128684Y-109597200D02*
X101200112Y-109525771D01*
X101200112Y-109525771D02*
X101271541Y-109382914D01*
X101271541Y-109382914D02*
X101271541Y-109240057D01*
X101271541Y-109240057D02*
X101200112Y-109097200D01*
X101200112Y-109097200D02*
X101128684Y-109025771D01*
X101128684Y-109025771D02*
X100985826Y-108954342D01*
X100985826Y-108954342D02*
X100700112Y-108882914D01*
X100700112Y-108882914D02*
X100557255Y-108811485D01*
X100557255Y-108811485D02*
X100485826Y-108740057D01*
X100485826Y-108740057D02*
X100414398Y-108597200D01*
X100414398Y-108597200D02*
X100414398Y-108454342D01*
X100414398Y-108454342D02*
X100485826Y-108311485D01*
X100485826Y-108311485D02*
X100557255Y-108240057D01*
X100557255Y-108240057D02*
X100700112Y-108168628D01*
X100700112Y-108168628D02*
X101057255Y-108168628D01*
X101057255Y-108168628D02*
X101271541Y-108240057D01*
X102771540Y-109668628D02*
X102271540Y-108954342D01*
X101914397Y-109668628D02*
X101914397Y-108168628D01*
X101914397Y-108168628D02*
X102485826Y-108168628D01*
X102485826Y-108168628D02*
X102628683Y-108240057D01*
X102628683Y-108240057D02*
X102700112Y-108311485D01*
X102700112Y-108311485D02*
X102771540Y-108454342D01*
X102771540Y-108454342D02*
X102771540Y-108668628D01*
X102771540Y-108668628D02*
X102700112Y-108811485D01*
X102700112Y-108811485D02*
X102628683Y-108882914D01*
X102628683Y-108882914D02*
X102485826Y-108954342D01*
X102485826Y-108954342D02*
X101914397Y-108954342D01*
X103342969Y-109240057D02*
X104057255Y-109240057D01*
X103200112Y-109668628D02*
X103700112Y-108168628D01*
X103700112Y-108168628D02*
X104200112Y-109668628D01*
X104700111Y-109668628D02*
X104700111Y-108168628D01*
X104700111Y-108168628D02*
X105200111Y-109240057D01*
X105200111Y-109240057D02*
X105700111Y-108168628D01*
X105700111Y-108168628D02*
X105700111Y-109668628D01*
D10*
X106572419Y-66972306D02*
X106572419Y-67543734D01*
X106572419Y-67258020D02*
X105572419Y-67258020D01*
X105572419Y-67258020D02*
X105715276Y-67353258D01*
X105715276Y-67353258D02*
X105810514Y-67448496D01*
X105810514Y-67448496D02*
X105858133Y-67543734D01*
X106572419Y-66543734D02*
X105572419Y-66543734D01*
X106191466Y-66448496D02*
X106572419Y-66162782D01*
X105905752Y-66162782D02*
X106286704Y-66543734D01*
D11*
X172291371Y-107212969D02*
X172291371Y-108212969D01*
X172291371Y-108212969D02*
X170791371Y-107570112D01*
X171791371Y-109427255D02*
X170791371Y-109427255D01*
X172362800Y-109070112D02*
X171291371Y-108712969D01*
X171291371Y-108712969D02*
X171291371Y-109641540D01*
X170791371Y-110212968D02*
X172291371Y-110212968D01*
X171577085Y-110212968D02*
X171577085Y-111070111D01*
X170791371Y-111070111D02*
X172291371Y-111070111D01*
X170934228Y-112641540D02*
X170862800Y-112570112D01*
X170862800Y-112570112D02*
X170791371Y-112355826D01*
X170791371Y-112355826D02*
X170791371Y-112212969D01*
X170791371Y-112212969D02*
X170862800Y-111998683D01*
X170862800Y-111998683D02*
X171005657Y-111855826D01*
X171005657Y-111855826D02*
X171148514Y-111784397D01*
X171148514Y-111784397D02*
X171434228Y-111712969D01*
X171434228Y-111712969D02*
X171648514Y-111712969D01*
X171648514Y-111712969D02*
X171934228Y-111784397D01*
X171934228Y-111784397D02*
X172077085Y-111855826D01*
X172077085Y-111855826D02*
X172219942Y-111998683D01*
X172219942Y-111998683D02*
X172291371Y-112212969D01*
X172291371Y-112212969D02*
X172291371Y-112355826D01*
X172291371Y-112355826D02*
X172219942Y-112570112D01*
X172219942Y-112570112D02*
X172148514Y-112641540D01*
X171791371Y-113927255D02*
X170791371Y-113927255D01*
X172362800Y-113570112D02*
X171291371Y-113212969D01*
X171291371Y-113212969D02*
X171291371Y-114141540D01*
X172291371Y-114998683D02*
X172291371Y-115141540D01*
X172291371Y-115141540D02*
X172219942Y-115284397D01*
X172219942Y-115284397D02*
X172148514Y-115355826D01*
X172148514Y-115355826D02*
X172005657Y-115427254D01*
X172005657Y-115427254D02*
X171719942Y-115498683D01*
X171719942Y-115498683D02*
X171362800Y-115498683D01*
X171362800Y-115498683D02*
X171077085Y-115427254D01*
X171077085Y-115427254D02*
X170934228Y-115355826D01*
X170934228Y-115355826D02*
X170862800Y-115284397D01*
X170862800Y-115284397D02*
X170791371Y-115141540D01*
X170791371Y-115141540D02*
X170791371Y-114998683D01*
X170791371Y-114998683D02*
X170862800Y-114855826D01*
X170862800Y-114855826D02*
X170934228Y-114784397D01*
X170934228Y-114784397D02*
X171077085Y-114712968D01*
X171077085Y-114712968D02*
X171362800Y-114641540D01*
X171362800Y-114641540D02*
X171719942Y-114641540D01*
X171719942Y-114641540D02*
X172005657Y-114712968D01*
X172005657Y-114712968D02*
X172148514Y-114784397D01*
X172148514Y-114784397D02*
X172219942Y-114855826D01*
X172219942Y-114855826D02*
X172291371Y-114998683D01*
X172291371Y-116784397D02*
X172291371Y-116498682D01*
X172291371Y-116498682D02*
X172219942Y-116355825D01*
X172219942Y-116355825D02*
X172148514Y-116284397D01*
X172148514Y-116284397D02*
X171934228Y-116141539D01*
X171934228Y-116141539D02*
X171648514Y-116070111D01*
X171648514Y-116070111D02*
X171077085Y-116070111D01*
X171077085Y-116070111D02*
X170934228Y-116141539D01*
X170934228Y-116141539D02*
X170862800Y-116212968D01*
X170862800Y-116212968D02*
X170791371Y-116355825D01*
X170791371Y-116355825D02*
X170791371Y-116641539D01*
X170791371Y-116641539D02*
X170862800Y-116784397D01*
X170862800Y-116784397D02*
X170934228Y-116855825D01*
X170934228Y-116855825D02*
X171077085Y-116927254D01*
X171077085Y-116927254D02*
X171434228Y-116927254D01*
X171434228Y-116927254D02*
X171577085Y-116855825D01*
X171577085Y-116855825D02*
X171648514Y-116784397D01*
X171648514Y-116784397D02*
X171719942Y-116641539D01*
X171719942Y-116641539D02*
X171719942Y-116355825D01*
X171719942Y-116355825D02*
X171648514Y-116212968D01*
X171648514Y-116212968D02*
X171577085Y-116141539D01*
X171577085Y-116141539D02*
X171434228Y-116070111D01*
X172291371Y-117855825D02*
X172291371Y-117998682D01*
X172291371Y-117998682D02*
X172219942Y-118141539D01*
X172219942Y-118141539D02*
X172148514Y-118212968D01*
X172148514Y-118212968D02*
X172005657Y-118284396D01*
X172005657Y-118284396D02*
X171719942Y-118355825D01*
X171719942Y-118355825D02*
X171362800Y-118355825D01*
X171362800Y-118355825D02*
X171077085Y-118284396D01*
X171077085Y-118284396D02*
X170934228Y-118212968D01*
X170934228Y-118212968D02*
X170862800Y-118141539D01*
X170862800Y-118141539D02*
X170791371Y-117998682D01*
X170791371Y-117998682D02*
X170791371Y-117855825D01*
X170791371Y-117855825D02*
X170862800Y-117712968D01*
X170862800Y-117712968D02*
X170934228Y-117641539D01*
X170934228Y-117641539D02*
X171077085Y-117570110D01*
X171077085Y-117570110D02*
X171362800Y-117498682D01*
X171362800Y-117498682D02*
X171719942Y-117498682D01*
X171719942Y-117498682D02*
X172005657Y-117570110D01*
X172005657Y-117570110D02*
X172148514Y-117641539D01*
X172148514Y-117641539D02*
X172219942Y-117712968D01*
X172219942Y-117712968D02*
X172291371Y-117855825D01*
D10*
X151917693Y-89670038D02*
X151822455Y-89622419D01*
X151822455Y-89622419D02*
X151679598Y-89622419D01*
X151679598Y-89622419D02*
X151536741Y-89670038D01*
X151536741Y-89670038D02*
X151441503Y-89765276D01*
X151441503Y-89765276D02*
X151393884Y-89860514D01*
X151393884Y-89860514D02*
X151346265Y-90050990D01*
X151346265Y-90050990D02*
X151346265Y-90193847D01*
X151346265Y-90193847D02*
X151393884Y-90384323D01*
X151393884Y-90384323D02*
X151441503Y-90479561D01*
X151441503Y-90479561D02*
X151536741Y-90574800D01*
X151536741Y-90574800D02*
X151679598Y-90622419D01*
X151679598Y-90622419D02*
X151774836Y-90622419D01*
X151774836Y-90622419D02*
X151917693Y-90574800D01*
X151917693Y-90574800D02*
X151965312Y-90527180D01*
X151965312Y-90527180D02*
X151965312Y-90193847D01*
X151965312Y-90193847D02*
X151774836Y-90193847D01*
X152393884Y-90622419D02*
X152393884Y-89622419D01*
X152393884Y-89622419D02*
X152965312Y-90622419D01*
X152965312Y-90622419D02*
X152965312Y-89622419D01*
X153441503Y-90622419D02*
X153441503Y-89622419D01*
X153441503Y-89622419D02*
X153679598Y-89622419D01*
X153679598Y-89622419D02*
X153822455Y-89670038D01*
X153822455Y-89670038D02*
X153917693Y-89765276D01*
X153917693Y-89765276D02*
X153965312Y-89860514D01*
X153965312Y-89860514D02*
X154012931Y-90050990D01*
X154012931Y-90050990D02*
X154012931Y-90193847D01*
X154012931Y-90193847D02*
X153965312Y-90384323D01*
X153965312Y-90384323D02*
X153917693Y-90479561D01*
X153917693Y-90479561D02*
X153822455Y-90574800D01*
X153822455Y-90574800D02*
X153679598Y-90622419D01*
X153679598Y-90622419D02*
X153441503Y-90622419D01*
D11*
X123955826Y-68408628D02*
X123955826Y-66908628D01*
X123955826Y-66908628D02*
X124455826Y-67980057D01*
X124455826Y-67980057D02*
X124955826Y-66908628D01*
X124955826Y-66908628D02*
X124955826Y-68408628D01*
X126527255Y-68265771D02*
X126455827Y-68337200D01*
X126455827Y-68337200D02*
X126241541Y-68408628D01*
X126241541Y-68408628D02*
X126098684Y-68408628D01*
X126098684Y-68408628D02*
X125884398Y-68337200D01*
X125884398Y-68337200D02*
X125741541Y-68194342D01*
X125741541Y-68194342D02*
X125670112Y-68051485D01*
X125670112Y-68051485D02*
X125598684Y-67765771D01*
X125598684Y-67765771D02*
X125598684Y-67551485D01*
X125598684Y-67551485D02*
X125670112Y-67265771D01*
X125670112Y-67265771D02*
X125741541Y-67122914D01*
X125741541Y-67122914D02*
X125884398Y-66980057D01*
X125884398Y-66980057D02*
X126098684Y-66908628D01*
X126098684Y-66908628D02*
X126241541Y-66908628D01*
X126241541Y-66908628D02*
X126455827Y-66980057D01*
X126455827Y-66980057D02*
X126527255Y-67051485D01*
X127812970Y-66908628D02*
X127527255Y-66908628D01*
X127527255Y-66908628D02*
X127384398Y-66980057D01*
X127384398Y-66980057D02*
X127312970Y-67051485D01*
X127312970Y-67051485D02*
X127170112Y-67265771D01*
X127170112Y-67265771D02*
X127098684Y-67551485D01*
X127098684Y-67551485D02*
X127098684Y-68122914D01*
X127098684Y-68122914D02*
X127170112Y-68265771D01*
X127170112Y-68265771D02*
X127241541Y-68337200D01*
X127241541Y-68337200D02*
X127384398Y-68408628D01*
X127384398Y-68408628D02*
X127670112Y-68408628D01*
X127670112Y-68408628D02*
X127812970Y-68337200D01*
X127812970Y-68337200D02*
X127884398Y-68265771D01*
X127884398Y-68265771D02*
X127955827Y-68122914D01*
X127955827Y-68122914D02*
X127955827Y-67765771D01*
X127955827Y-67765771D02*
X127884398Y-67622914D01*
X127884398Y-67622914D02*
X127812970Y-67551485D01*
X127812970Y-67551485D02*
X127670112Y-67480057D01*
X127670112Y-67480057D02*
X127384398Y-67480057D01*
X127384398Y-67480057D02*
X127241541Y-67551485D01*
X127241541Y-67551485D02*
X127170112Y-67622914D01*
X127170112Y-67622914D02*
X127098684Y-67765771D01*
X128812969Y-67551485D02*
X128670112Y-67480057D01*
X128670112Y-67480057D02*
X128598683Y-67408628D01*
X128598683Y-67408628D02*
X128527255Y-67265771D01*
X128527255Y-67265771D02*
X128527255Y-67194342D01*
X128527255Y-67194342D02*
X128598683Y-67051485D01*
X128598683Y-67051485D02*
X128670112Y-66980057D01*
X128670112Y-66980057D02*
X128812969Y-66908628D01*
X128812969Y-66908628D02*
X129098683Y-66908628D01*
X129098683Y-66908628D02*
X129241541Y-66980057D01*
X129241541Y-66980057D02*
X129312969Y-67051485D01*
X129312969Y-67051485D02*
X129384398Y-67194342D01*
X129384398Y-67194342D02*
X129384398Y-67265771D01*
X129384398Y-67265771D02*
X129312969Y-67408628D01*
X129312969Y-67408628D02*
X129241541Y-67480057D01*
X129241541Y-67480057D02*
X129098683Y-67551485D01*
X129098683Y-67551485D02*
X128812969Y-67551485D01*
X128812969Y-67551485D02*
X128670112Y-67622914D01*
X128670112Y-67622914D02*
X128598683Y-67694342D01*
X128598683Y-67694342D02*
X128527255Y-67837200D01*
X128527255Y-67837200D02*
X128527255Y-68122914D01*
X128527255Y-68122914D02*
X128598683Y-68265771D01*
X128598683Y-68265771D02*
X128670112Y-68337200D01*
X128670112Y-68337200D02*
X128812969Y-68408628D01*
X128812969Y-68408628D02*
X129098683Y-68408628D01*
X129098683Y-68408628D02*
X129241541Y-68337200D01*
X129241541Y-68337200D02*
X129312969Y-68265771D01*
X129312969Y-68265771D02*
X129384398Y-68122914D01*
X129384398Y-68122914D02*
X129384398Y-67837200D01*
X129384398Y-67837200D02*
X129312969Y-67694342D01*
X129312969Y-67694342D02*
X129241541Y-67622914D01*
X129241541Y-67622914D02*
X129098683Y-67551485D01*
X130312969Y-66908628D02*
X130455826Y-66908628D01*
X130455826Y-66908628D02*
X130598683Y-66980057D01*
X130598683Y-66980057D02*
X130670112Y-67051485D01*
X130670112Y-67051485D02*
X130741540Y-67194342D01*
X130741540Y-67194342D02*
X130812969Y-67480057D01*
X130812969Y-67480057D02*
X130812969Y-67837200D01*
X130812969Y-67837200D02*
X130741540Y-68122914D01*
X130741540Y-68122914D02*
X130670112Y-68265771D01*
X130670112Y-68265771D02*
X130598683Y-68337200D01*
X130598683Y-68337200D02*
X130455826Y-68408628D01*
X130455826Y-68408628D02*
X130312969Y-68408628D01*
X130312969Y-68408628D02*
X130170112Y-68337200D01*
X130170112Y-68337200D02*
X130098683Y-68265771D01*
X130098683Y-68265771D02*
X130027254Y-68122914D01*
X130027254Y-68122914D02*
X129955826Y-67837200D01*
X129955826Y-67837200D02*
X129955826Y-67480057D01*
X129955826Y-67480057D02*
X130027254Y-67194342D01*
X130027254Y-67194342D02*
X130098683Y-67051485D01*
X130098683Y-67051485D02*
X130170112Y-66980057D01*
X130170112Y-66980057D02*
X130312969Y-66908628D01*
X131384397Y-67051485D02*
X131455825Y-66980057D01*
X131455825Y-66980057D02*
X131598683Y-66908628D01*
X131598683Y-66908628D02*
X131955825Y-66908628D01*
X131955825Y-66908628D02*
X132098683Y-66980057D01*
X132098683Y-66980057D02*
X132170111Y-67051485D01*
X132170111Y-67051485D02*
X132241540Y-67194342D01*
X132241540Y-67194342D02*
X132241540Y-67337200D01*
X132241540Y-67337200D02*
X132170111Y-67551485D01*
X132170111Y-67551485D02*
X131312968Y-68408628D01*
X131312968Y-68408628D02*
X132241540Y-68408628D01*
X134027253Y-68408628D02*
X134027253Y-66908628D01*
X134027253Y-66908628D02*
X134527253Y-67980057D01*
X134527253Y-67980057D02*
X135027253Y-66908628D01*
X135027253Y-66908628D02*
X135027253Y-68408628D01*
X135741539Y-68408628D02*
X135741539Y-66908628D01*
X135741539Y-66908628D02*
X136312968Y-66908628D01*
X136312968Y-66908628D02*
X136455825Y-66980057D01*
X136455825Y-66980057D02*
X136527254Y-67051485D01*
X136527254Y-67051485D02*
X136598682Y-67194342D01*
X136598682Y-67194342D02*
X136598682Y-67408628D01*
X136598682Y-67408628D02*
X136527254Y-67551485D01*
X136527254Y-67551485D02*
X136455825Y-67622914D01*
X136455825Y-67622914D02*
X136312968Y-67694342D01*
X136312968Y-67694342D02*
X135741539Y-67694342D01*
X137241539Y-66908628D02*
X137241539Y-68122914D01*
X137241539Y-68122914D02*
X137312968Y-68265771D01*
X137312968Y-68265771D02*
X137384397Y-68337200D01*
X137384397Y-68337200D02*
X137527254Y-68408628D01*
X137527254Y-68408628D02*
X137812968Y-68408628D01*
X137812968Y-68408628D02*
X137955825Y-68337200D01*
X137955825Y-68337200D02*
X138027254Y-68265771D01*
X138027254Y-68265771D02*
X138098682Y-68122914D01*
X138098682Y-68122914D02*
X138098682Y-66908628D01*
X116444398Y-86006569D02*
X116515826Y-85935141D01*
X116515826Y-85935141D02*
X116658684Y-85863712D01*
X116658684Y-85863712D02*
X117015826Y-85863712D01*
X117015826Y-85863712D02*
X117158684Y-85935141D01*
X117158684Y-85935141D02*
X117230112Y-86006569D01*
X117230112Y-86006569D02*
X117301541Y-86149426D01*
X117301541Y-86149426D02*
X117301541Y-86292284D01*
X117301541Y-86292284D02*
X117230112Y-86506569D01*
X117230112Y-86506569D02*
X116372969Y-87363712D01*
X116372969Y-87363712D02*
X117301541Y-87363712D01*
X117801540Y-85863712D02*
X118801540Y-85863712D01*
X118801540Y-85863712D02*
X118158683Y-87363712D01*
X120230111Y-87220855D02*
X120158683Y-87292284D01*
X120158683Y-87292284D02*
X119944397Y-87363712D01*
X119944397Y-87363712D02*
X119801540Y-87363712D01*
X119801540Y-87363712D02*
X119587254Y-87292284D01*
X119587254Y-87292284D02*
X119444397Y-87149426D01*
X119444397Y-87149426D02*
X119372968Y-87006569D01*
X119372968Y-87006569D02*
X119301540Y-86720855D01*
X119301540Y-86720855D02*
X119301540Y-86506569D01*
X119301540Y-86506569D02*
X119372968Y-86220855D01*
X119372968Y-86220855D02*
X119444397Y-86077998D01*
X119444397Y-86077998D02*
X119587254Y-85935141D01*
X119587254Y-85935141D02*
X119801540Y-85863712D01*
X119801540Y-85863712D02*
X119944397Y-85863712D01*
X119944397Y-85863712D02*
X120158683Y-85935141D01*
X120158683Y-85935141D02*
X120230111Y-86006569D01*
X120801540Y-86006569D02*
X120872968Y-85935141D01*
X120872968Y-85935141D02*
X121015826Y-85863712D01*
X121015826Y-85863712D02*
X121372968Y-85863712D01*
X121372968Y-85863712D02*
X121515826Y-85935141D01*
X121515826Y-85935141D02*
X121587254Y-86006569D01*
X121587254Y-86006569D02*
X121658683Y-86149426D01*
X121658683Y-86149426D02*
X121658683Y-86292284D01*
X121658683Y-86292284D02*
X121587254Y-86506569D01*
X121587254Y-86506569D02*
X120730111Y-87363712D01*
X120730111Y-87363712D02*
X121658683Y-87363712D01*
X123015825Y-85863712D02*
X122301539Y-85863712D01*
X122301539Y-85863712D02*
X122230111Y-86577998D01*
X122230111Y-86577998D02*
X122301539Y-86506569D01*
X122301539Y-86506569D02*
X122444397Y-86435141D01*
X122444397Y-86435141D02*
X122801539Y-86435141D01*
X122801539Y-86435141D02*
X122944397Y-86506569D01*
X122944397Y-86506569D02*
X123015825Y-86577998D01*
X123015825Y-86577998D02*
X123087254Y-86720855D01*
X123087254Y-86720855D02*
X123087254Y-87077998D01*
X123087254Y-87077998D02*
X123015825Y-87220855D01*
X123015825Y-87220855D02*
X122944397Y-87292284D01*
X122944397Y-87292284D02*
X122801539Y-87363712D01*
X122801539Y-87363712D02*
X122444397Y-87363712D01*
X122444397Y-87363712D02*
X122301539Y-87292284D01*
X122301539Y-87292284D02*
X122230111Y-87220855D01*
X124372968Y-85863712D02*
X124087253Y-85863712D01*
X124087253Y-85863712D02*
X123944396Y-85935141D01*
X123944396Y-85935141D02*
X123872968Y-86006569D01*
X123872968Y-86006569D02*
X123730110Y-86220855D01*
X123730110Y-86220855D02*
X123658682Y-86506569D01*
X123658682Y-86506569D02*
X123658682Y-87077998D01*
X123658682Y-87077998D02*
X123730110Y-87220855D01*
X123730110Y-87220855D02*
X123801539Y-87292284D01*
X123801539Y-87292284D02*
X123944396Y-87363712D01*
X123944396Y-87363712D02*
X124230110Y-87363712D01*
X124230110Y-87363712D02*
X124372968Y-87292284D01*
X124372968Y-87292284D02*
X124444396Y-87220855D01*
X124444396Y-87220855D02*
X124515825Y-87077998D01*
X124515825Y-87077998D02*
X124515825Y-86720855D01*
X124515825Y-86720855D02*
X124444396Y-86577998D01*
X124444396Y-86577998D02*
X124372968Y-86506569D01*
X124372968Y-86506569D02*
X124230110Y-86435141D01*
X124230110Y-86435141D02*
X123944396Y-86435141D01*
X123944396Y-86435141D02*
X123801539Y-86506569D01*
X123801539Y-86506569D02*
X123730110Y-86577998D01*
X123730110Y-86577998D02*
X123658682Y-86720855D01*
X125587253Y-87935141D02*
X125515824Y-87863712D01*
X125515824Y-87863712D02*
X125372967Y-87649426D01*
X125372967Y-87649426D02*
X125301539Y-87506569D01*
X125301539Y-87506569D02*
X125230110Y-87292284D01*
X125230110Y-87292284D02*
X125158681Y-86935141D01*
X125158681Y-86935141D02*
X125158681Y-86649426D01*
X125158681Y-86649426D02*
X125230110Y-86292284D01*
X125230110Y-86292284D02*
X125301539Y-86077998D01*
X125301539Y-86077998D02*
X125372967Y-85935141D01*
X125372967Y-85935141D02*
X125515824Y-85720855D01*
X125515824Y-85720855D02*
X125587253Y-85649426D01*
X126015824Y-85863712D02*
X126372967Y-87363712D01*
X126372967Y-87363712D02*
X126658681Y-86292284D01*
X126658681Y-86292284D02*
X126944396Y-87363712D01*
X126944396Y-87363712D02*
X127301539Y-85863712D01*
X127801539Y-86006569D02*
X127872967Y-85935141D01*
X127872967Y-85935141D02*
X128015825Y-85863712D01*
X128015825Y-85863712D02*
X128372967Y-85863712D01*
X128372967Y-85863712D02*
X128515825Y-85935141D01*
X128515825Y-85935141D02*
X128587253Y-86006569D01*
X128587253Y-86006569D02*
X128658682Y-86149426D01*
X128658682Y-86149426D02*
X128658682Y-86292284D01*
X128658682Y-86292284D02*
X128587253Y-86506569D01*
X128587253Y-86506569D02*
X127730110Y-87363712D01*
X127730110Y-87363712D02*
X128658682Y-87363712D01*
X129158681Y-85863712D02*
X130158681Y-85863712D01*
X130158681Y-85863712D02*
X129515824Y-87363712D01*
X131587252Y-87220855D02*
X131515824Y-87292284D01*
X131515824Y-87292284D02*
X131301538Y-87363712D01*
X131301538Y-87363712D02*
X131158681Y-87363712D01*
X131158681Y-87363712D02*
X130944395Y-87292284D01*
X130944395Y-87292284D02*
X130801538Y-87149426D01*
X130801538Y-87149426D02*
X130730109Y-87006569D01*
X130730109Y-87006569D02*
X130658681Y-86720855D01*
X130658681Y-86720855D02*
X130658681Y-86506569D01*
X130658681Y-86506569D02*
X130730109Y-86220855D01*
X130730109Y-86220855D02*
X130801538Y-86077998D01*
X130801538Y-86077998D02*
X130944395Y-85935141D01*
X130944395Y-85935141D02*
X131158681Y-85863712D01*
X131158681Y-85863712D02*
X131301538Y-85863712D01*
X131301538Y-85863712D02*
X131515824Y-85935141D01*
X131515824Y-85935141D02*
X131587252Y-86006569D01*
X132944395Y-85863712D02*
X132230109Y-85863712D01*
X132230109Y-85863712D02*
X132158681Y-86577998D01*
X132158681Y-86577998D02*
X132230109Y-86506569D01*
X132230109Y-86506569D02*
X132372967Y-86435141D01*
X132372967Y-86435141D02*
X132730109Y-86435141D01*
X132730109Y-86435141D02*
X132872967Y-86506569D01*
X132872967Y-86506569D02*
X132944395Y-86577998D01*
X132944395Y-86577998D02*
X133015824Y-86720855D01*
X133015824Y-86720855D02*
X133015824Y-87077998D01*
X133015824Y-87077998D02*
X132944395Y-87220855D01*
X132944395Y-87220855D02*
X132872967Y-87292284D01*
X132872967Y-87292284D02*
X132730109Y-87363712D01*
X132730109Y-87363712D02*
X132372967Y-87363712D01*
X132372967Y-87363712D02*
X132230109Y-87292284D01*
X132230109Y-87292284D02*
X132158681Y-87220855D01*
X134444395Y-87363712D02*
X133587252Y-87363712D01*
X134015823Y-87363712D02*
X134015823Y-85863712D01*
X134015823Y-85863712D02*
X133872966Y-86077998D01*
X133872966Y-86077998D02*
X133730109Y-86220855D01*
X133730109Y-86220855D02*
X133587252Y-86292284D01*
X135015823Y-86006569D02*
X135087251Y-85935141D01*
X135087251Y-85935141D02*
X135230109Y-85863712D01*
X135230109Y-85863712D02*
X135587251Y-85863712D01*
X135587251Y-85863712D02*
X135730109Y-85935141D01*
X135730109Y-85935141D02*
X135801537Y-86006569D01*
X135801537Y-86006569D02*
X135872966Y-86149426D01*
X135872966Y-86149426D02*
X135872966Y-86292284D01*
X135872966Y-86292284D02*
X135801537Y-86506569D01*
X135801537Y-86506569D02*
X134944394Y-87363712D01*
X134944394Y-87363712D02*
X135872966Y-87363712D01*
X136372965Y-87935141D02*
X136444394Y-87863712D01*
X136444394Y-87863712D02*
X136587251Y-87649426D01*
X136587251Y-87649426D02*
X136658680Y-87506569D01*
X136658680Y-87506569D02*
X136730108Y-87292284D01*
X136730108Y-87292284D02*
X136801537Y-86935141D01*
X136801537Y-86935141D02*
X136801537Y-86649426D01*
X136801537Y-86649426D02*
X136730108Y-86292284D01*
X136730108Y-86292284D02*
X136658680Y-86077998D01*
X136658680Y-86077998D02*
X136587251Y-85935141D01*
X136587251Y-85935141D02*
X136444394Y-85720855D01*
X136444394Y-85720855D02*
X136372965Y-85649426D01*
X116515826Y-88992914D02*
X117015826Y-88992914D01*
X117230112Y-89778628D02*
X116515826Y-89778628D01*
X116515826Y-89778628D02*
X116515826Y-88278628D01*
X116515826Y-88278628D02*
X117230112Y-88278628D01*
X117872969Y-89778628D02*
X117872969Y-88278628D01*
X117872969Y-88278628D02*
X118444398Y-88278628D01*
X118444398Y-88278628D02*
X118587255Y-88350057D01*
X118587255Y-88350057D02*
X118658684Y-88421485D01*
X118658684Y-88421485D02*
X118730112Y-88564342D01*
X118730112Y-88564342D02*
X118730112Y-88778628D01*
X118730112Y-88778628D02*
X118658684Y-88921485D01*
X118658684Y-88921485D02*
X118587255Y-88992914D01*
X118587255Y-88992914D02*
X118444398Y-89064342D01*
X118444398Y-89064342D02*
X117872969Y-89064342D01*
X120230112Y-89778628D02*
X119730112Y-89064342D01*
X119372969Y-89778628D02*
X119372969Y-88278628D01*
X119372969Y-88278628D02*
X119944398Y-88278628D01*
X119944398Y-88278628D02*
X120087255Y-88350057D01*
X120087255Y-88350057D02*
X120158684Y-88421485D01*
X120158684Y-88421485D02*
X120230112Y-88564342D01*
X120230112Y-88564342D02*
X120230112Y-88778628D01*
X120230112Y-88778628D02*
X120158684Y-88921485D01*
X120158684Y-88921485D02*
X120087255Y-88992914D01*
X120087255Y-88992914D02*
X119944398Y-89064342D01*
X119944398Y-89064342D02*
X119372969Y-89064342D01*
X121158684Y-88278628D02*
X121444398Y-88278628D01*
X121444398Y-88278628D02*
X121587255Y-88350057D01*
X121587255Y-88350057D02*
X121730112Y-88492914D01*
X121730112Y-88492914D02*
X121801541Y-88778628D01*
X121801541Y-88778628D02*
X121801541Y-89278628D01*
X121801541Y-89278628D02*
X121730112Y-89564342D01*
X121730112Y-89564342D02*
X121587255Y-89707200D01*
X121587255Y-89707200D02*
X121444398Y-89778628D01*
X121444398Y-89778628D02*
X121158684Y-89778628D01*
X121158684Y-89778628D02*
X121015827Y-89707200D01*
X121015827Y-89707200D02*
X120872969Y-89564342D01*
X120872969Y-89564342D02*
X120801541Y-89278628D01*
X120801541Y-89278628D02*
X120801541Y-88778628D01*
X120801541Y-88778628D02*
X120872969Y-88492914D01*
X120872969Y-88492914D02*
X121015827Y-88350057D01*
X121015827Y-88350057D02*
X121158684Y-88278628D01*
X122444398Y-89778628D02*
X122444398Y-88278628D01*
X122444398Y-88278628D02*
X122944398Y-89350057D01*
X122944398Y-89350057D02*
X123444398Y-88278628D01*
X123444398Y-88278628D02*
X123444398Y-89778628D01*
D10*
X187375200Y-80756265D02*
X187327580Y-80899122D01*
X187327580Y-80899122D02*
X187327580Y-81137217D01*
X187327580Y-81137217D02*
X187375200Y-81232455D01*
X187375200Y-81232455D02*
X187422819Y-81280074D01*
X187422819Y-81280074D02*
X187518057Y-81327693D01*
X187518057Y-81327693D02*
X187613295Y-81327693D01*
X187613295Y-81327693D02*
X187708533Y-81280074D01*
X187708533Y-81280074D02*
X187756152Y-81232455D01*
X187756152Y-81232455D02*
X187803771Y-81137217D01*
X187803771Y-81137217D02*
X187851390Y-80946741D01*
X187851390Y-80946741D02*
X187899009Y-80851503D01*
X187899009Y-80851503D02*
X187946628Y-80803884D01*
X187946628Y-80803884D02*
X188041866Y-80756265D01*
X188041866Y-80756265D02*
X188137104Y-80756265D01*
X188137104Y-80756265D02*
X188232342Y-80803884D01*
X188232342Y-80803884D02*
X188279961Y-80851503D01*
X188279961Y-80851503D02*
X188327580Y-80946741D01*
X188327580Y-80946741D02*
X188327580Y-81184836D01*
X188327580Y-81184836D02*
X188279961Y-81327693D01*
X187851390Y-81756265D02*
X187851390Y-82089598D01*
X187327580Y-82232455D02*
X187327580Y-81756265D01*
X187327580Y-81756265D02*
X188327580Y-81756265D01*
X188327580Y-81756265D02*
X188327580Y-82232455D01*
X187327580Y-83232455D02*
X187803771Y-82899122D01*
X187327580Y-82661027D02*
X188327580Y-82661027D01*
X188327580Y-82661027D02*
X188327580Y-83041979D01*
X188327580Y-83041979D02*
X188279961Y-83137217D01*
X188279961Y-83137217D02*
X188232342Y-83184836D01*
X188232342Y-83184836D02*
X188137104Y-83232455D01*
X188137104Y-83232455D02*
X187994247Y-83232455D01*
X187994247Y-83232455D02*
X187899009Y-83184836D01*
X187899009Y-83184836D02*
X187851390Y-83137217D01*
X187851390Y-83137217D02*
X187803771Y-83041979D01*
X187803771Y-83041979D02*
X187803771Y-82661027D01*
X187327580Y-83661027D02*
X188327580Y-83661027D01*
X187613295Y-84089598D02*
X187613295Y-84565788D01*
X187327580Y-83994360D02*
X188327580Y-84327693D01*
X188327580Y-84327693D02*
X187327580Y-84661026D01*
X187327580Y-85470550D02*
X187327580Y-84994360D01*
X187327580Y-84994360D02*
X188327580Y-84994360D01*
D12*
X103348720Y-119991112D02*
X103348720Y-118491112D01*
X104205863Y-119991112D02*
X103563006Y-119133969D01*
X104205863Y-118491112D02*
X103348720Y-119348255D01*
X105491578Y-118491112D02*
X105205863Y-118491112D01*
X105205863Y-118491112D02*
X105063006Y-118562541D01*
X105063006Y-118562541D02*
X104991578Y-118633969D01*
X104991578Y-118633969D02*
X104848720Y-118848255D01*
X104848720Y-118848255D02*
X104777292Y-119133969D01*
X104777292Y-119133969D02*
X104777292Y-119705398D01*
X104777292Y-119705398D02*
X104848720Y-119848255D01*
X104848720Y-119848255D02*
X104920149Y-119919684D01*
X104920149Y-119919684D02*
X105063006Y-119991112D01*
X105063006Y-119991112D02*
X105348720Y-119991112D01*
X105348720Y-119991112D02*
X105491578Y-119919684D01*
X105491578Y-119919684D02*
X105563006Y-119848255D01*
X105563006Y-119848255D02*
X105634435Y-119705398D01*
X105634435Y-119705398D02*
X105634435Y-119348255D01*
X105634435Y-119348255D02*
X105563006Y-119205398D01*
X105563006Y-119205398D02*
X105491578Y-119133969D01*
X105491578Y-119133969D02*
X105348720Y-119062541D01*
X105348720Y-119062541D02*
X105063006Y-119062541D01*
X105063006Y-119062541D02*
X104920149Y-119133969D01*
X104920149Y-119133969D02*
X104848720Y-119205398D01*
X104848720Y-119205398D02*
X104777292Y-119348255D01*
X106491577Y-119133969D02*
X106348720Y-119062541D01*
X106348720Y-119062541D02*
X106277291Y-118991112D01*
X106277291Y-118991112D02*
X106205863Y-118848255D01*
X106205863Y-118848255D02*
X106205863Y-118776826D01*
X106205863Y-118776826D02*
X106277291Y-118633969D01*
X106277291Y-118633969D02*
X106348720Y-118562541D01*
X106348720Y-118562541D02*
X106491577Y-118491112D01*
X106491577Y-118491112D02*
X106777291Y-118491112D01*
X106777291Y-118491112D02*
X106920149Y-118562541D01*
X106920149Y-118562541D02*
X106991577Y-118633969D01*
X106991577Y-118633969D02*
X107063006Y-118776826D01*
X107063006Y-118776826D02*
X107063006Y-118848255D01*
X107063006Y-118848255D02*
X106991577Y-118991112D01*
X106991577Y-118991112D02*
X106920149Y-119062541D01*
X106920149Y-119062541D02*
X106777291Y-119133969D01*
X106777291Y-119133969D02*
X106491577Y-119133969D01*
X106491577Y-119133969D02*
X106348720Y-119205398D01*
X106348720Y-119205398D02*
X106277291Y-119276826D01*
X106277291Y-119276826D02*
X106205863Y-119419684D01*
X106205863Y-119419684D02*
X106205863Y-119705398D01*
X106205863Y-119705398D02*
X106277291Y-119848255D01*
X106277291Y-119848255D02*
X106348720Y-119919684D01*
X106348720Y-119919684D02*
X106491577Y-119991112D01*
X106491577Y-119991112D02*
X106777291Y-119991112D01*
X106777291Y-119991112D02*
X106920149Y-119919684D01*
X106920149Y-119919684D02*
X106991577Y-119848255D01*
X106991577Y-119848255D02*
X107063006Y-119705398D01*
X107063006Y-119705398D02*
X107063006Y-119419684D01*
X107063006Y-119419684D02*
X106991577Y-119276826D01*
X106991577Y-119276826D02*
X106920149Y-119205398D01*
X106920149Y-119205398D02*
X106777291Y-119133969D01*
X107991577Y-118491112D02*
X108134434Y-118491112D01*
X108134434Y-118491112D02*
X108277291Y-118562541D01*
X108277291Y-118562541D02*
X108348720Y-118633969D01*
X108348720Y-118633969D02*
X108420148Y-118776826D01*
X108420148Y-118776826D02*
X108491577Y-119062541D01*
X108491577Y-119062541D02*
X108491577Y-119419684D01*
X108491577Y-119419684D02*
X108420148Y-119705398D01*
X108420148Y-119705398D02*
X108348720Y-119848255D01*
X108348720Y-119848255D02*
X108277291Y-119919684D01*
X108277291Y-119919684D02*
X108134434Y-119991112D01*
X108134434Y-119991112D02*
X107991577Y-119991112D01*
X107991577Y-119991112D02*
X107848720Y-119919684D01*
X107848720Y-119919684D02*
X107777291Y-119848255D01*
X107777291Y-119848255D02*
X107705862Y-119705398D01*
X107705862Y-119705398D02*
X107634434Y-119419684D01*
X107634434Y-119419684D02*
X107634434Y-119062541D01*
X107634434Y-119062541D02*
X107705862Y-118776826D01*
X107705862Y-118776826D02*
X107777291Y-118633969D01*
X107777291Y-118633969D02*
X107848720Y-118562541D01*
X107848720Y-118562541D02*
X107991577Y-118491112D01*
X109063005Y-118633969D02*
X109134433Y-118562541D01*
X109134433Y-118562541D02*
X109277291Y-118491112D01*
X109277291Y-118491112D02*
X109634433Y-118491112D01*
X109634433Y-118491112D02*
X109777291Y-118562541D01*
X109777291Y-118562541D02*
X109848719Y-118633969D01*
X109848719Y-118633969D02*
X109920148Y-118776826D01*
X109920148Y-118776826D02*
X109920148Y-118919684D01*
X109920148Y-118919684D02*
X109848719Y-119133969D01*
X109848719Y-119133969D02*
X108991576Y-119991112D01*
X108991576Y-119991112D02*
X109920148Y-119991112D01*
X110563004Y-119419684D02*
X111705862Y-119419684D01*
X112348719Y-119919684D02*
X112563005Y-119991112D01*
X112563005Y-119991112D02*
X112920147Y-119991112D01*
X112920147Y-119991112D02*
X113063005Y-119919684D01*
X113063005Y-119919684D02*
X113134433Y-119848255D01*
X113134433Y-119848255D02*
X113205862Y-119705398D01*
X113205862Y-119705398D02*
X113205862Y-119562541D01*
X113205862Y-119562541D02*
X113134433Y-119419684D01*
X113134433Y-119419684D02*
X113063005Y-119348255D01*
X113063005Y-119348255D02*
X112920147Y-119276826D01*
X112920147Y-119276826D02*
X112634433Y-119205398D01*
X112634433Y-119205398D02*
X112491576Y-119133969D01*
X112491576Y-119133969D02*
X112420147Y-119062541D01*
X112420147Y-119062541D02*
X112348719Y-118919684D01*
X112348719Y-118919684D02*
X112348719Y-118776826D01*
X112348719Y-118776826D02*
X112420147Y-118633969D01*
X112420147Y-118633969D02*
X112491576Y-118562541D01*
X112491576Y-118562541D02*
X112634433Y-118491112D01*
X112634433Y-118491112D02*
X112991576Y-118491112D01*
X112991576Y-118491112D02*
X113205862Y-118562541D01*
X114348718Y-119205398D02*
X114563004Y-119276826D01*
X114563004Y-119276826D02*
X114634433Y-119348255D01*
X114634433Y-119348255D02*
X114705861Y-119491112D01*
X114705861Y-119491112D02*
X114705861Y-119705398D01*
X114705861Y-119705398D02*
X114634433Y-119848255D01*
X114634433Y-119848255D02*
X114563004Y-119919684D01*
X114563004Y-119919684D02*
X114420147Y-119991112D01*
X114420147Y-119991112D02*
X113848718Y-119991112D01*
X113848718Y-119991112D02*
X113848718Y-118491112D01*
X113848718Y-118491112D02*
X114348718Y-118491112D01*
X114348718Y-118491112D02*
X114491576Y-118562541D01*
X114491576Y-118562541D02*
X114563004Y-118633969D01*
X114563004Y-118633969D02*
X114634433Y-118776826D01*
X114634433Y-118776826D02*
X114634433Y-118919684D01*
X114634433Y-118919684D02*
X114563004Y-119062541D01*
X114563004Y-119062541D02*
X114491576Y-119133969D01*
X114491576Y-119133969D02*
X114348718Y-119205398D01*
X114348718Y-119205398D02*
X113848718Y-119205398D01*
X116205861Y-119848255D02*
X116134433Y-119919684D01*
X116134433Y-119919684D02*
X115920147Y-119991112D01*
X115920147Y-119991112D02*
X115777290Y-119991112D01*
X115777290Y-119991112D02*
X115563004Y-119919684D01*
X115563004Y-119919684D02*
X115420147Y-119776826D01*
X115420147Y-119776826D02*
X115348718Y-119633969D01*
X115348718Y-119633969D02*
X115277290Y-119348255D01*
X115277290Y-119348255D02*
X115277290Y-119133969D01*
X115277290Y-119133969D02*
X115348718Y-118848255D01*
X115348718Y-118848255D02*
X115420147Y-118705398D01*
X115420147Y-118705398D02*
X115563004Y-118562541D01*
X115563004Y-118562541D02*
X115777290Y-118491112D01*
X115777290Y-118491112D02*
X115920147Y-118491112D01*
X115920147Y-118491112D02*
X116134433Y-118562541D01*
X116134433Y-118562541D02*
X116205861Y-118633969D01*
X118848718Y-119991112D02*
X118348718Y-119276826D01*
X117991575Y-119991112D02*
X117991575Y-118491112D01*
X117991575Y-118491112D02*
X118563004Y-118491112D01*
X118563004Y-118491112D02*
X118705861Y-118562541D01*
X118705861Y-118562541D02*
X118777290Y-118633969D01*
X118777290Y-118633969D02*
X118848718Y-118776826D01*
X118848718Y-118776826D02*
X118848718Y-118991112D01*
X118848718Y-118991112D02*
X118777290Y-119133969D01*
X118777290Y-119133969D02*
X118705861Y-119205398D01*
X118705861Y-119205398D02*
X118563004Y-119276826D01*
X118563004Y-119276826D02*
X117991575Y-119276826D01*
X119491575Y-119205398D02*
X119991575Y-119205398D01*
X120205861Y-119991112D02*
X119491575Y-119991112D01*
X119491575Y-119991112D02*
X119491575Y-118491112D01*
X119491575Y-118491112D02*
X120205861Y-118491112D01*
X120634433Y-118491112D02*
X121134433Y-119991112D01*
X121134433Y-119991112D02*
X121634433Y-118491112D01*
X122063004Y-118633969D02*
X122134432Y-118562541D01*
X122134432Y-118562541D02*
X122277290Y-118491112D01*
X122277290Y-118491112D02*
X122634432Y-118491112D01*
X122634432Y-118491112D02*
X122777290Y-118562541D01*
X122777290Y-118562541D02*
X122848718Y-118633969D01*
X122848718Y-118633969D02*
X122920147Y-118776826D01*
X122920147Y-118776826D02*
X122920147Y-118919684D01*
X122920147Y-118919684D02*
X122848718Y-119133969D01*
X122848718Y-119133969D02*
X121991575Y-119991112D01*
X121991575Y-119991112D02*
X122920147Y-119991112D01*
X103348720Y-122406028D02*
X103348720Y-120906028D01*
X104205863Y-122406028D02*
X103563006Y-121548885D01*
X104205863Y-120906028D02*
X103348720Y-121763171D01*
X104848720Y-120906028D02*
X104848720Y-122120314D01*
X104848720Y-122120314D02*
X104920149Y-122263171D01*
X104920149Y-122263171D02*
X104991578Y-122334600D01*
X104991578Y-122334600D02*
X105134435Y-122406028D01*
X105134435Y-122406028D02*
X105420149Y-122406028D01*
X105420149Y-122406028D02*
X105563006Y-122334600D01*
X105563006Y-122334600D02*
X105634435Y-122263171D01*
X105634435Y-122263171D02*
X105705863Y-122120314D01*
X105705863Y-122120314D02*
X105705863Y-120906028D01*
X106420149Y-122406028D02*
X106420149Y-120906028D01*
X106420149Y-120906028D02*
X107277292Y-122406028D01*
X107277292Y-122406028D02*
X107277292Y-120906028D01*
X107991578Y-122406028D02*
X107991578Y-120906028D01*
X108705864Y-121834600D02*
X109848722Y-121834600D01*
X110563007Y-122406028D02*
X110563007Y-120906028D01*
X110563007Y-120906028D02*
X111420150Y-122406028D01*
X111420150Y-122406028D02*
X111420150Y-120906028D01*
X112134436Y-121620314D02*
X112634436Y-121620314D01*
X112848722Y-122406028D02*
X112134436Y-122406028D01*
X112134436Y-122406028D02*
X112134436Y-120906028D01*
X112134436Y-120906028D02*
X112848722Y-120906028D01*
X113277294Y-120906028D02*
X114134437Y-120906028D01*
X113705865Y-122406028D02*
X113705865Y-120906028D01*
X115705865Y-121048885D02*
X115777293Y-120977457D01*
X115777293Y-120977457D02*
X115920151Y-120906028D01*
X115920151Y-120906028D02*
X116277293Y-120906028D01*
X116277293Y-120906028D02*
X116420151Y-120977457D01*
X116420151Y-120977457D02*
X116491579Y-121048885D01*
X116491579Y-121048885D02*
X116563008Y-121191742D01*
X116563008Y-121191742D02*
X116563008Y-121334600D01*
X116563008Y-121334600D02*
X116491579Y-121548885D01*
X116491579Y-121548885D02*
X115634436Y-122406028D01*
X115634436Y-122406028D02*
X116563008Y-122406028D01*
X117491579Y-120906028D02*
X117634436Y-120906028D01*
X117634436Y-120906028D02*
X117777293Y-120977457D01*
X117777293Y-120977457D02*
X117848722Y-121048885D01*
X117848722Y-121048885D02*
X117920150Y-121191742D01*
X117920150Y-121191742D02*
X117991579Y-121477457D01*
X117991579Y-121477457D02*
X117991579Y-121834600D01*
X117991579Y-121834600D02*
X117920150Y-122120314D01*
X117920150Y-122120314D02*
X117848722Y-122263171D01*
X117848722Y-122263171D02*
X117777293Y-122334600D01*
X117777293Y-122334600D02*
X117634436Y-122406028D01*
X117634436Y-122406028D02*
X117491579Y-122406028D01*
X117491579Y-122406028D02*
X117348722Y-122334600D01*
X117348722Y-122334600D02*
X117277293Y-122263171D01*
X117277293Y-122263171D02*
X117205864Y-122120314D01*
X117205864Y-122120314D02*
X117134436Y-121834600D01*
X117134436Y-121834600D02*
X117134436Y-121477457D01*
X117134436Y-121477457D02*
X117205864Y-121191742D01*
X117205864Y-121191742D02*
X117277293Y-121048885D01*
X117277293Y-121048885D02*
X117348722Y-120977457D01*
X117348722Y-120977457D02*
X117491579Y-120906028D01*
X118563007Y-121048885D02*
X118634435Y-120977457D01*
X118634435Y-120977457D02*
X118777293Y-120906028D01*
X118777293Y-120906028D02*
X119134435Y-120906028D01*
X119134435Y-120906028D02*
X119277293Y-120977457D01*
X119277293Y-120977457D02*
X119348721Y-121048885D01*
X119348721Y-121048885D02*
X119420150Y-121191742D01*
X119420150Y-121191742D02*
X119420150Y-121334600D01*
X119420150Y-121334600D02*
X119348721Y-121548885D01*
X119348721Y-121548885D02*
X118491578Y-122406028D01*
X118491578Y-122406028D02*
X119420150Y-122406028D01*
X120777292Y-120906028D02*
X120063006Y-120906028D01*
X120063006Y-120906028D02*
X119991578Y-121620314D01*
X119991578Y-121620314D02*
X120063006Y-121548885D01*
X120063006Y-121548885D02*
X120205864Y-121477457D01*
X120205864Y-121477457D02*
X120563006Y-121477457D01*
X120563006Y-121477457D02*
X120705864Y-121548885D01*
X120705864Y-121548885D02*
X120777292Y-121620314D01*
X120777292Y-121620314D02*
X120848721Y-121763171D01*
X120848721Y-121763171D02*
X120848721Y-122120314D01*
X120848721Y-122120314D02*
X120777292Y-122263171D01*
X120777292Y-122263171D02*
X120705864Y-122334600D01*
X120705864Y-122334600D02*
X120563006Y-122406028D01*
X120563006Y-122406028D02*
X120205864Y-122406028D01*
X120205864Y-122406028D02*
X120063006Y-122334600D01*
X120063006Y-122334600D02*
X119991578Y-122263171D01*
D10*
X107672419Y-56972306D02*
X107672419Y-57543734D01*
X107672419Y-57258020D02*
X106672419Y-57258020D01*
X106672419Y-57258020D02*
X106815276Y-57353258D01*
X106815276Y-57353258D02*
X106910514Y-57448496D01*
X106910514Y-57448496D02*
X106958133Y-57543734D01*
X106672419Y-56353258D02*
X106672419Y-56258020D01*
X106672419Y-56258020D02*
X106720038Y-56162782D01*
X106720038Y-56162782D02*
X106767657Y-56115163D01*
X106767657Y-56115163D02*
X106862895Y-56067544D01*
X106862895Y-56067544D02*
X107053371Y-56019925D01*
X107053371Y-56019925D02*
X107291466Y-56019925D01*
X107291466Y-56019925D02*
X107481942Y-56067544D01*
X107481942Y-56067544D02*
X107577180Y-56115163D01*
X107577180Y-56115163D02*
X107624800Y-56162782D01*
X107624800Y-56162782D02*
X107672419Y-56258020D01*
X107672419Y-56258020D02*
X107672419Y-56353258D01*
X107672419Y-56353258D02*
X107624800Y-56448496D01*
X107624800Y-56448496D02*
X107577180Y-56496115D01*
X107577180Y-56496115D02*
X107481942Y-56543734D01*
X107481942Y-56543734D02*
X107291466Y-56591353D01*
X107291466Y-56591353D02*
X107053371Y-56591353D01*
X107053371Y-56591353D02*
X106862895Y-56543734D01*
X106862895Y-56543734D02*
X106767657Y-56496115D01*
X106767657Y-56496115D02*
X106720038Y-56448496D01*
X106720038Y-56448496D02*
X106672419Y-56353258D01*
X106672419Y-55400877D02*
X106672419Y-55305639D01*
X106672419Y-55305639D02*
X106720038Y-55210401D01*
X106720038Y-55210401D02*
X106767657Y-55162782D01*
X106767657Y-55162782D02*
X106862895Y-55115163D01*
X106862895Y-55115163D02*
X107053371Y-55067544D01*
X107053371Y-55067544D02*
X107291466Y-55067544D01*
X107291466Y-55067544D02*
X107481942Y-55115163D01*
X107481942Y-55115163D02*
X107577180Y-55162782D01*
X107577180Y-55162782D02*
X107624800Y-55210401D01*
X107624800Y-55210401D02*
X107672419Y-55305639D01*
X107672419Y-55305639D02*
X107672419Y-55400877D01*
X107672419Y-55400877D02*
X107624800Y-55496115D01*
X107624800Y-55496115D02*
X107577180Y-55543734D01*
X107577180Y-55543734D02*
X107481942Y-55591353D01*
X107481942Y-55591353D02*
X107291466Y-55638972D01*
X107291466Y-55638972D02*
X107053371Y-55638972D01*
X107053371Y-55638972D02*
X106862895Y-55591353D01*
X106862895Y-55591353D02*
X106767657Y-55543734D01*
X106767657Y-55543734D02*
X106720038Y-55496115D01*
X106720038Y-55496115D02*
X106672419Y-55400877D01*
X107005752Y-54210401D02*
X107672419Y-54210401D01*
X107005752Y-54638972D02*
X107529561Y-54638972D01*
X107529561Y-54638972D02*
X107624800Y-54591353D01*
X107624800Y-54591353D02*
X107672419Y-54496115D01*
X107672419Y-54496115D02*
X107672419Y-54353258D01*
X107672419Y-54353258D02*
X107624800Y-54258020D01*
X107624800Y-54258020D02*
X107577180Y-54210401D01*
D11*
X139691371Y-107612969D02*
X139691371Y-108612969D01*
X139691371Y-108612969D02*
X138191371Y-107970112D01*
X139191371Y-109827255D02*
X138191371Y-109827255D01*
X139762800Y-109470112D02*
X138691371Y-109112969D01*
X138691371Y-109112969D02*
X138691371Y-110041540D01*
X138191371Y-111327254D02*
X138191371Y-110612968D01*
X138191371Y-110612968D02*
X139691371Y-110612968D01*
X138262800Y-111755826D02*
X138191371Y-111970112D01*
X138191371Y-111970112D02*
X138191371Y-112327254D01*
X138191371Y-112327254D02*
X138262800Y-112470112D01*
X138262800Y-112470112D02*
X138334228Y-112541540D01*
X138334228Y-112541540D02*
X138477085Y-112612969D01*
X138477085Y-112612969D02*
X138619942Y-112612969D01*
X138619942Y-112612969D02*
X138762800Y-112541540D01*
X138762800Y-112541540D02*
X138834228Y-112470112D01*
X138834228Y-112470112D02*
X138905657Y-112327254D01*
X138905657Y-112327254D02*
X138977085Y-112041540D01*
X138977085Y-112041540D02*
X139048514Y-111898683D01*
X139048514Y-111898683D02*
X139119942Y-111827254D01*
X139119942Y-111827254D02*
X139262800Y-111755826D01*
X139262800Y-111755826D02*
X139405657Y-111755826D01*
X139405657Y-111755826D02*
X139548514Y-111827254D01*
X139548514Y-111827254D02*
X139619942Y-111898683D01*
X139619942Y-111898683D02*
X139691371Y-112041540D01*
X139691371Y-112041540D02*
X139691371Y-112398683D01*
X139691371Y-112398683D02*
X139619942Y-112612969D01*
X138191371Y-114041540D02*
X138191371Y-113184397D01*
X138191371Y-113612968D02*
X139691371Y-113612968D01*
X139691371Y-113612968D02*
X139477085Y-113470111D01*
X139477085Y-113470111D02*
X139334228Y-113327254D01*
X139334228Y-113327254D02*
X139262800Y-113184397D01*
X139691371Y-114541539D02*
X139691371Y-115470111D01*
X139691371Y-115470111D02*
X139119942Y-114970111D01*
X139119942Y-114970111D02*
X139119942Y-115184396D01*
X139119942Y-115184396D02*
X139048514Y-115327254D01*
X139048514Y-115327254D02*
X138977085Y-115398682D01*
X138977085Y-115398682D02*
X138834228Y-115470111D01*
X138834228Y-115470111D02*
X138477085Y-115470111D01*
X138477085Y-115470111D02*
X138334228Y-115398682D01*
X138334228Y-115398682D02*
X138262800Y-115327254D01*
X138262800Y-115327254D02*
X138191371Y-115184396D01*
X138191371Y-115184396D02*
X138191371Y-114755825D01*
X138191371Y-114755825D02*
X138262800Y-114612968D01*
X138262800Y-114612968D02*
X138334228Y-114541539D01*
X139048514Y-116327253D02*
X139119942Y-116184396D01*
X139119942Y-116184396D02*
X139191371Y-116112967D01*
X139191371Y-116112967D02*
X139334228Y-116041539D01*
X139334228Y-116041539D02*
X139405657Y-116041539D01*
X139405657Y-116041539D02*
X139548514Y-116112967D01*
X139548514Y-116112967D02*
X139619942Y-116184396D01*
X139619942Y-116184396D02*
X139691371Y-116327253D01*
X139691371Y-116327253D02*
X139691371Y-116612967D01*
X139691371Y-116612967D02*
X139619942Y-116755825D01*
X139619942Y-116755825D02*
X139548514Y-116827253D01*
X139548514Y-116827253D02*
X139405657Y-116898682D01*
X139405657Y-116898682D02*
X139334228Y-116898682D01*
X139334228Y-116898682D02*
X139191371Y-116827253D01*
X139191371Y-116827253D02*
X139119942Y-116755825D01*
X139119942Y-116755825D02*
X139048514Y-116612967D01*
X139048514Y-116612967D02*
X139048514Y-116327253D01*
X139048514Y-116327253D02*
X138977085Y-116184396D01*
X138977085Y-116184396D02*
X138905657Y-116112967D01*
X138905657Y-116112967D02*
X138762800Y-116041539D01*
X138762800Y-116041539D02*
X138477085Y-116041539D01*
X138477085Y-116041539D02*
X138334228Y-116112967D01*
X138334228Y-116112967D02*
X138262800Y-116184396D01*
X138262800Y-116184396D02*
X138191371Y-116327253D01*
X138191371Y-116327253D02*
X138191371Y-116612967D01*
X138191371Y-116612967D02*
X138262800Y-116755825D01*
X138262800Y-116755825D02*
X138334228Y-116827253D01*
X138334228Y-116827253D02*
X138477085Y-116898682D01*
X138477085Y-116898682D02*
X138762800Y-116898682D01*
X138762800Y-116898682D02*
X138905657Y-116827253D01*
X138905657Y-116827253D02*
X138977085Y-116755825D01*
X138977085Y-116755825D02*
X139048514Y-116612967D01*
D10*
X94172419Y-90272306D02*
X94172419Y-90843734D01*
X94172419Y-90558020D02*
X93172419Y-90558020D01*
X93172419Y-90558020D02*
X93315276Y-90653258D01*
X93315276Y-90653258D02*
X93410514Y-90748496D01*
X93410514Y-90748496D02*
X93458133Y-90843734D01*
X93172419Y-89653258D02*
X93172419Y-89558020D01*
X93172419Y-89558020D02*
X93220038Y-89462782D01*
X93220038Y-89462782D02*
X93267657Y-89415163D01*
X93267657Y-89415163D02*
X93362895Y-89367544D01*
X93362895Y-89367544D02*
X93553371Y-89319925D01*
X93553371Y-89319925D02*
X93791466Y-89319925D01*
X93791466Y-89319925D02*
X93981942Y-89367544D01*
X93981942Y-89367544D02*
X94077180Y-89415163D01*
X94077180Y-89415163D02*
X94124800Y-89462782D01*
X94124800Y-89462782D02*
X94172419Y-89558020D01*
X94172419Y-89558020D02*
X94172419Y-89653258D01*
X94172419Y-89653258D02*
X94124800Y-89748496D01*
X94124800Y-89748496D02*
X94077180Y-89796115D01*
X94077180Y-89796115D02*
X93981942Y-89843734D01*
X93981942Y-89843734D02*
X93791466Y-89891353D01*
X93791466Y-89891353D02*
X93553371Y-89891353D01*
X93553371Y-89891353D02*
X93362895Y-89843734D01*
X93362895Y-89843734D02*
X93267657Y-89796115D01*
X93267657Y-89796115D02*
X93220038Y-89748496D01*
X93220038Y-89748496D02*
X93172419Y-89653258D01*
X93505752Y-88462782D02*
X94172419Y-88462782D01*
X93505752Y-88891353D02*
X94029561Y-88891353D01*
X94029561Y-88891353D02*
X94124800Y-88843734D01*
X94124800Y-88843734D02*
X94172419Y-88748496D01*
X94172419Y-88748496D02*
X94172419Y-88605639D01*
X94172419Y-88605639D02*
X94124800Y-88510401D01*
X94124800Y-88510401D02*
X94077180Y-88462782D01*
D11*
X145333333Y-101159580D02*
X145285714Y-101207200D01*
X145285714Y-101207200D02*
X145142857Y-101254819D01*
X145142857Y-101254819D02*
X145047619Y-101254819D01*
X145047619Y-101254819D02*
X144904762Y-101207200D01*
X144904762Y-101207200D02*
X144809524Y-101111961D01*
X144809524Y-101111961D02*
X144761905Y-101016723D01*
X144761905Y-101016723D02*
X144714286Y-100826247D01*
X144714286Y-100826247D02*
X144714286Y-100683390D01*
X144714286Y-100683390D02*
X144761905Y-100492914D01*
X144761905Y-100492914D02*
X144809524Y-100397676D01*
X144809524Y-100397676D02*
X144904762Y-100302438D01*
X144904762Y-100302438D02*
X145047619Y-100254819D01*
X145047619Y-100254819D02*
X145142857Y-100254819D01*
X145142857Y-100254819D02*
X145285714Y-100302438D01*
X145285714Y-100302438D02*
X145333333Y-100350057D01*
X145904762Y-100683390D02*
X145809524Y-100635771D01*
X145809524Y-100635771D02*
X145761905Y-100588152D01*
X145761905Y-100588152D02*
X145714286Y-100492914D01*
X145714286Y-100492914D02*
X145714286Y-100445295D01*
X145714286Y-100445295D02*
X145761905Y-100350057D01*
X145761905Y-100350057D02*
X145809524Y-100302438D01*
X145809524Y-100302438D02*
X145904762Y-100254819D01*
X145904762Y-100254819D02*
X146095238Y-100254819D01*
X146095238Y-100254819D02*
X146190476Y-100302438D01*
X146190476Y-100302438D02*
X146238095Y-100350057D01*
X146238095Y-100350057D02*
X146285714Y-100445295D01*
X146285714Y-100445295D02*
X146285714Y-100492914D01*
X146285714Y-100492914D02*
X146238095Y-100588152D01*
X146238095Y-100588152D02*
X146190476Y-100635771D01*
X146190476Y-100635771D02*
X146095238Y-100683390D01*
X146095238Y-100683390D02*
X145904762Y-100683390D01*
X145904762Y-100683390D02*
X145809524Y-100731009D01*
X145809524Y-100731009D02*
X145761905Y-100778628D01*
X145761905Y-100778628D02*
X145714286Y-100873866D01*
X145714286Y-100873866D02*
X145714286Y-101064342D01*
X145714286Y-101064342D02*
X145761905Y-101159580D01*
X145761905Y-101159580D02*
X145809524Y-101207200D01*
X145809524Y-101207200D02*
X145904762Y-101254819D01*
X145904762Y-101254819D02*
X146095238Y-101254819D01*
X146095238Y-101254819D02*
X146190476Y-101207200D01*
X146190476Y-101207200D02*
X146238095Y-101159580D01*
X146238095Y-101159580D02*
X146285714Y-101064342D01*
X146285714Y-101064342D02*
X146285714Y-100873866D01*
X146285714Y-100873866D02*
X146238095Y-100778628D01*
X146238095Y-100778628D02*
X146190476Y-100731009D01*
X146190476Y-100731009D02*
X146095238Y-100683390D01*
X160233333Y-103659580D02*
X160185714Y-103707200D01*
X160185714Y-103707200D02*
X160042857Y-103754819D01*
X160042857Y-103754819D02*
X159947619Y-103754819D01*
X159947619Y-103754819D02*
X159804762Y-103707200D01*
X159804762Y-103707200D02*
X159709524Y-103611961D01*
X159709524Y-103611961D02*
X159661905Y-103516723D01*
X159661905Y-103516723D02*
X159614286Y-103326247D01*
X159614286Y-103326247D02*
X159614286Y-103183390D01*
X159614286Y-103183390D02*
X159661905Y-102992914D01*
X159661905Y-102992914D02*
X159709524Y-102897676D01*
X159709524Y-102897676D02*
X159804762Y-102802438D01*
X159804762Y-102802438D02*
X159947619Y-102754819D01*
X159947619Y-102754819D02*
X160042857Y-102754819D01*
X160042857Y-102754819D02*
X160185714Y-102802438D01*
X160185714Y-102802438D02*
X160233333Y-102850057D01*
X160614286Y-102850057D02*
X160661905Y-102802438D01*
X160661905Y-102802438D02*
X160757143Y-102754819D01*
X160757143Y-102754819D02*
X160995238Y-102754819D01*
X160995238Y-102754819D02*
X161090476Y-102802438D01*
X161090476Y-102802438D02*
X161138095Y-102850057D01*
X161138095Y-102850057D02*
X161185714Y-102945295D01*
X161185714Y-102945295D02*
X161185714Y-103040533D01*
X161185714Y-103040533D02*
X161138095Y-103183390D01*
X161138095Y-103183390D02*
X160566667Y-103754819D01*
X160566667Y-103754819D02*
X161185714Y-103754819D01*
X173118095Y-61384819D02*
X173118095Y-62194342D01*
X173118095Y-62194342D02*
X173165714Y-62289580D01*
X173165714Y-62289580D02*
X173213333Y-62337200D01*
X173213333Y-62337200D02*
X173308571Y-62384819D01*
X173308571Y-62384819D02*
X173499047Y-62384819D01*
X173499047Y-62384819D02*
X173594285Y-62337200D01*
X173594285Y-62337200D02*
X173641904Y-62289580D01*
X173641904Y-62289580D02*
X173689523Y-62194342D01*
X173689523Y-62194342D02*
X173689523Y-61384819D01*
X174308571Y-61813390D02*
X174213333Y-61765771D01*
X174213333Y-61765771D02*
X174165714Y-61718152D01*
X174165714Y-61718152D02*
X174118095Y-61622914D01*
X174118095Y-61622914D02*
X174118095Y-61575295D01*
X174118095Y-61575295D02*
X174165714Y-61480057D01*
X174165714Y-61480057D02*
X174213333Y-61432438D01*
X174213333Y-61432438D02*
X174308571Y-61384819D01*
X174308571Y-61384819D02*
X174499047Y-61384819D01*
X174499047Y-61384819D02*
X174594285Y-61432438D01*
X174594285Y-61432438D02*
X174641904Y-61480057D01*
X174641904Y-61480057D02*
X174689523Y-61575295D01*
X174689523Y-61575295D02*
X174689523Y-61622914D01*
X174689523Y-61622914D02*
X174641904Y-61718152D01*
X174641904Y-61718152D02*
X174594285Y-61765771D01*
X174594285Y-61765771D02*
X174499047Y-61813390D01*
X174499047Y-61813390D02*
X174308571Y-61813390D01*
X174308571Y-61813390D02*
X174213333Y-61861009D01*
X174213333Y-61861009D02*
X174165714Y-61908628D01*
X174165714Y-61908628D02*
X174118095Y-62003866D01*
X174118095Y-62003866D02*
X174118095Y-62194342D01*
X174118095Y-62194342D02*
X174165714Y-62289580D01*
X174165714Y-62289580D02*
X174213333Y-62337200D01*
X174213333Y-62337200D02*
X174308571Y-62384819D01*
X174308571Y-62384819D02*
X174499047Y-62384819D01*
X174499047Y-62384819D02*
X174594285Y-62337200D01*
X174594285Y-62337200D02*
X174641904Y-62289580D01*
X174641904Y-62289580D02*
X174689523Y-62194342D01*
X174689523Y-62194342D02*
X174689523Y-62003866D01*
X174689523Y-62003866D02*
X174641904Y-61908628D01*
X174641904Y-61908628D02*
X174594285Y-61861009D01*
X174594285Y-61861009D02*
X174499047Y-61813390D01*
X154333333Y-87909580D02*
X154285714Y-87957200D01*
X154285714Y-87957200D02*
X154142857Y-88004819D01*
X154142857Y-88004819D02*
X154047619Y-88004819D01*
X154047619Y-88004819D02*
X153904762Y-87957200D01*
X153904762Y-87957200D02*
X153809524Y-87861961D01*
X153809524Y-87861961D02*
X153761905Y-87766723D01*
X153761905Y-87766723D02*
X153714286Y-87576247D01*
X153714286Y-87576247D02*
X153714286Y-87433390D01*
X153714286Y-87433390D02*
X153761905Y-87242914D01*
X153761905Y-87242914D02*
X153809524Y-87147676D01*
X153809524Y-87147676D02*
X153904762Y-87052438D01*
X153904762Y-87052438D02*
X154047619Y-87004819D01*
X154047619Y-87004819D02*
X154142857Y-87004819D01*
X154142857Y-87004819D02*
X154285714Y-87052438D01*
X154285714Y-87052438D02*
X154333333Y-87100057D01*
X155190476Y-87338152D02*
X155190476Y-88004819D01*
X154952381Y-86957200D02*
X154714286Y-87671485D01*
X154714286Y-87671485D02*
X155333333Y-87671485D01*
X123609580Y-108642857D02*
X123657200Y-108690476D01*
X123657200Y-108690476D02*
X123704819Y-108833333D01*
X123704819Y-108833333D02*
X123704819Y-108928571D01*
X123704819Y-108928571D02*
X123657200Y-109071428D01*
X123657200Y-109071428D02*
X123561961Y-109166666D01*
X123561961Y-109166666D02*
X123466723Y-109214285D01*
X123466723Y-109214285D02*
X123276247Y-109261904D01*
X123276247Y-109261904D02*
X123133390Y-109261904D01*
X123133390Y-109261904D02*
X122942914Y-109214285D01*
X122942914Y-109214285D02*
X122847676Y-109166666D01*
X122847676Y-109166666D02*
X122752438Y-109071428D01*
X122752438Y-109071428D02*
X122704819Y-108928571D01*
X122704819Y-108928571D02*
X122704819Y-108833333D01*
X122704819Y-108833333D02*
X122752438Y-108690476D01*
X122752438Y-108690476D02*
X122800057Y-108642857D01*
X123704819Y-107690476D02*
X123704819Y-108261904D01*
X123704819Y-107976190D02*
X122704819Y-107976190D01*
X122704819Y-107976190D02*
X122847676Y-108071428D01*
X122847676Y-108071428D02*
X122942914Y-108166666D01*
X122942914Y-108166666D02*
X122990533Y-108261904D01*
X123704819Y-106738095D02*
X123704819Y-107309523D01*
X123704819Y-107023809D02*
X122704819Y-107023809D01*
X122704819Y-107023809D02*
X122847676Y-107119047D01*
X122847676Y-107119047D02*
X122942914Y-107214285D01*
X122942914Y-107214285D02*
X122990533Y-107309523D01*
X147609580Y-69466666D02*
X147657200Y-69514285D01*
X147657200Y-69514285D02*
X147704819Y-69657142D01*
X147704819Y-69657142D02*
X147704819Y-69752380D01*
X147704819Y-69752380D02*
X147657200Y-69895237D01*
X147657200Y-69895237D02*
X147561961Y-69990475D01*
X147561961Y-69990475D02*
X147466723Y-70038094D01*
X147466723Y-70038094D02*
X147276247Y-70085713D01*
X147276247Y-70085713D02*
X147133390Y-70085713D01*
X147133390Y-70085713D02*
X146942914Y-70038094D01*
X146942914Y-70038094D02*
X146847676Y-69990475D01*
X146847676Y-69990475D02*
X146752438Y-69895237D01*
X146752438Y-69895237D02*
X146704819Y-69752380D01*
X146704819Y-69752380D02*
X146704819Y-69657142D01*
X146704819Y-69657142D02*
X146752438Y-69514285D01*
X146752438Y-69514285D02*
X146800057Y-69466666D01*
X146704819Y-69133332D02*
X146704819Y-68466666D01*
X146704819Y-68466666D02*
X147704819Y-68895237D01*
X179284819Y-111266666D02*
X178808628Y-111599999D01*
X179284819Y-111838094D02*
X178284819Y-111838094D01*
X178284819Y-111838094D02*
X178284819Y-111457142D01*
X178284819Y-111457142D02*
X178332438Y-111361904D01*
X178332438Y-111361904D02*
X178380057Y-111314285D01*
X178380057Y-111314285D02*
X178475295Y-111266666D01*
X178475295Y-111266666D02*
X178618152Y-111266666D01*
X178618152Y-111266666D02*
X178713390Y-111314285D01*
X178713390Y-111314285D02*
X178761009Y-111361904D01*
X178761009Y-111361904D02*
X178808628Y-111457142D01*
X178808628Y-111457142D02*
X178808628Y-111838094D01*
X178618152Y-110409523D02*
X179284819Y-110409523D01*
X178237200Y-110647618D02*
X178951485Y-110885713D01*
X178951485Y-110885713D02*
X178951485Y-110266666D01*
X170857142Y-95859580D02*
X170809523Y-95907200D01*
X170809523Y-95907200D02*
X170666666Y-95954819D01*
X170666666Y-95954819D02*
X170571428Y-95954819D01*
X170571428Y-95954819D02*
X170428571Y-95907200D01*
X170428571Y-95907200D02*
X170333333Y-95811961D01*
X170333333Y-95811961D02*
X170285714Y-95716723D01*
X170285714Y-95716723D02*
X170238095Y-95526247D01*
X170238095Y-95526247D02*
X170238095Y-95383390D01*
X170238095Y-95383390D02*
X170285714Y-95192914D01*
X170285714Y-95192914D02*
X170333333Y-95097676D01*
X170333333Y-95097676D02*
X170428571Y-95002438D01*
X170428571Y-95002438D02*
X170571428Y-94954819D01*
X170571428Y-94954819D02*
X170666666Y-94954819D01*
X170666666Y-94954819D02*
X170809523Y-95002438D01*
X170809523Y-95002438D02*
X170857142Y-95050057D01*
X171809523Y-95954819D02*
X171238095Y-95954819D01*
X171523809Y-95954819D02*
X171523809Y-94954819D01*
X171523809Y-94954819D02*
X171428571Y-95097676D01*
X171428571Y-95097676D02*
X171333333Y-95192914D01*
X171333333Y-95192914D02*
X171238095Y-95240533D01*
X172666666Y-95288152D02*
X172666666Y-95954819D01*
X172428571Y-94907200D02*
X172190476Y-95621485D01*
X172190476Y-95621485D02*
X172809523Y-95621485D01*
X113044819Y-51518333D02*
X113759104Y-51518333D01*
X113759104Y-51518333D02*
X113901961Y-51565952D01*
X113901961Y-51565952D02*
X113997200Y-51661190D01*
X113997200Y-51661190D02*
X114044819Y-51804047D01*
X114044819Y-51804047D02*
X114044819Y-51899285D01*
X113140057Y-51089761D02*
X113092438Y-51042142D01*
X113092438Y-51042142D02*
X113044819Y-50946904D01*
X113044819Y-50946904D02*
X113044819Y-50708809D01*
X113044819Y-50708809D02*
X113092438Y-50613571D01*
X113092438Y-50613571D02*
X113140057Y-50565952D01*
X113140057Y-50565952D02*
X113235295Y-50518333D01*
X113235295Y-50518333D02*
X113330533Y-50518333D01*
X113330533Y-50518333D02*
X113473390Y-50565952D01*
X113473390Y-50565952D02*
X114044819Y-51137380D01*
X114044819Y-51137380D02*
X114044819Y-50518333D01*
X95766667Y-82457200D02*
X95909524Y-82504819D01*
X95909524Y-82504819D02*
X96147619Y-82504819D01*
X96147619Y-82504819D02*
X96242857Y-82457200D01*
X96242857Y-82457200D02*
X96290476Y-82409580D01*
X96290476Y-82409580D02*
X96338095Y-82314342D01*
X96338095Y-82314342D02*
X96338095Y-82219104D01*
X96338095Y-82219104D02*
X96290476Y-82123866D01*
X96290476Y-82123866D02*
X96242857Y-82076247D01*
X96242857Y-82076247D02*
X96147619Y-82028628D01*
X96147619Y-82028628D02*
X95957143Y-81981009D01*
X95957143Y-81981009D02*
X95861905Y-81933390D01*
X95861905Y-81933390D02*
X95814286Y-81885771D01*
X95814286Y-81885771D02*
X95766667Y-81790533D01*
X95766667Y-81790533D02*
X95766667Y-81695295D01*
X95766667Y-81695295D02*
X95814286Y-81600057D01*
X95814286Y-81600057D02*
X95861905Y-81552438D01*
X95861905Y-81552438D02*
X95957143Y-81504819D01*
X95957143Y-81504819D02*
X96195238Y-81504819D01*
X96195238Y-81504819D02*
X96338095Y-81552438D01*
X96671429Y-81504819D02*
X96909524Y-82504819D01*
X96909524Y-82504819D02*
X97100000Y-81790533D01*
X97100000Y-81790533D02*
X97290476Y-82504819D01*
X97290476Y-82504819D02*
X97528572Y-81504819D01*
X97861905Y-81600057D02*
X97909524Y-81552438D01*
X97909524Y-81552438D02*
X98004762Y-81504819D01*
X98004762Y-81504819D02*
X98242857Y-81504819D01*
X98242857Y-81504819D02*
X98338095Y-81552438D01*
X98338095Y-81552438D02*
X98385714Y-81600057D01*
X98385714Y-81600057D02*
X98433333Y-81695295D01*
X98433333Y-81695295D02*
X98433333Y-81790533D01*
X98433333Y-81790533D02*
X98385714Y-81933390D01*
X98385714Y-81933390D02*
X97814286Y-82504819D01*
X97814286Y-82504819D02*
X98433333Y-82504819D01*
X138309580Y-90342857D02*
X138357200Y-90390476D01*
X138357200Y-90390476D02*
X138404819Y-90533333D01*
X138404819Y-90533333D02*
X138404819Y-90628571D01*
X138404819Y-90628571D02*
X138357200Y-90771428D01*
X138357200Y-90771428D02*
X138261961Y-90866666D01*
X138261961Y-90866666D02*
X138166723Y-90914285D01*
X138166723Y-90914285D02*
X137976247Y-90961904D01*
X137976247Y-90961904D02*
X137833390Y-90961904D01*
X137833390Y-90961904D02*
X137642914Y-90914285D01*
X137642914Y-90914285D02*
X137547676Y-90866666D01*
X137547676Y-90866666D02*
X137452438Y-90771428D01*
X137452438Y-90771428D02*
X137404819Y-90628571D01*
X137404819Y-90628571D02*
X137404819Y-90533333D01*
X137404819Y-90533333D02*
X137452438Y-90390476D01*
X137452438Y-90390476D02*
X137500057Y-90342857D01*
X138404819Y-89390476D02*
X138404819Y-89961904D01*
X138404819Y-89676190D02*
X137404819Y-89676190D01*
X137404819Y-89676190D02*
X137547676Y-89771428D01*
X137547676Y-89771428D02*
X137642914Y-89866666D01*
X137642914Y-89866666D02*
X137690533Y-89961904D01*
X137404819Y-89057142D02*
X137404819Y-88438095D01*
X137404819Y-88438095D02*
X137785771Y-88771428D01*
X137785771Y-88771428D02*
X137785771Y-88628571D01*
X137785771Y-88628571D02*
X137833390Y-88533333D01*
X137833390Y-88533333D02*
X137881009Y-88485714D01*
X137881009Y-88485714D02*
X137976247Y-88438095D01*
X137976247Y-88438095D02*
X138214342Y-88438095D01*
X138214342Y-88438095D02*
X138309580Y-88485714D01*
X138309580Y-88485714D02*
X138357200Y-88533333D01*
X138357200Y-88533333D02*
X138404819Y-88628571D01*
X138404819Y-88628571D02*
X138404819Y-88914285D01*
X138404819Y-88914285D02*
X138357200Y-89009523D01*
X138357200Y-89009523D02*
X138309580Y-89057142D01*
X157823809Y-77678628D02*
X157823809Y-78154819D01*
X157490476Y-77154819D02*
X157823809Y-77678628D01*
X157823809Y-77678628D02*
X158157142Y-77154819D01*
X159014285Y-78154819D02*
X158442857Y-78154819D01*
X158728571Y-78154819D02*
X158728571Y-77154819D01*
X158728571Y-77154819D02*
X158633333Y-77297676D01*
X158633333Y-77297676D02*
X158538095Y-77392914D01*
X158538095Y-77392914D02*
X158442857Y-77440533D01*
X188409580Y-117916666D02*
X188457200Y-117964285D01*
X188457200Y-117964285D02*
X188504819Y-118107142D01*
X188504819Y-118107142D02*
X188504819Y-118202380D01*
X188504819Y-118202380D02*
X188457200Y-118345237D01*
X188457200Y-118345237D02*
X188361961Y-118440475D01*
X188361961Y-118440475D02*
X188266723Y-118488094D01*
X188266723Y-118488094D02*
X188076247Y-118535713D01*
X188076247Y-118535713D02*
X187933390Y-118535713D01*
X187933390Y-118535713D02*
X187742914Y-118488094D01*
X187742914Y-118488094D02*
X187647676Y-118440475D01*
X187647676Y-118440475D02*
X187552438Y-118345237D01*
X187552438Y-118345237D02*
X187504819Y-118202380D01*
X187504819Y-118202380D02*
X187504819Y-118107142D01*
X187504819Y-118107142D02*
X187552438Y-117964285D01*
X187552438Y-117964285D02*
X187600057Y-117916666D01*
X188504819Y-117440475D02*
X188504819Y-117249999D01*
X188504819Y-117249999D02*
X188457200Y-117154761D01*
X188457200Y-117154761D02*
X188409580Y-117107142D01*
X188409580Y-117107142D02*
X188266723Y-117011904D01*
X188266723Y-117011904D02*
X188076247Y-116964285D01*
X188076247Y-116964285D02*
X187695295Y-116964285D01*
X187695295Y-116964285D02*
X187600057Y-117011904D01*
X187600057Y-117011904D02*
X187552438Y-117059523D01*
X187552438Y-117059523D02*
X187504819Y-117154761D01*
X187504819Y-117154761D02*
X187504819Y-117345237D01*
X187504819Y-117345237D02*
X187552438Y-117440475D01*
X187552438Y-117440475D02*
X187600057Y-117488094D01*
X187600057Y-117488094D02*
X187695295Y-117535713D01*
X187695295Y-117535713D02*
X187933390Y-117535713D01*
X187933390Y-117535713D02*
X188028628Y-117488094D01*
X188028628Y-117488094D02*
X188076247Y-117440475D01*
X188076247Y-117440475D02*
X188123866Y-117345237D01*
X188123866Y-117345237D02*
X188123866Y-117154761D01*
X188123866Y-117154761D02*
X188076247Y-117059523D01*
X188076247Y-117059523D02*
X188028628Y-117011904D01*
X188028628Y-117011904D02*
X187933390Y-116964285D01*
X133209523Y-79154819D02*
X132876190Y-78678628D01*
X132638095Y-79154819D02*
X132638095Y-78154819D01*
X132638095Y-78154819D02*
X133019047Y-78154819D01*
X133019047Y-78154819D02*
X133114285Y-78202438D01*
X133114285Y-78202438D02*
X133161904Y-78250057D01*
X133161904Y-78250057D02*
X133209523Y-78345295D01*
X133209523Y-78345295D02*
X133209523Y-78488152D01*
X133209523Y-78488152D02*
X133161904Y-78583390D01*
X133161904Y-78583390D02*
X133114285Y-78631009D01*
X133114285Y-78631009D02*
X133019047Y-78678628D01*
X133019047Y-78678628D02*
X132638095Y-78678628D01*
X133638095Y-79154819D02*
X133638095Y-78154819D01*
X133638095Y-78154819D02*
X134209523Y-79154819D01*
X134209523Y-79154819D02*
X134209523Y-78154819D01*
X134638095Y-78250057D02*
X134685714Y-78202438D01*
X134685714Y-78202438D02*
X134780952Y-78154819D01*
X134780952Y-78154819D02*
X135019047Y-78154819D01*
X135019047Y-78154819D02*
X135114285Y-78202438D01*
X135114285Y-78202438D02*
X135161904Y-78250057D01*
X135161904Y-78250057D02*
X135209523Y-78345295D01*
X135209523Y-78345295D02*
X135209523Y-78440533D01*
X135209523Y-78440533D02*
X135161904Y-78583390D01*
X135161904Y-78583390D02*
X134590476Y-79154819D01*
X134590476Y-79154819D02*
X135209523Y-79154819D01*
X169557142Y-101359580D02*
X169509523Y-101407200D01*
X169509523Y-101407200D02*
X169366666Y-101454819D01*
X169366666Y-101454819D02*
X169271428Y-101454819D01*
X169271428Y-101454819D02*
X169128571Y-101407200D01*
X169128571Y-101407200D02*
X169033333Y-101311961D01*
X169033333Y-101311961D02*
X168985714Y-101216723D01*
X168985714Y-101216723D02*
X168938095Y-101026247D01*
X168938095Y-101026247D02*
X168938095Y-100883390D01*
X168938095Y-100883390D02*
X168985714Y-100692914D01*
X168985714Y-100692914D02*
X169033333Y-100597676D01*
X169033333Y-100597676D02*
X169128571Y-100502438D01*
X169128571Y-100502438D02*
X169271428Y-100454819D01*
X169271428Y-100454819D02*
X169366666Y-100454819D01*
X169366666Y-100454819D02*
X169509523Y-100502438D01*
X169509523Y-100502438D02*
X169557142Y-100550057D01*
X170509523Y-101454819D02*
X169938095Y-101454819D01*
X170223809Y-101454819D02*
X170223809Y-100454819D01*
X170223809Y-100454819D02*
X170128571Y-100597676D01*
X170128571Y-100597676D02*
X170033333Y-100692914D01*
X170033333Y-100692914D02*
X169938095Y-100740533D01*
X170890476Y-100550057D02*
X170938095Y-100502438D01*
X170938095Y-100502438D02*
X171033333Y-100454819D01*
X171033333Y-100454819D02*
X171271428Y-100454819D01*
X171271428Y-100454819D02*
X171366666Y-100502438D01*
X171366666Y-100502438D02*
X171414285Y-100550057D01*
X171414285Y-100550057D02*
X171461904Y-100645295D01*
X171461904Y-100645295D02*
X171461904Y-100740533D01*
X171461904Y-100740533D02*
X171414285Y-100883390D01*
X171414285Y-100883390D02*
X170842857Y-101454819D01*
X170842857Y-101454819D02*
X171461904Y-101454819D01*
X188179580Y-104282857D02*
X188227200Y-104330476D01*
X188227200Y-104330476D02*
X188274819Y-104473333D01*
X188274819Y-104473333D02*
X188274819Y-104568571D01*
X188274819Y-104568571D02*
X188227200Y-104711428D01*
X188227200Y-104711428D02*
X188131961Y-104806666D01*
X188131961Y-104806666D02*
X188036723Y-104854285D01*
X188036723Y-104854285D02*
X187846247Y-104901904D01*
X187846247Y-104901904D02*
X187703390Y-104901904D01*
X187703390Y-104901904D02*
X187512914Y-104854285D01*
X187512914Y-104854285D02*
X187417676Y-104806666D01*
X187417676Y-104806666D02*
X187322438Y-104711428D01*
X187322438Y-104711428D02*
X187274819Y-104568571D01*
X187274819Y-104568571D02*
X187274819Y-104473333D01*
X187274819Y-104473333D02*
X187322438Y-104330476D01*
X187322438Y-104330476D02*
X187370057Y-104282857D01*
X188274819Y-103330476D02*
X188274819Y-103901904D01*
X188274819Y-103616190D02*
X187274819Y-103616190D01*
X187274819Y-103616190D02*
X187417676Y-103711428D01*
X187417676Y-103711428D02*
X187512914Y-103806666D01*
X187512914Y-103806666D02*
X187560533Y-103901904D01*
X187274819Y-102711428D02*
X187274819Y-102616190D01*
X187274819Y-102616190D02*
X187322438Y-102520952D01*
X187322438Y-102520952D02*
X187370057Y-102473333D01*
X187370057Y-102473333D02*
X187465295Y-102425714D01*
X187465295Y-102425714D02*
X187655771Y-102378095D01*
X187655771Y-102378095D02*
X187893866Y-102378095D01*
X187893866Y-102378095D02*
X188084342Y-102425714D01*
X188084342Y-102425714D02*
X188179580Y-102473333D01*
X188179580Y-102473333D02*
X188227200Y-102520952D01*
X188227200Y-102520952D02*
X188274819Y-102616190D01*
X188274819Y-102616190D02*
X188274819Y-102711428D01*
X188274819Y-102711428D02*
X188227200Y-102806666D01*
X188227200Y-102806666D02*
X188179580Y-102854285D01*
X188179580Y-102854285D02*
X188084342Y-102901904D01*
X188084342Y-102901904D02*
X187893866Y-102949523D01*
X187893866Y-102949523D02*
X187655771Y-102949523D01*
X187655771Y-102949523D02*
X187465295Y-102901904D01*
X187465295Y-102901904D02*
X187370057Y-102854285D01*
X187370057Y-102854285D02*
X187322438Y-102806666D01*
X187322438Y-102806666D02*
X187274819Y-102711428D01*
X94497200Y-64533332D02*
X94544819Y-64390475D01*
X94544819Y-64390475D02*
X94544819Y-64152380D01*
X94544819Y-64152380D02*
X94497200Y-64057142D01*
X94497200Y-64057142D02*
X94449580Y-64009523D01*
X94449580Y-64009523D02*
X94354342Y-63961904D01*
X94354342Y-63961904D02*
X94259104Y-63961904D01*
X94259104Y-63961904D02*
X94163866Y-64009523D01*
X94163866Y-64009523D02*
X94116247Y-64057142D01*
X94116247Y-64057142D02*
X94068628Y-64152380D01*
X94068628Y-64152380D02*
X94021009Y-64342856D01*
X94021009Y-64342856D02*
X93973390Y-64438094D01*
X93973390Y-64438094D02*
X93925771Y-64485713D01*
X93925771Y-64485713D02*
X93830533Y-64533332D01*
X93830533Y-64533332D02*
X93735295Y-64533332D01*
X93735295Y-64533332D02*
X93640057Y-64485713D01*
X93640057Y-64485713D02*
X93592438Y-64438094D01*
X93592438Y-64438094D02*
X93544819Y-64342856D01*
X93544819Y-64342856D02*
X93544819Y-64104761D01*
X93544819Y-64104761D02*
X93592438Y-63961904D01*
X93544819Y-63628570D02*
X94544819Y-63390475D01*
X94544819Y-63390475D02*
X93830533Y-63199999D01*
X93830533Y-63199999D02*
X94544819Y-63009523D01*
X94544819Y-63009523D02*
X93544819Y-62771428D01*
X94544819Y-61866666D02*
X94544819Y-62438094D01*
X94544819Y-62152380D02*
X93544819Y-62152380D01*
X93544819Y-62152380D02*
X93687676Y-62247618D01*
X93687676Y-62247618D02*
X93782914Y-62342856D01*
X93782914Y-62342856D02*
X93830533Y-62438094D01*
X105994819Y-77168094D02*
X104994819Y-77168094D01*
X104994819Y-77168094D02*
X104994819Y-76929999D01*
X104994819Y-76929999D02*
X105042438Y-76787142D01*
X105042438Y-76787142D02*
X105137676Y-76691904D01*
X105137676Y-76691904D02*
X105232914Y-76644285D01*
X105232914Y-76644285D02*
X105423390Y-76596666D01*
X105423390Y-76596666D02*
X105566247Y-76596666D01*
X105566247Y-76596666D02*
X105756723Y-76644285D01*
X105756723Y-76644285D02*
X105851961Y-76691904D01*
X105851961Y-76691904D02*
X105947200Y-76787142D01*
X105947200Y-76787142D02*
X105994819Y-76929999D01*
X105994819Y-76929999D02*
X105994819Y-77168094D01*
X105090057Y-76215713D02*
X105042438Y-76168094D01*
X105042438Y-76168094D02*
X104994819Y-76072856D01*
X104994819Y-76072856D02*
X104994819Y-75834761D01*
X104994819Y-75834761D02*
X105042438Y-75739523D01*
X105042438Y-75739523D02*
X105090057Y-75691904D01*
X105090057Y-75691904D02*
X105185295Y-75644285D01*
X105185295Y-75644285D02*
X105280533Y-75644285D01*
X105280533Y-75644285D02*
X105423390Y-75691904D01*
X105423390Y-75691904D02*
X105994819Y-76263332D01*
X105994819Y-76263332D02*
X105994819Y-75644285D01*
X149533333Y-103559580D02*
X149485714Y-103607200D01*
X149485714Y-103607200D02*
X149342857Y-103654819D01*
X149342857Y-103654819D02*
X149247619Y-103654819D01*
X149247619Y-103654819D02*
X149104762Y-103607200D01*
X149104762Y-103607200D02*
X149009524Y-103511961D01*
X149009524Y-103511961D02*
X148961905Y-103416723D01*
X148961905Y-103416723D02*
X148914286Y-103226247D01*
X148914286Y-103226247D02*
X148914286Y-103083390D01*
X148914286Y-103083390D02*
X148961905Y-102892914D01*
X148961905Y-102892914D02*
X149009524Y-102797676D01*
X149009524Y-102797676D02*
X149104762Y-102702438D01*
X149104762Y-102702438D02*
X149247619Y-102654819D01*
X149247619Y-102654819D02*
X149342857Y-102654819D01*
X149342857Y-102654819D02*
X149485714Y-102702438D01*
X149485714Y-102702438D02*
X149533333Y-102750057D01*
X150485714Y-103654819D02*
X149914286Y-103654819D01*
X150200000Y-103654819D02*
X150200000Y-102654819D01*
X150200000Y-102654819D02*
X150104762Y-102797676D01*
X150104762Y-102797676D02*
X150009524Y-102892914D01*
X150009524Y-102892914D02*
X149914286Y-102940533D01*
X189551666Y-62064819D02*
X189551666Y-62779104D01*
X189551666Y-62779104D02*
X189504047Y-62921961D01*
X189504047Y-62921961D02*
X189408809Y-63017200D01*
X189408809Y-63017200D02*
X189265952Y-63064819D01*
X189265952Y-63064819D02*
X189170714Y-63064819D01*
X189932619Y-62064819D02*
X190551666Y-62064819D01*
X190551666Y-62064819D02*
X190218333Y-62445771D01*
X190218333Y-62445771D02*
X190361190Y-62445771D01*
X190361190Y-62445771D02*
X190456428Y-62493390D01*
X190456428Y-62493390D02*
X190504047Y-62541009D01*
X190504047Y-62541009D02*
X190551666Y-62636247D01*
X190551666Y-62636247D02*
X190551666Y-62874342D01*
X190551666Y-62874342D02*
X190504047Y-62969580D01*
X190504047Y-62969580D02*
X190456428Y-63017200D01*
X190456428Y-63017200D02*
X190361190Y-63064819D01*
X190361190Y-63064819D02*
X190075476Y-63064819D01*
X190075476Y-63064819D02*
X189980238Y-63017200D01*
X189980238Y-63017200D02*
X189932619Y-62969580D01*
X183478628Y-111486190D02*
X183954819Y-111486190D01*
X182954819Y-111819523D02*
X183478628Y-111486190D01*
X183478628Y-111486190D02*
X182954819Y-111152857D01*
X183050057Y-110867142D02*
X183002438Y-110819523D01*
X183002438Y-110819523D02*
X182954819Y-110724285D01*
X182954819Y-110724285D02*
X182954819Y-110486190D01*
X182954819Y-110486190D02*
X183002438Y-110390952D01*
X183002438Y-110390952D02*
X183050057Y-110343333D01*
X183050057Y-110343333D02*
X183145295Y-110295714D01*
X183145295Y-110295714D02*
X183240533Y-110295714D01*
X183240533Y-110295714D02*
X183383390Y-110343333D01*
X183383390Y-110343333D02*
X183954819Y-110914761D01*
X183954819Y-110914761D02*
X183954819Y-110295714D01*
X155848095Y-103479819D02*
X155848095Y-104289342D01*
X155848095Y-104289342D02*
X155895714Y-104384580D01*
X155895714Y-104384580D02*
X155943333Y-104432200D01*
X155943333Y-104432200D02*
X156038571Y-104479819D01*
X156038571Y-104479819D02*
X156229047Y-104479819D01*
X156229047Y-104479819D02*
X156324285Y-104432200D01*
X156324285Y-104432200D02*
X156371904Y-104384580D01*
X156371904Y-104384580D02*
X156419523Y-104289342D01*
X156419523Y-104289342D02*
X156419523Y-103479819D01*
X156848095Y-103575057D02*
X156895714Y-103527438D01*
X156895714Y-103527438D02*
X156990952Y-103479819D01*
X156990952Y-103479819D02*
X157229047Y-103479819D01*
X157229047Y-103479819D02*
X157324285Y-103527438D01*
X157324285Y-103527438D02*
X157371904Y-103575057D01*
X157371904Y-103575057D02*
X157419523Y-103670295D01*
X157419523Y-103670295D02*
X157419523Y-103765533D01*
X157419523Y-103765533D02*
X157371904Y-103908390D01*
X157371904Y-103908390D02*
X156800476Y-104479819D01*
X156800476Y-104479819D02*
X157419523Y-104479819D01*
X151309523Y-99854819D02*
X150976190Y-99378628D01*
X150738095Y-99854819D02*
X150738095Y-98854819D01*
X150738095Y-98854819D02*
X151119047Y-98854819D01*
X151119047Y-98854819D02*
X151214285Y-98902438D01*
X151214285Y-98902438D02*
X151261904Y-98950057D01*
X151261904Y-98950057D02*
X151309523Y-99045295D01*
X151309523Y-99045295D02*
X151309523Y-99188152D01*
X151309523Y-99188152D02*
X151261904Y-99283390D01*
X151261904Y-99283390D02*
X151214285Y-99331009D01*
X151214285Y-99331009D02*
X151119047Y-99378628D01*
X151119047Y-99378628D02*
X150738095Y-99378628D01*
X151738095Y-99854819D02*
X151738095Y-98854819D01*
X151738095Y-98854819D02*
X152309523Y-99854819D01*
X152309523Y-99854819D02*
X152309523Y-98854819D01*
X153309523Y-99854819D02*
X152738095Y-99854819D01*
X153023809Y-99854819D02*
X153023809Y-98854819D01*
X153023809Y-98854819D02*
X152928571Y-98997676D01*
X152928571Y-98997676D02*
X152833333Y-99092914D01*
X152833333Y-99092914D02*
X152738095Y-99140533D01*
X166338095Y-101054819D02*
X166338095Y-101864342D01*
X166338095Y-101864342D02*
X166385714Y-101959580D01*
X166385714Y-101959580D02*
X166433333Y-102007200D01*
X166433333Y-102007200D02*
X166528571Y-102054819D01*
X166528571Y-102054819D02*
X166719047Y-102054819D01*
X166719047Y-102054819D02*
X166814285Y-102007200D01*
X166814285Y-102007200D02*
X166861904Y-101959580D01*
X166861904Y-101959580D02*
X166909523Y-101864342D01*
X166909523Y-101864342D02*
X166909523Y-101054819D01*
X167814285Y-101054819D02*
X167623809Y-101054819D01*
X167623809Y-101054819D02*
X167528571Y-101102438D01*
X167528571Y-101102438D02*
X167480952Y-101150057D01*
X167480952Y-101150057D02*
X167385714Y-101292914D01*
X167385714Y-101292914D02*
X167338095Y-101483390D01*
X167338095Y-101483390D02*
X167338095Y-101864342D01*
X167338095Y-101864342D02*
X167385714Y-101959580D01*
X167385714Y-101959580D02*
X167433333Y-102007200D01*
X167433333Y-102007200D02*
X167528571Y-102054819D01*
X167528571Y-102054819D02*
X167719047Y-102054819D01*
X167719047Y-102054819D02*
X167814285Y-102007200D01*
X167814285Y-102007200D02*
X167861904Y-101959580D01*
X167861904Y-101959580D02*
X167909523Y-101864342D01*
X167909523Y-101864342D02*
X167909523Y-101626247D01*
X167909523Y-101626247D02*
X167861904Y-101531009D01*
X167861904Y-101531009D02*
X167814285Y-101483390D01*
X167814285Y-101483390D02*
X167719047Y-101435771D01*
X167719047Y-101435771D02*
X167528571Y-101435771D01*
X167528571Y-101435771D02*
X167433333Y-101483390D01*
X167433333Y-101483390D02*
X167385714Y-101531009D01*
X167385714Y-101531009D02*
X167338095Y-101626247D01*
X131854819Y-119201904D02*
X132664342Y-119201904D01*
X132664342Y-119201904D02*
X132759580Y-119154285D01*
X132759580Y-119154285D02*
X132807200Y-119106666D01*
X132807200Y-119106666D02*
X132854819Y-119011428D01*
X132854819Y-119011428D02*
X132854819Y-118820952D01*
X132854819Y-118820952D02*
X132807200Y-118725714D01*
X132807200Y-118725714D02*
X132759580Y-118678095D01*
X132759580Y-118678095D02*
X132664342Y-118630476D01*
X132664342Y-118630476D02*
X131854819Y-118630476D01*
X131854819Y-117678095D02*
X131854819Y-118154285D01*
X131854819Y-118154285D02*
X132331009Y-118201904D01*
X132331009Y-118201904D02*
X132283390Y-118154285D01*
X132283390Y-118154285D02*
X132235771Y-118059047D01*
X132235771Y-118059047D02*
X132235771Y-117820952D01*
X132235771Y-117820952D02*
X132283390Y-117725714D01*
X132283390Y-117725714D02*
X132331009Y-117678095D01*
X132331009Y-117678095D02*
X132426247Y-117630476D01*
X132426247Y-117630476D02*
X132664342Y-117630476D01*
X132664342Y-117630476D02*
X132759580Y-117678095D01*
X132759580Y-117678095D02*
X132807200Y-117725714D01*
X132807200Y-117725714D02*
X132854819Y-117820952D01*
X132854819Y-117820952D02*
X132854819Y-118059047D01*
X132854819Y-118059047D02*
X132807200Y-118154285D01*
X132807200Y-118154285D02*
X132759580Y-118201904D01*
X105754819Y-85766666D02*
X105278628Y-86099999D01*
X105754819Y-86338094D02*
X104754819Y-86338094D01*
X104754819Y-86338094D02*
X104754819Y-85957142D01*
X104754819Y-85957142D02*
X104802438Y-85861904D01*
X104802438Y-85861904D02*
X104850057Y-85814285D01*
X104850057Y-85814285D02*
X104945295Y-85766666D01*
X104945295Y-85766666D02*
X105088152Y-85766666D01*
X105088152Y-85766666D02*
X105183390Y-85814285D01*
X105183390Y-85814285D02*
X105231009Y-85861904D01*
X105231009Y-85861904D02*
X105278628Y-85957142D01*
X105278628Y-85957142D02*
X105278628Y-86338094D01*
X105754819Y-84814285D02*
X105754819Y-85385713D01*
X105754819Y-85099999D02*
X104754819Y-85099999D01*
X104754819Y-85099999D02*
X104897676Y-85195237D01*
X104897676Y-85195237D02*
X104992914Y-85290475D01*
X104992914Y-85290475D02*
X105040533Y-85385713D01*
X149294819Y-90381904D02*
X150104342Y-90381904D01*
X150104342Y-90381904D02*
X150199580Y-90334285D01*
X150199580Y-90334285D02*
X150247200Y-90286666D01*
X150247200Y-90286666D02*
X150294819Y-90191428D01*
X150294819Y-90191428D02*
X150294819Y-90000952D01*
X150294819Y-90000952D02*
X150247200Y-89905714D01*
X150247200Y-89905714D02*
X150199580Y-89858095D01*
X150199580Y-89858095D02*
X150104342Y-89810476D01*
X150104342Y-89810476D02*
X149294819Y-89810476D01*
X149294819Y-89429523D02*
X149294819Y-88762857D01*
X149294819Y-88762857D02*
X150294819Y-89191428D01*
X93716666Y-75904819D02*
X93716666Y-76619104D01*
X93716666Y-76619104D02*
X93669047Y-76761961D01*
X93669047Y-76761961D02*
X93573809Y-76857200D01*
X93573809Y-76857200D02*
X93430952Y-76904819D01*
X93430952Y-76904819D02*
X93335714Y-76904819D01*
X94716666Y-76904819D02*
X94145238Y-76904819D01*
X94430952Y-76904819D02*
X94430952Y-75904819D01*
X94430952Y-75904819D02*
X94335714Y-76047676D01*
X94335714Y-76047676D02*
X94240476Y-76142914D01*
X94240476Y-76142914D02*
X94145238Y-76190533D01*
X103378233Y-53109580D02*
X103330614Y-53157200D01*
X103330614Y-53157200D02*
X103187757Y-53204819D01*
X103187757Y-53204819D02*
X103092519Y-53204819D01*
X103092519Y-53204819D02*
X102949662Y-53157200D01*
X102949662Y-53157200D02*
X102854424Y-53061961D01*
X102854424Y-53061961D02*
X102806805Y-52966723D01*
X102806805Y-52966723D02*
X102759186Y-52776247D01*
X102759186Y-52776247D02*
X102759186Y-52633390D01*
X102759186Y-52633390D02*
X102806805Y-52442914D01*
X102806805Y-52442914D02*
X102854424Y-52347676D01*
X102854424Y-52347676D02*
X102949662Y-52252438D01*
X102949662Y-52252438D02*
X103092519Y-52204819D01*
X103092519Y-52204819D02*
X103187757Y-52204819D01*
X103187757Y-52204819D02*
X103330614Y-52252438D01*
X103330614Y-52252438D02*
X103378233Y-52300057D01*
X104282995Y-52204819D02*
X103806805Y-52204819D01*
X103806805Y-52204819D02*
X103759186Y-52681009D01*
X103759186Y-52681009D02*
X103806805Y-52633390D01*
X103806805Y-52633390D02*
X103902043Y-52585771D01*
X103902043Y-52585771D02*
X104140138Y-52585771D01*
X104140138Y-52585771D02*
X104235376Y-52633390D01*
X104235376Y-52633390D02*
X104282995Y-52681009D01*
X104282995Y-52681009D02*
X104330614Y-52776247D01*
X104330614Y-52776247D02*
X104330614Y-53014342D01*
X104330614Y-53014342D02*
X104282995Y-53109580D01*
X104282995Y-53109580D02*
X104235376Y-53157200D01*
X104235376Y-53157200D02*
X104140138Y-53204819D01*
X104140138Y-53204819D02*
X103902043Y-53204819D01*
X103902043Y-53204819D02*
X103806805Y-53157200D01*
X103806805Y-53157200D02*
X103759186Y-53109580D01*
X159284819Y-93733333D02*
X159999104Y-93733333D01*
X159999104Y-93733333D02*
X160141961Y-93780952D01*
X160141961Y-93780952D02*
X160237200Y-93876190D01*
X160237200Y-93876190D02*
X160284819Y-94019047D01*
X160284819Y-94019047D02*
X160284819Y-94114285D01*
X160284819Y-93257142D02*
X159284819Y-93257142D01*
X159284819Y-93257142D02*
X159284819Y-92876190D01*
X159284819Y-92876190D02*
X159332438Y-92780952D01*
X159332438Y-92780952D02*
X159380057Y-92733333D01*
X159380057Y-92733333D02*
X159475295Y-92685714D01*
X159475295Y-92685714D02*
X159618152Y-92685714D01*
X159618152Y-92685714D02*
X159713390Y-92733333D01*
X159713390Y-92733333D02*
X159761009Y-92780952D01*
X159761009Y-92780952D02*
X159808628Y-92876190D01*
X159808628Y-92876190D02*
X159808628Y-93257142D01*
X159284819Y-92352380D02*
X159284819Y-91685714D01*
X159284819Y-91685714D02*
X160284819Y-92114285D01*
X109954819Y-86438094D02*
X108954819Y-86438094D01*
X108954819Y-86438094D02*
X108954819Y-86199999D01*
X108954819Y-86199999D02*
X109002438Y-86057142D01*
X109002438Y-86057142D02*
X109097676Y-85961904D01*
X109097676Y-85961904D02*
X109192914Y-85914285D01*
X109192914Y-85914285D02*
X109383390Y-85866666D01*
X109383390Y-85866666D02*
X109526247Y-85866666D01*
X109526247Y-85866666D02*
X109716723Y-85914285D01*
X109716723Y-85914285D02*
X109811961Y-85961904D01*
X109811961Y-85961904D02*
X109907200Y-86057142D01*
X109907200Y-86057142D02*
X109954819Y-86199999D01*
X109954819Y-86199999D02*
X109954819Y-86438094D01*
X109954819Y-84914285D02*
X109954819Y-85485713D01*
X109954819Y-85199999D02*
X108954819Y-85199999D01*
X108954819Y-85199999D02*
X109097676Y-85295237D01*
X109097676Y-85295237D02*
X109192914Y-85390475D01*
X109192914Y-85390475D02*
X109240533Y-85485713D01*
X111854819Y-80881904D02*
X110854819Y-80881904D01*
X111854819Y-80310476D02*
X111283390Y-80739047D01*
X110854819Y-80310476D02*
X111426247Y-80881904D01*
X109054819Y-67166666D02*
X108578628Y-67499999D01*
X109054819Y-67738094D02*
X108054819Y-67738094D01*
X108054819Y-67738094D02*
X108054819Y-67357142D01*
X108054819Y-67357142D02*
X108102438Y-67261904D01*
X108102438Y-67261904D02*
X108150057Y-67214285D01*
X108150057Y-67214285D02*
X108245295Y-67166666D01*
X108245295Y-67166666D02*
X108388152Y-67166666D01*
X108388152Y-67166666D02*
X108483390Y-67214285D01*
X108483390Y-67214285D02*
X108531009Y-67261904D01*
X108531009Y-67261904D02*
X108578628Y-67357142D01*
X108578628Y-67357142D02*
X108578628Y-67738094D01*
X108054819Y-66833332D02*
X108054819Y-66214285D01*
X108054819Y-66214285D02*
X108435771Y-66547618D01*
X108435771Y-66547618D02*
X108435771Y-66404761D01*
X108435771Y-66404761D02*
X108483390Y-66309523D01*
X108483390Y-66309523D02*
X108531009Y-66261904D01*
X108531009Y-66261904D02*
X108626247Y-66214285D01*
X108626247Y-66214285D02*
X108864342Y-66214285D01*
X108864342Y-66214285D02*
X108959580Y-66261904D01*
X108959580Y-66261904D02*
X109007200Y-66309523D01*
X109007200Y-66309523D02*
X109054819Y-66404761D01*
X109054819Y-66404761D02*
X109054819Y-66690475D01*
X109054819Y-66690475D02*
X109007200Y-66785713D01*
X109007200Y-66785713D02*
X108959580Y-66833332D01*
X134238095Y-100954819D02*
X134238095Y-101764342D01*
X134238095Y-101764342D02*
X134285714Y-101859580D01*
X134285714Y-101859580D02*
X134333333Y-101907200D01*
X134333333Y-101907200D02*
X134428571Y-101954819D01*
X134428571Y-101954819D02*
X134619047Y-101954819D01*
X134619047Y-101954819D02*
X134714285Y-101907200D01*
X134714285Y-101907200D02*
X134761904Y-101859580D01*
X134761904Y-101859580D02*
X134809523Y-101764342D01*
X134809523Y-101764342D02*
X134809523Y-100954819D01*
X135714285Y-101288152D02*
X135714285Y-101954819D01*
X135476190Y-100907200D02*
X135238095Y-101621485D01*
X135238095Y-101621485D02*
X135857142Y-101621485D01*
X165054819Y-60761904D02*
X165864342Y-60761904D01*
X165864342Y-60761904D02*
X165959580Y-60714285D01*
X165959580Y-60714285D02*
X166007200Y-60666666D01*
X166007200Y-60666666D02*
X166054819Y-60571428D01*
X166054819Y-60571428D02*
X166054819Y-60380952D01*
X166054819Y-60380952D02*
X166007200Y-60285714D01*
X166007200Y-60285714D02*
X165959580Y-60238095D01*
X165959580Y-60238095D02*
X165864342Y-60190476D01*
X165864342Y-60190476D02*
X165054819Y-60190476D01*
X165054819Y-59809523D02*
X165054819Y-59190476D01*
X165054819Y-59190476D02*
X165435771Y-59523809D01*
X165435771Y-59523809D02*
X165435771Y-59380952D01*
X165435771Y-59380952D02*
X165483390Y-59285714D01*
X165483390Y-59285714D02*
X165531009Y-59238095D01*
X165531009Y-59238095D02*
X165626247Y-59190476D01*
X165626247Y-59190476D02*
X165864342Y-59190476D01*
X165864342Y-59190476D02*
X165959580Y-59238095D01*
X165959580Y-59238095D02*
X166007200Y-59285714D01*
X166007200Y-59285714D02*
X166054819Y-59380952D01*
X166054819Y-59380952D02*
X166054819Y-59666666D01*
X166054819Y-59666666D02*
X166007200Y-59761904D01*
X166007200Y-59761904D02*
X165959580Y-59809523D01*
X101509580Y-89816666D02*
X101557200Y-89864285D01*
X101557200Y-89864285D02*
X101604819Y-90007142D01*
X101604819Y-90007142D02*
X101604819Y-90102380D01*
X101604819Y-90102380D02*
X101557200Y-90245237D01*
X101557200Y-90245237D02*
X101461961Y-90340475D01*
X101461961Y-90340475D02*
X101366723Y-90388094D01*
X101366723Y-90388094D02*
X101176247Y-90435713D01*
X101176247Y-90435713D02*
X101033390Y-90435713D01*
X101033390Y-90435713D02*
X100842914Y-90388094D01*
X100842914Y-90388094D02*
X100747676Y-90340475D01*
X100747676Y-90340475D02*
X100652438Y-90245237D01*
X100652438Y-90245237D02*
X100604819Y-90102380D01*
X100604819Y-90102380D02*
X100604819Y-90007142D01*
X100604819Y-90007142D02*
X100652438Y-89864285D01*
X100652438Y-89864285D02*
X100700057Y-89816666D01*
X100604819Y-89483332D02*
X100604819Y-88864285D01*
X100604819Y-88864285D02*
X100985771Y-89197618D01*
X100985771Y-89197618D02*
X100985771Y-89054761D01*
X100985771Y-89054761D02*
X101033390Y-88959523D01*
X101033390Y-88959523D02*
X101081009Y-88911904D01*
X101081009Y-88911904D02*
X101176247Y-88864285D01*
X101176247Y-88864285D02*
X101414342Y-88864285D01*
X101414342Y-88864285D02*
X101509580Y-88911904D01*
X101509580Y-88911904D02*
X101557200Y-88959523D01*
X101557200Y-88959523D02*
X101604819Y-89054761D01*
X101604819Y-89054761D02*
X101604819Y-89340475D01*
X101604819Y-89340475D02*
X101557200Y-89435713D01*
X101557200Y-89435713D02*
X101509580Y-89483332D01*
X145038095Y-103524819D02*
X145038095Y-104334342D01*
X145038095Y-104334342D02*
X145085714Y-104429580D01*
X145085714Y-104429580D02*
X145133333Y-104477200D01*
X145133333Y-104477200D02*
X145228571Y-104524819D01*
X145228571Y-104524819D02*
X145419047Y-104524819D01*
X145419047Y-104524819D02*
X145514285Y-104477200D01*
X145514285Y-104477200D02*
X145561904Y-104429580D01*
X145561904Y-104429580D02*
X145609523Y-104334342D01*
X145609523Y-104334342D02*
X145609523Y-103524819D01*
X146609523Y-104524819D02*
X146038095Y-104524819D01*
X146323809Y-104524819D02*
X146323809Y-103524819D01*
X146323809Y-103524819D02*
X146228571Y-103667676D01*
X146228571Y-103667676D02*
X146133333Y-103762914D01*
X146133333Y-103762914D02*
X146038095Y-103810533D01*
X161633333Y-87959580D02*
X161585714Y-88007200D01*
X161585714Y-88007200D02*
X161442857Y-88054819D01*
X161442857Y-88054819D02*
X161347619Y-88054819D01*
X161347619Y-88054819D02*
X161204762Y-88007200D01*
X161204762Y-88007200D02*
X161109524Y-87911961D01*
X161109524Y-87911961D02*
X161061905Y-87816723D01*
X161061905Y-87816723D02*
X161014286Y-87626247D01*
X161014286Y-87626247D02*
X161014286Y-87483390D01*
X161014286Y-87483390D02*
X161061905Y-87292914D01*
X161061905Y-87292914D02*
X161109524Y-87197676D01*
X161109524Y-87197676D02*
X161204762Y-87102438D01*
X161204762Y-87102438D02*
X161347619Y-87054819D01*
X161347619Y-87054819D02*
X161442857Y-87054819D01*
X161442857Y-87054819D02*
X161585714Y-87102438D01*
X161585714Y-87102438D02*
X161633333Y-87150057D01*
X162490476Y-87054819D02*
X162300000Y-87054819D01*
X162300000Y-87054819D02*
X162204762Y-87102438D01*
X162204762Y-87102438D02*
X162157143Y-87150057D01*
X162157143Y-87150057D02*
X162061905Y-87292914D01*
X162061905Y-87292914D02*
X162014286Y-87483390D01*
X162014286Y-87483390D02*
X162014286Y-87864342D01*
X162014286Y-87864342D02*
X162061905Y-87959580D01*
X162061905Y-87959580D02*
X162109524Y-88007200D01*
X162109524Y-88007200D02*
X162204762Y-88054819D01*
X162204762Y-88054819D02*
X162395238Y-88054819D01*
X162395238Y-88054819D02*
X162490476Y-88007200D01*
X162490476Y-88007200D02*
X162538095Y-87959580D01*
X162538095Y-87959580D02*
X162585714Y-87864342D01*
X162585714Y-87864342D02*
X162585714Y-87626247D01*
X162585714Y-87626247D02*
X162538095Y-87531009D01*
X162538095Y-87531009D02*
X162490476Y-87483390D01*
X162490476Y-87483390D02*
X162395238Y-87435771D01*
X162395238Y-87435771D02*
X162204762Y-87435771D01*
X162204762Y-87435771D02*
X162109524Y-87483390D01*
X162109524Y-87483390D02*
X162061905Y-87531009D01*
X162061905Y-87531009D02*
X162014286Y-87626247D01*
D13*
X140380000Y-99745000D02*
X140380000Y-99680000D01*
X140380000Y-101920000D02*
X140380000Y-101855000D01*
X143620000Y-99680000D02*
X140380000Y-99680000D01*
X143620000Y-99745000D02*
X143620000Y-99680000D01*
X143620000Y-101920000D02*
X140380000Y-101920000D01*
X143620000Y-101920000D02*
X143620000Y-101855000D01*
X162280000Y-102245000D02*
X162280000Y-102180000D01*
X162280000Y-104420000D02*
X162280000Y-104355000D01*
X165520000Y-102180000D02*
X162280000Y-102180000D01*
X165520000Y-102245000D02*
X165520000Y-102180000D01*
X165520000Y-104420000D02*
X162280000Y-104420000D01*
X165520000Y-104420000D02*
X165520000Y-104355000D01*
X167420000Y-62930000D02*
X167420000Y-93530000D01*
X167420000Y-93530000D02*
X180340000Y-93530000D01*
X172880000Y-62930000D02*
X167420000Y-62930000D01*
X180340000Y-62930000D02*
X174880000Y-62930000D01*
X180340000Y-93530000D02*
X180340000Y-62930000D01*
X164930000Y-62870000D02*
X182830000Y-62870000D01*
X182830000Y-93590000D01*
X164930000Y-93590000D01*
X164930000Y-62870000D01*
X174880000Y-62930000D02*
G75*
G02*
X172880000Y-62930000I-1000000J0D01*
G01*
X152880000Y-84245000D02*
X152880000Y-84180000D01*
X152880000Y-86420000D02*
X152880000Y-86355000D01*
X156120000Y-84180000D02*
X152880000Y-84180000D01*
X156120000Y-84245000D02*
X156120000Y-84180000D01*
X156120000Y-86420000D02*
X152880000Y-86420000D01*
X156120000Y-86420000D02*
X156120000Y-86355000D01*
X124380000Y-106380000D02*
X124445000Y-106380000D01*
X124380000Y-109620000D02*
X124380000Y-106380000D01*
X124380000Y-109620000D02*
X124445000Y-109620000D01*
X126555000Y-106380000D02*
X126620000Y-106380000D01*
X126555000Y-109620000D02*
X126620000Y-109620000D01*
X126620000Y-109620000D02*
X126620000Y-106380000D01*
X143880000Y-67680000D02*
X143880000Y-70920000D01*
X143945000Y-67680000D02*
X143880000Y-67680000D01*
X143945000Y-70920000D02*
X143880000Y-70920000D01*
X146120000Y-67680000D02*
X146055000Y-67680000D01*
X146120000Y-67680000D02*
X146120000Y-70920000D01*
X146120000Y-70920000D02*
X146055000Y-70920000D01*
X178830000Y-107140000D02*
X178830000Y-107910000D01*
X180200000Y-107910000D02*
X177460000Y-107910000D01*
X177460000Y-107910000D02*
X177460000Y-114450000D01*
X180200000Y-114450000D02*
X180200000Y-107910000D01*
X177460000Y-114450000D02*
X180200000Y-114450000D01*
X178830000Y-115220000D02*
X178830000Y-114450000D01*
X165880000Y-94280000D02*
X165880000Y-94345000D01*
X165880000Y-94280000D02*
X169120000Y-94280000D01*
X165880000Y-96455000D02*
X165880000Y-96520000D01*
X165880000Y-96520000D02*
X169120000Y-96520000D01*
X169120000Y-94280000D02*
X169120000Y-94345000D01*
X169120000Y-96455000D02*
X169120000Y-96520000D01*
X114530000Y-50200000D02*
X114530000Y-52860000D01*
X114530000Y-52860000D02*
X165450000Y-52860000D01*
X114590000Y-58110000D02*
X114590000Y-56840000D01*
X115480000Y-44200000D02*
X116240000Y-44200000D01*
X115480000Y-50200000D02*
X115480000Y-44200000D01*
X115480000Y-53257071D02*
X115480000Y-52860000D01*
X115480000Y-55730000D02*
X115480000Y-55342929D01*
X115540000Y-50200000D02*
X115540000Y-44200000D01*
X115660000Y-50200000D02*
X115660000Y-44200000D01*
X115780000Y-50200000D02*
X115780000Y-44200000D01*
X115860000Y-58110000D02*
X114590000Y-58110000D01*
X115900000Y-50200000D02*
X115900000Y-44200000D01*
X116020000Y-50200000D02*
X116020000Y-44200000D01*
X116140000Y-50200000D02*
X116140000Y-44200000D01*
X116240000Y-44200000D02*
X116240000Y-50200000D01*
X116240000Y-53257071D02*
X116240000Y-52860000D01*
X116240000Y-55730000D02*
X116240000Y-55342929D01*
X117130000Y-52860000D02*
X117130000Y-50200000D01*
X118020000Y-44200000D02*
X118780000Y-44200000D01*
X118020000Y-50200000D02*
X118020000Y-44200000D01*
X118020000Y-53257071D02*
X118020000Y-52860000D01*
X118020000Y-55797071D02*
X118020000Y-55342929D01*
X118780000Y-44200000D02*
X118780000Y-50200000D01*
X118780000Y-53257071D02*
X118780000Y-52860000D01*
X118780000Y-55797071D02*
X118780000Y-55342929D01*
X119670000Y-52860000D02*
X119670000Y-50200000D01*
X120560000Y-44200000D02*
X121320000Y-44200000D01*
X120560000Y-50200000D02*
X120560000Y-44200000D01*
X120560000Y-53257071D02*
X120560000Y-52860000D01*
X120560000Y-55797071D02*
X120560000Y-55342929D01*
X121320000Y-44200000D02*
X121320000Y-50200000D01*
X121320000Y-53257071D02*
X121320000Y-52860000D01*
X121320000Y-55797071D02*
X121320000Y-55342929D01*
X122210000Y-52860000D02*
X122210000Y-50200000D01*
X123100000Y-44200000D02*
X123860000Y-44200000D01*
X123100000Y-50200000D02*
X123100000Y-44200000D01*
X123100000Y-53257071D02*
X123100000Y-52860000D01*
X123100000Y-55797071D02*
X123100000Y-55342929D01*
X123860000Y-44200000D02*
X123860000Y-50200000D01*
X123860000Y-53257071D02*
X123860000Y-52860000D01*
X123860000Y-55797071D02*
X123860000Y-55342929D01*
X124750000Y-52860000D02*
X124750000Y-50200000D01*
X125640000Y-44200000D02*
X126400000Y-44200000D01*
X125640000Y-50200000D02*
X125640000Y-44200000D01*
X125640000Y-53257071D02*
X125640000Y-52860000D01*
X125640000Y-55797071D02*
X125640000Y-55342929D01*
X126400000Y-44200000D02*
X126400000Y-50200000D01*
X126400000Y-53257071D02*
X126400000Y-52860000D01*
X126400000Y-55797071D02*
X126400000Y-55342929D01*
X127290000Y-52860000D02*
X127290000Y-50200000D01*
X128180000Y-44200000D02*
X128940000Y-44200000D01*
X128180000Y-50200000D02*
X128180000Y-44200000D01*
X128180000Y-53257071D02*
X128180000Y-52860000D01*
X128180000Y-55797071D02*
X128180000Y-55342929D01*
X128940000Y-44200000D02*
X128940000Y-50200000D01*
X128940000Y-53257071D02*
X128940000Y-52860000D01*
X128940000Y-55797071D02*
X128940000Y-55342929D01*
X129830000Y-52860000D02*
X129830000Y-50200000D01*
X130720000Y-44200000D02*
X131480000Y-44200000D01*
X130720000Y-50200000D02*
X130720000Y-44200000D01*
X130720000Y-53257071D02*
X130720000Y-52860000D01*
X130720000Y-55797071D02*
X130720000Y-55342929D01*
X131480000Y-44200000D02*
X131480000Y-50200000D01*
X131480000Y-53257071D02*
X131480000Y-52860000D01*
X131480000Y-55797071D02*
X131480000Y-55342929D01*
X132370000Y-52860000D02*
X132370000Y-50200000D01*
X133260000Y-44200000D02*
X134020000Y-44200000D01*
X133260000Y-50200000D02*
X133260000Y-44200000D01*
X133260000Y-53257071D02*
X133260000Y-52860000D01*
X133260000Y-55797071D02*
X133260000Y-55342929D01*
X134020000Y-44200000D02*
X134020000Y-50200000D01*
X134020000Y-53257071D02*
X134020000Y-52860000D01*
X134020000Y-55797071D02*
X134020000Y-55342929D01*
X134910000Y-52860000D02*
X134910000Y-50200000D01*
X135800000Y-44200000D02*
X136560000Y-44200000D01*
X135800000Y-50200000D02*
X135800000Y-44200000D01*
X135800000Y-53257071D02*
X135800000Y-52860000D01*
X135800000Y-55797071D02*
X135800000Y-55342929D01*
X136560000Y-44200000D02*
X136560000Y-50200000D01*
X136560000Y-53257071D02*
X136560000Y-52860000D01*
X136560000Y-55797071D02*
X136560000Y-55342929D01*
X137450000Y-52860000D02*
X137450000Y-50200000D01*
X138340000Y-44200000D02*
X139100000Y-44200000D01*
X138340000Y-50200000D02*
X138340000Y-44200000D01*
X138340000Y-53257071D02*
X138340000Y-52860000D01*
X138340000Y-55797071D02*
X138340000Y-55342929D01*
X139100000Y-44200000D02*
X139100000Y-50200000D01*
X139100000Y-53257071D02*
X139100000Y-52860000D01*
X139100000Y-55797071D02*
X139100000Y-55342929D01*
X139990000Y-52860000D02*
X139990000Y-50200000D01*
X140880000Y-44200000D02*
X141640000Y-44200000D01*
X140880000Y-50200000D02*
X140880000Y-44200000D01*
X140880000Y-53257071D02*
X140880000Y-52860000D01*
X140880000Y-55797071D02*
X140880000Y-55342929D01*
X141640000Y-44200000D02*
X141640000Y-50200000D01*
X141640000Y-53257071D02*
X141640000Y-52860000D01*
X141640000Y-55797071D02*
X141640000Y-55342929D01*
X142530000Y-52860000D02*
X142530000Y-50200000D01*
X143420000Y-44200000D02*
X144180000Y-44200000D01*
X143420000Y-50200000D02*
X143420000Y-44200000D01*
X143420000Y-53257071D02*
X143420000Y-52860000D01*
X143420000Y-55797071D02*
X143420000Y-55342929D01*
X144180000Y-44200000D02*
X144180000Y-50200000D01*
X144180000Y-53257071D02*
X144180000Y-52860000D01*
X144180000Y-55797071D02*
X144180000Y-55342929D01*
X145070000Y-52860000D02*
X145070000Y-50200000D01*
X145960000Y-44200000D02*
X146720000Y-44200000D01*
X145960000Y-50200000D02*
X145960000Y-44200000D01*
X145960000Y-53257071D02*
X145960000Y-52860000D01*
X145960000Y-55797071D02*
X145960000Y-55342929D01*
X146720000Y-44200000D02*
X146720000Y-50200000D01*
X146720000Y-53257071D02*
X146720000Y-52860000D01*
X146720000Y-55797071D02*
X146720000Y-55342929D01*
X147610000Y-52860000D02*
X147610000Y-50200000D01*
X148500000Y-44200000D02*
X149260000Y-44200000D01*
X148500000Y-50200000D02*
X148500000Y-44200000D01*
X148500000Y-53257071D02*
X148500000Y-52860000D01*
X148500000Y-55797071D02*
X148500000Y-55342929D01*
X149260000Y-44200000D02*
X149260000Y-50200000D01*
X149260000Y-53257071D02*
X149260000Y-52860000D01*
X149260000Y-55797071D02*
X149260000Y-55342929D01*
X150150000Y-52860000D02*
X150150000Y-50200000D01*
X151040000Y-44200000D02*
X151800000Y-44200000D01*
X151040000Y-50200000D02*
X151040000Y-44200000D01*
X151040000Y-53257071D02*
X151040000Y-52860000D01*
X151040000Y-55797071D02*
X151040000Y-55342929D01*
X151800000Y-44200000D02*
X151800000Y-50200000D01*
X151800000Y-53257071D02*
X151800000Y-52860000D01*
X151800000Y-55797071D02*
X151800000Y-55342929D01*
X152690000Y-52860000D02*
X152690000Y-50200000D01*
X153580000Y-44200000D02*
X154340000Y-44200000D01*
X153580000Y-50200000D02*
X153580000Y-44200000D01*
X153580000Y-53257071D02*
X153580000Y-52860000D01*
X153580000Y-55797071D02*
X153580000Y-55342929D01*
X154340000Y-44200000D02*
X154340000Y-50200000D01*
X154340000Y-53257071D02*
X154340000Y-52860000D01*
X154340000Y-55797071D02*
X154340000Y-55342929D01*
X155230000Y-52860000D02*
X155230000Y-50200000D01*
X156120000Y-44200000D02*
X156880000Y-44200000D01*
X156120000Y-50200000D02*
X156120000Y-44200000D01*
X156120000Y-53257071D02*
X156120000Y-52860000D01*
X156120000Y-55797071D02*
X156120000Y-55342929D01*
X156880000Y-44200000D02*
X156880000Y-50200000D01*
X156880000Y-53257071D02*
X156880000Y-52860000D01*
X156880000Y-55797071D02*
X156880000Y-55342929D01*
X157770000Y-52860000D02*
X157770000Y-50200000D01*
X158660000Y-44200000D02*
X159420000Y-44200000D01*
X158660000Y-50200000D02*
X158660000Y-44200000D01*
X158660000Y-53257071D02*
X158660000Y-52860000D01*
X158660000Y-55797071D02*
X158660000Y-55342929D01*
X159420000Y-44200000D02*
X159420000Y-50200000D01*
X159420000Y-53257071D02*
X159420000Y-52860000D01*
X159420000Y-55797071D02*
X159420000Y-55342929D01*
X160310000Y-52860000D02*
X160310000Y-50200000D01*
X161200000Y-44200000D02*
X161960000Y-44200000D01*
X161200000Y-50200000D02*
X161200000Y-44200000D01*
X161200000Y-53257071D02*
X161200000Y-52860000D01*
X161200000Y-55797071D02*
X161200000Y-55342929D01*
X161960000Y-44200000D02*
X161960000Y-50200000D01*
X161960000Y-53257071D02*
X161960000Y-52860000D01*
X161960000Y-55797071D02*
X161960000Y-55342929D01*
X162850000Y-52860000D02*
X162850000Y-50200000D01*
X163740000Y-44200000D02*
X164500000Y-44200000D01*
X163740000Y-50200000D02*
X163740000Y-44200000D01*
X163740000Y-53257071D02*
X163740000Y-52860000D01*
X163740000Y-55797071D02*
X163740000Y-55342929D01*
X164500000Y-44200000D02*
X164500000Y-50200000D01*
X164500000Y-53257071D02*
X164500000Y-52860000D01*
X164500000Y-55797071D02*
X164500000Y-55342929D01*
X165450000Y-50200000D02*
X114530000Y-50200000D01*
X165450000Y-52860000D02*
X165450000Y-50200000D01*
X93950000Y-81300000D02*
X93950000Y-82800000D01*
X95200000Y-85300000D02*
X99700000Y-85300000D01*
X99700000Y-78800000D02*
X95200000Y-78800000D01*
X100950000Y-82800000D02*
X100950000Y-81300000D01*
X139080000Y-88080000D02*
X139145000Y-88080000D01*
X139080000Y-91320000D02*
X139080000Y-88080000D01*
X139080000Y-91320000D02*
X139145000Y-91320000D01*
X141255000Y-88080000D02*
X141320000Y-88080000D01*
X141255000Y-91320000D02*
X141320000Y-91320000D01*
X141320000Y-91320000D02*
X141320000Y-88080000D01*
X154965000Y-78475000D02*
X161215000Y-78475000D01*
X154965000Y-83525000D02*
X161215000Y-83525000D01*
X154965000Y-83525000D02*
G75*
G02*
X154965000Y-78475000I0J2525000D01*
G01*
X161215000Y-78475000D02*
G75*
G02*
X161215000Y-83525000I0J-2525000D01*
G01*
X186880000Y-112600000D02*
X186880000Y-115840000D01*
X186945000Y-112600000D02*
X186880000Y-112600000D01*
X186945000Y-115840000D02*
X186880000Y-115840000D01*
X189120000Y-112600000D02*
X189055000Y-112600000D01*
X189120000Y-112600000D02*
X189120000Y-115840000D01*
X189120000Y-115840000D02*
X189055000Y-115840000D01*
X135900000Y-77400000D02*
X135900000Y-80200000D01*
X135900000Y-80200000D02*
X148940000Y-80200000D01*
X138610000Y-77400000D02*
X138610000Y-80200000D01*
X148940000Y-77400000D02*
X135900000Y-77400000D01*
X148940000Y-80200000D02*
X148940000Y-77400000D01*
X172480000Y-99845000D02*
X172480000Y-99780000D01*
X172480000Y-102020000D02*
X172480000Y-101955000D01*
X175720000Y-99780000D02*
X172480000Y-99780000D01*
X175720000Y-99845000D02*
X175720000Y-99780000D01*
X175720000Y-102020000D02*
X172480000Y-102020000D01*
X175720000Y-102020000D02*
X175720000Y-101955000D01*
X186780000Y-105940000D02*
X186845000Y-105940000D01*
X186780000Y-109180000D02*
X186780000Y-105940000D01*
X186780000Y-109180000D02*
X186845000Y-109180000D01*
X188955000Y-105940000D02*
X189020000Y-105940000D01*
X188955000Y-109180000D02*
X189020000Y-109180000D01*
X189020000Y-109180000D02*
X189020000Y-105940000D01*
X95090000Y-64530000D02*
X95090000Y-63200000D01*
X96420000Y-64530000D02*
X95090000Y-64530000D01*
X97690000Y-61870000D02*
X102830000Y-61870000D01*
X97690000Y-64530000D02*
X97690000Y-61870000D01*
X97690000Y-64530000D02*
X102830000Y-64530000D01*
X102830000Y-64530000D02*
X102830000Y-61870000D01*
X107264000Y-77990000D02*
X107420000Y-77990000D01*
X109580000Y-77990000D02*
X109736000Y-77990000D01*
X107264484Y-77990000D02*
G75*
G02*
X107419939Y-74758603I1235516J1560000D01*
G01*
X107420000Y-77470961D02*
G75*
G02*
X107419951Y-75389090I1080000J1040961D01*
G01*
X109580049Y-75389090D02*
G75*
G02*
X109580000Y-77470961I-1080049J-1040910D01*
G01*
X109580061Y-74758603D02*
G75*
G02*
X109735516Y-77990000I-1080061J-1671397D01*
G01*
X151480000Y-102245000D02*
X151480000Y-102180000D01*
X151480000Y-104420000D02*
X151480000Y-104355000D01*
X154720000Y-102180000D02*
X151480000Y-102180000D01*
X154720000Y-102245000D02*
X154720000Y-102180000D01*
X154720000Y-104420000D02*
X151480000Y-104420000D01*
X154720000Y-104420000D02*
X154720000Y-104355000D01*
X184230000Y-63610000D02*
X185500000Y-63610000D01*
X184230000Y-64880000D02*
X184230000Y-63610000D01*
X186542929Y-67040000D02*
X186940000Y-67040000D01*
X186542929Y-67800000D02*
X186940000Y-67800000D01*
X186542929Y-69580000D02*
X186940000Y-69580000D01*
X186542929Y-70340000D02*
X186940000Y-70340000D01*
X186542929Y-72120000D02*
X186940000Y-72120000D01*
X186542929Y-72880000D02*
X186940000Y-72880000D01*
X186542929Y-74660000D02*
X186940000Y-74660000D01*
X186542929Y-75420000D02*
X186940000Y-75420000D01*
X186542929Y-77200000D02*
X186940000Y-77200000D01*
X186542929Y-77960000D02*
X186940000Y-77960000D01*
X186610000Y-64500000D02*
X186940000Y-64500000D01*
X186610000Y-65260000D02*
X186940000Y-65260000D01*
X186940000Y-63550000D02*
X186940000Y-78910000D01*
X186940000Y-66150000D02*
X189600000Y-66150000D01*
X186940000Y-68690000D02*
X189600000Y-68690000D01*
X186940000Y-71230000D02*
X189600000Y-71230000D01*
X186940000Y-73770000D02*
X189600000Y-73770000D01*
X186940000Y-76310000D02*
X189600000Y-76310000D01*
X186940000Y-78910000D02*
X189600000Y-78910000D01*
X189600000Y-63550000D02*
X186940000Y-63550000D01*
X189600000Y-64500000D02*
X195600000Y-64500000D01*
X189600000Y-64560000D02*
X195600000Y-64560000D01*
X189600000Y-64680000D02*
X195600000Y-64680000D01*
X189600000Y-64800000D02*
X195600000Y-64800000D01*
X189600000Y-64920000D02*
X195600000Y-64920000D01*
X189600000Y-65040000D02*
X195600000Y-65040000D01*
X189600000Y-65160000D02*
X195600000Y-65160000D01*
X189600000Y-67040000D02*
X195600000Y-67040000D01*
X189600000Y-69580000D02*
X195600000Y-69580000D01*
X189600000Y-72120000D02*
X195600000Y-72120000D01*
X189600000Y-74660000D02*
X195600000Y-74660000D01*
X189600000Y-77200000D02*
X195600000Y-77200000D01*
X189600000Y-78910000D02*
X189600000Y-63550000D01*
X195600000Y-64500000D02*
X195600000Y-65260000D01*
X195600000Y-65260000D02*
X189600000Y-65260000D01*
X195600000Y-67040000D02*
X195600000Y-67800000D01*
X195600000Y-67800000D02*
X189600000Y-67800000D01*
X195600000Y-69580000D02*
X195600000Y-70340000D01*
X195600000Y-70340000D02*
X189600000Y-70340000D01*
X195600000Y-72120000D02*
X195600000Y-72880000D01*
X195600000Y-72880000D02*
X189600000Y-72880000D01*
X195600000Y-74660000D02*
X195600000Y-75420000D01*
X195600000Y-75420000D02*
X189600000Y-75420000D01*
X195600000Y-77200000D02*
X195600000Y-77960000D01*
X195600000Y-77960000D02*
X189600000Y-77960000D01*
X181105000Y-114135000D02*
X181105000Y-107885000D01*
X186155000Y-114135000D02*
X186155000Y-107885000D01*
X181105000Y-107885000D02*
G75*
G02*
X186155000Y-107885000I2525000J0D01*
G01*
X186155000Y-114135000D02*
G75*
G02*
X181105000Y-114135000I-2525000J0D01*
G01*
X158450000Y-105055000D02*
X158450000Y-122955000D01*
X158450000Y-122955000D02*
X163750000Y-122955000D01*
X160100000Y-105055000D02*
X158450000Y-105055000D01*
X163750000Y-105055000D02*
X162100000Y-105055000D01*
X163750000Y-122955000D02*
X163750000Y-105055000D01*
X155960000Y-104995000D02*
X166240000Y-104995000D01*
X166240000Y-123015000D01*
X155960000Y-123015000D01*
X155960000Y-104995000D01*
X162100000Y-105055000D02*
G75*
G02*
X160100000Y-105055000I-1000000J0D01*
G01*
X151060000Y-95600000D02*
X151060000Y-98400000D01*
X151060000Y-98400000D02*
X164100000Y-98400000D01*
X153770000Y-95600000D02*
X153770000Y-98400000D01*
X164100000Y-95600000D02*
X151060000Y-95600000D01*
X164100000Y-98400000D02*
X164100000Y-95600000D01*
X168955000Y-102580000D02*
X168955000Y-123020000D01*
X168955000Y-123020000D02*
X174255000Y-123020000D01*
X170605000Y-102580000D02*
X168955000Y-102580000D01*
X174255000Y-102580000D02*
X172605000Y-102580000D01*
X174255000Y-123020000D02*
X174255000Y-102580000D01*
X166465000Y-102520000D02*
X176745000Y-102520000D01*
X176745000Y-123080000D01*
X166465000Y-123080000D01*
X166465000Y-102520000D01*
X172605000Y-102580000D02*
G75*
G02*
X170605000Y-102580000I-1000000J0D01*
G01*
X92230000Y-101560000D02*
X92230000Y-114480000D01*
X92230000Y-114480000D02*
X132990000Y-114480000D01*
X132990000Y-101560000D02*
X92230000Y-101560000D01*
X132990000Y-107020000D02*
X132990000Y-101560000D01*
X132990000Y-114480000D02*
X132990000Y-109020000D01*
X133050000Y-99070000D02*
X92170000Y-99070000D01*
X92170000Y-116970000D01*
X133050000Y-116970000D01*
X133050000Y-99070000D01*
X132990000Y-109020000D02*
G75*
G02*
X132990000Y-107020000I0J1000000D01*
G01*
X103830000Y-82330000D02*
X103830000Y-88870000D01*
X103830000Y-88870000D02*
X106570000Y-88870000D01*
X105200000Y-81560000D02*
X105200000Y-82330000D01*
X105200000Y-89640000D02*
X105200000Y-88870000D01*
X106570000Y-82330000D02*
X103830000Y-82330000D01*
X106570000Y-88870000D02*
X106570000Y-82330000D01*
X113160000Y-83160000D02*
X113160000Y-96080000D01*
X113160000Y-96080000D02*
X148840000Y-96080000D01*
X148840000Y-83160000D02*
X113160000Y-83160000D01*
X148840000Y-88620000D02*
X148840000Y-83160000D01*
X148840000Y-96080000D02*
X148840000Y-90620000D01*
X148900000Y-80670000D02*
X113100000Y-80670000D01*
X113100000Y-98570000D01*
X148900000Y-98570000D01*
X148900000Y-80670000D01*
X148840000Y-90620000D02*
G75*
G02*
X148840000Y-88620000I0J1000000D01*
G01*
X88700000Y-66100000D02*
X103400000Y-66100000D01*
X88700000Y-75300000D02*
X88700000Y-66100000D01*
X97500000Y-75300000D02*
X88700000Y-75300000D01*
X102550000Y-65900000D02*
X103600000Y-65900000D01*
X103400000Y-66100000D02*
X103400000Y-68700000D01*
X103400000Y-72600000D02*
X103400000Y-75300000D01*
X103400000Y-75300000D02*
X101500000Y-75300000D01*
X103600000Y-66950000D02*
X103600000Y-65900000D01*
X100740125Y-55025000D02*
X101240125Y-55025000D01*
X100990125Y-54775000D02*
X100990125Y-55275000D01*
X103544900Y-53920000D02*
X103544900Y-59080000D01*
X103584900Y-53920000D02*
X103584900Y-59080000D01*
X103624900Y-53921000D02*
X103624900Y-59079000D01*
X103664900Y-53922000D02*
X103664900Y-59078000D01*
X103704900Y-53924000D02*
X103704900Y-59076000D01*
X103744900Y-53927000D02*
X103744900Y-59073000D01*
X103784900Y-53931000D02*
X103784900Y-55460000D01*
X103784900Y-57540000D02*
X103784900Y-59069000D01*
X103824900Y-53935000D02*
X103824900Y-55460000D01*
X103824900Y-57540000D02*
X103824900Y-59065000D01*
X103864900Y-53939000D02*
X103864900Y-55460000D01*
X103864900Y-57540000D02*
X103864900Y-59061000D01*
X103904900Y-53944000D02*
X103904900Y-55460000D01*
X103904900Y-57540000D02*
X103904900Y-59056000D01*
X103944900Y-53950000D02*
X103944900Y-55460000D01*
X103944900Y-57540000D02*
X103944900Y-59050000D01*
X103984900Y-53957000D02*
X103984900Y-55460000D01*
X103984900Y-57540000D02*
X103984900Y-59043000D01*
X104024900Y-53964000D02*
X104024900Y-55460000D01*
X104024900Y-57540000D02*
X104024900Y-59036000D01*
X104064900Y-53972000D02*
X104064900Y-55460000D01*
X104064900Y-57540000D02*
X104064900Y-59028000D01*
X104104900Y-53980000D02*
X104104900Y-55460000D01*
X104104900Y-57540000D02*
X104104900Y-59020000D01*
X104144900Y-53989000D02*
X104144900Y-55460000D01*
X104144900Y-57540000D02*
X104144900Y-59011000D01*
X104184900Y-53999000D02*
X104184900Y-55460000D01*
X104184900Y-57540000D02*
X104184900Y-59001000D01*
X104224900Y-54009000D02*
X104224900Y-55460000D01*
X104224900Y-57540000D02*
X104224900Y-58991000D01*
X104265900Y-54020000D02*
X104265900Y-55460000D01*
X104265900Y-57540000D02*
X104265900Y-58980000D01*
X104305900Y-54032000D02*
X104305900Y-55460000D01*
X104305900Y-57540000D02*
X104305900Y-58968000D01*
X104345900Y-54045000D02*
X104345900Y-55460000D01*
X104345900Y-57540000D02*
X104345900Y-58955000D01*
X104385900Y-54058000D02*
X104385900Y-55460000D01*
X104385900Y-57540000D02*
X104385900Y-58942000D01*
X104425900Y-54072000D02*
X104425900Y-55460000D01*
X104425900Y-57540000D02*
X104425900Y-58928000D01*
X104465900Y-54086000D02*
X104465900Y-55460000D01*
X104465900Y-57540000D02*
X104465900Y-58914000D01*
X104505900Y-54102000D02*
X104505900Y-55460000D01*
X104505900Y-57540000D02*
X104505900Y-58898000D01*
X104545900Y-54118000D02*
X104545900Y-55460000D01*
X104545900Y-57540000D02*
X104545900Y-58882000D01*
X104585900Y-54135000D02*
X104585900Y-55460000D01*
X104585900Y-57540000D02*
X104585900Y-58865000D01*
X104625900Y-54152000D02*
X104625900Y-55460000D01*
X104625900Y-57540000D02*
X104625900Y-58848000D01*
X104665900Y-54171000D02*
X104665900Y-55460000D01*
X104665900Y-57540000D02*
X104665900Y-58829000D01*
X104705900Y-54190000D02*
X104705900Y-55460000D01*
X104705900Y-57540000D02*
X104705900Y-58810000D01*
X104745900Y-54210000D02*
X104745900Y-55460000D01*
X104745900Y-57540000D02*
X104745900Y-58790000D01*
X104785900Y-54232000D02*
X104785900Y-55460000D01*
X104785900Y-57540000D02*
X104785900Y-58768000D01*
X104825900Y-54253000D02*
X104825900Y-55460000D01*
X104825900Y-57540000D02*
X104825900Y-58747000D01*
X104865900Y-54276000D02*
X104865900Y-55460000D01*
X104865900Y-57540000D02*
X104865900Y-58724000D01*
X104905900Y-54300000D02*
X104905900Y-55460000D01*
X104905900Y-57540000D02*
X104905900Y-58700000D01*
X104945900Y-54325000D02*
X104945900Y-55460000D01*
X104945900Y-57540000D02*
X104945900Y-58675000D01*
X104985900Y-54351000D02*
X104985900Y-55460000D01*
X104985900Y-57540000D02*
X104985900Y-58649000D01*
X105025900Y-54378000D02*
X105025900Y-55460000D01*
X105025900Y-57540000D02*
X105025900Y-58622000D01*
X105065900Y-54405000D02*
X105065900Y-55460000D01*
X105065900Y-57540000D02*
X105065900Y-58595000D01*
X105105900Y-54435000D02*
X105105900Y-55460000D01*
X105105900Y-57540000D02*
X105105900Y-58565000D01*
X105145900Y-54465000D02*
X105145900Y-55460000D01*
X105145900Y-57540000D02*
X105145900Y-58535000D01*
X105185900Y-54496000D02*
X105185900Y-55460000D01*
X105185900Y-57540000D02*
X105185900Y-58504000D01*
X105225900Y-54529000D02*
X105225900Y-55460000D01*
X105225900Y-57540000D02*
X105225900Y-58471000D01*
X105265900Y-54563000D02*
X105265900Y-55460000D01*
X105265900Y-57540000D02*
X105265900Y-58437000D01*
X105305900Y-54599000D02*
X105305900Y-55460000D01*
X105305900Y-57540000D02*
X105305900Y-58401000D01*
X105345900Y-54636000D02*
X105345900Y-55460000D01*
X105345900Y-57540000D02*
X105345900Y-58364000D01*
X105385900Y-54674000D02*
X105385900Y-55460000D01*
X105385900Y-57540000D02*
X105385900Y-58326000D01*
X105425900Y-54715000D02*
X105425900Y-55460000D01*
X105425900Y-57540000D02*
X105425900Y-58285000D01*
X105465900Y-54757000D02*
X105465900Y-55460000D01*
X105465900Y-57540000D02*
X105465900Y-58243000D01*
X105505900Y-54801000D02*
X105505900Y-55460000D01*
X105505900Y-57540000D02*
X105505900Y-58199000D01*
X105545900Y-54847000D02*
X105545900Y-55460000D01*
X105545900Y-57540000D02*
X105545900Y-58153000D01*
X105585900Y-54895000D02*
X105585900Y-55460000D01*
X105585900Y-57540000D02*
X105585900Y-58105000D01*
X105625900Y-54946000D02*
X105625900Y-55460000D01*
X105625900Y-57540000D02*
X105625900Y-58054000D01*
X105665900Y-55000000D02*
X105665900Y-55460000D01*
X105665900Y-57540000D02*
X105665900Y-58000000D01*
X105705900Y-55057000D02*
X105705900Y-55460000D01*
X105705900Y-57540000D02*
X105705900Y-57943000D01*
X105745900Y-55117000D02*
X105745900Y-55460000D01*
X105745900Y-57540000D02*
X105745900Y-57883000D01*
X105785900Y-55181000D02*
X105785900Y-55460000D01*
X105785900Y-57540000D02*
X105785900Y-57819000D01*
X105825900Y-55249000D02*
X105825900Y-55460000D01*
X105825900Y-57540000D02*
X105825900Y-57751000D01*
X105865900Y-55322000D02*
X105865900Y-57678000D01*
X105905900Y-55402000D02*
X105905900Y-57598000D01*
X105945900Y-55489000D02*
X105945900Y-57511000D01*
X105985900Y-55585000D02*
X105985900Y-57415000D01*
X106025900Y-55695000D02*
X106025900Y-57305000D01*
X106065900Y-55823000D02*
X106065900Y-57177000D01*
X106105900Y-55982000D02*
X106105900Y-57018000D01*
X106145900Y-56216000D02*
X106145900Y-56784000D01*
X106164900Y-56500000D02*
G75*
G02*
X100924900Y-56500000I-2620000J0D01*
G01*
X100924900Y-56500000D02*
G75*
G02*
X106164900Y-56500000I2620000J0D01*
G01*
X151090000Y-91570000D02*
X151090000Y-94230000D01*
X156230000Y-91570000D02*
X151090000Y-91570000D01*
X156230000Y-91570000D02*
X156230000Y-94230000D01*
X156230000Y-94230000D02*
X151090000Y-94230000D01*
X157500000Y-91570000D02*
X158830000Y-91570000D01*
X158830000Y-91570000D02*
X158830000Y-92900000D01*
X108030000Y-82980000D02*
X108030000Y-88420000D01*
X108030000Y-88420000D02*
X110970000Y-88420000D01*
X109500000Y-81760000D02*
X109500000Y-82980000D01*
X109500000Y-89640000D02*
X109500000Y-88420000D01*
X110970000Y-82980000D02*
X108030000Y-82980000D01*
X110970000Y-83760000D02*
X108030000Y-83760000D01*
X110970000Y-83880000D02*
X108030000Y-83880000D01*
X110970000Y-84000000D02*
X108030000Y-84000000D01*
X110970000Y-88420000D02*
X110970000Y-82980000D01*
X107130000Y-63830000D02*
X107130000Y-70370000D01*
X107130000Y-70370000D02*
X109870000Y-70370000D01*
X108500000Y-63060000D02*
X108500000Y-63830000D01*
X108500000Y-71140000D02*
X108500000Y-70370000D01*
X109870000Y-63830000D02*
X107130000Y-63830000D01*
X109870000Y-70370000D02*
X109870000Y-63830000D01*
X136340000Y-102530000D02*
X136340000Y-122970000D01*
X136340000Y-122970000D02*
X141640000Y-122970000D01*
X137990000Y-102530000D02*
X136340000Y-102530000D01*
X141640000Y-102530000D02*
X139990000Y-102530000D01*
X141640000Y-122970000D02*
X141640000Y-102530000D01*
X133850000Y-102470000D02*
X144130000Y-102470000D01*
X144130000Y-123030000D01*
X133850000Y-123030000D01*
X133850000Y-102470000D01*
X139990000Y-102530000D02*
G75*
G02*
X137990000Y-102530000I-1000000J0D01*
G01*
X113070000Y-61460000D02*
X113070000Y-74380000D01*
X113070000Y-74380000D02*
X163990000Y-74380000D01*
X163990000Y-61460000D02*
X113070000Y-61460000D01*
X163990000Y-66920000D02*
X163990000Y-61460000D01*
X163990000Y-74380000D02*
X163990000Y-68920000D01*
X164050000Y-58970000D02*
X113010000Y-58970000D01*
X113010000Y-76870000D01*
X164050000Y-76870000D01*
X164050000Y-58970000D01*
X163990000Y-68920000D02*
G75*
G02*
X163990000Y-66920000I0J1000000D01*
G01*
X96360000Y-89890000D02*
X94831000Y-89890000D01*
X96360000Y-89930000D02*
X94835000Y-89930000D01*
X96360000Y-89970000D02*
X94839000Y-89970000D01*
X96360000Y-90010000D02*
X94844000Y-90010000D01*
X96360000Y-90050000D02*
X94850000Y-90050000D01*
X96360000Y-90090000D02*
X94857000Y-90090000D01*
X96360000Y-90130000D02*
X94864000Y-90130000D01*
X96360000Y-90170000D02*
X94872000Y-90170000D01*
X96360000Y-90210000D02*
X94880000Y-90210000D01*
X96360000Y-90250000D02*
X94889000Y-90250000D01*
X96360000Y-90290000D02*
X94899000Y-90290000D01*
X96360000Y-90330000D02*
X94909000Y-90330000D01*
X96360000Y-90371000D02*
X94920000Y-90371000D01*
X96360000Y-90411000D02*
X94932000Y-90411000D01*
X96360000Y-90451000D02*
X94945000Y-90451000D01*
X96360000Y-90491000D02*
X94958000Y-90491000D01*
X96360000Y-90531000D02*
X94972000Y-90531000D01*
X96360000Y-90571000D02*
X94986000Y-90571000D01*
X96360000Y-90611000D02*
X95002000Y-90611000D01*
X96360000Y-90651000D02*
X95018000Y-90651000D01*
X96360000Y-90691000D02*
X95035000Y-90691000D01*
X96360000Y-90731000D02*
X95052000Y-90731000D01*
X96360000Y-90771000D02*
X95071000Y-90771000D01*
X96360000Y-90811000D02*
X95090000Y-90811000D01*
X96360000Y-90851000D02*
X95110000Y-90851000D01*
X96360000Y-90891000D02*
X95132000Y-90891000D01*
X96360000Y-90931000D02*
X95153000Y-90931000D01*
X96360000Y-90971000D02*
X95176000Y-90971000D01*
X96360000Y-91011000D02*
X95200000Y-91011000D01*
X96360000Y-91051000D02*
X95225000Y-91051000D01*
X96360000Y-91091000D02*
X95251000Y-91091000D01*
X96360000Y-91131000D02*
X95278000Y-91131000D01*
X96360000Y-91171000D02*
X95305000Y-91171000D01*
X96360000Y-91211000D02*
X95335000Y-91211000D01*
X96360000Y-91251000D02*
X95365000Y-91251000D01*
X96360000Y-91291000D02*
X95396000Y-91291000D01*
X96360000Y-91331000D02*
X95429000Y-91331000D01*
X96360000Y-91371000D02*
X95463000Y-91371000D01*
X96360000Y-91411000D02*
X95499000Y-91411000D01*
X96360000Y-91451000D02*
X95536000Y-91451000D01*
X96360000Y-91491000D02*
X95574000Y-91491000D01*
X96360000Y-91531000D02*
X95615000Y-91531000D01*
X96360000Y-91571000D02*
X95657000Y-91571000D01*
X96360000Y-91611000D02*
X95701000Y-91611000D01*
X96360000Y-91651000D02*
X95747000Y-91651000D01*
X96360000Y-91691000D02*
X95795000Y-91691000D01*
X96360000Y-91731000D02*
X95846000Y-91731000D01*
X96360000Y-91771000D02*
X95900000Y-91771000D01*
X96360000Y-91811000D02*
X95957000Y-91811000D01*
X96360000Y-91851000D02*
X96017000Y-91851000D01*
X96360000Y-91891000D02*
X96081000Y-91891000D01*
X96360000Y-91931000D02*
X96149000Y-91931000D01*
X97684000Y-92251000D02*
X97116000Y-92251000D01*
X97918000Y-92211000D02*
X96882000Y-92211000D01*
X98077000Y-92171000D02*
X96723000Y-92171000D01*
X98205000Y-92131000D02*
X96595000Y-92131000D01*
X98315000Y-92091000D02*
X96485000Y-92091000D01*
X98411000Y-92051000D02*
X96389000Y-92051000D01*
X98498000Y-92011000D02*
X96302000Y-92011000D01*
X98578000Y-91971000D02*
X96222000Y-91971000D01*
X98651000Y-91931000D02*
X98440000Y-91931000D01*
X98719000Y-91891000D02*
X98440000Y-91891000D01*
X98783000Y-91851000D02*
X98440000Y-91851000D01*
X98843000Y-91811000D02*
X98440000Y-91811000D01*
X98875000Y-86845225D02*
X98875000Y-87345225D01*
X98900000Y-91771000D02*
X98440000Y-91771000D01*
X98954000Y-91731000D02*
X98440000Y-91731000D01*
X99005000Y-91691000D02*
X98440000Y-91691000D01*
X99053000Y-91651000D02*
X98440000Y-91651000D01*
X99099000Y-91611000D02*
X98440000Y-91611000D01*
X99125000Y-87095225D02*
X98625000Y-87095225D01*
X99143000Y-91571000D02*
X98440000Y-91571000D01*
X99185000Y-91531000D02*
X98440000Y-91531000D01*
X99226000Y-91491000D02*
X98440000Y-91491000D01*
X99264000Y-91451000D02*
X98440000Y-91451000D01*
X99301000Y-91411000D02*
X98440000Y-91411000D01*
X99337000Y-91371000D02*
X98440000Y-91371000D01*
X99371000Y-91331000D02*
X98440000Y-91331000D01*
X99404000Y-91291000D02*
X98440000Y-91291000D01*
X99435000Y-91251000D02*
X98440000Y-91251000D01*
X99465000Y-91211000D02*
X98440000Y-91211000D01*
X99495000Y-91171000D02*
X98440000Y-91171000D01*
X99522000Y-91131000D02*
X98440000Y-91131000D01*
X99549000Y-91091000D02*
X98440000Y-91091000D01*
X99575000Y-91051000D02*
X98440000Y-91051000D01*
X99600000Y-91011000D02*
X98440000Y-91011000D01*
X99624000Y-90971000D02*
X98440000Y-90971000D01*
X99647000Y-90931000D02*
X98440000Y-90931000D01*
X99668000Y-90891000D02*
X98440000Y-90891000D01*
X99690000Y-90851000D02*
X98440000Y-90851000D01*
X99710000Y-90811000D02*
X98440000Y-90811000D01*
X99729000Y-90771000D02*
X98440000Y-90771000D01*
X99748000Y-90731000D02*
X98440000Y-90731000D01*
X99765000Y-90691000D02*
X98440000Y-90691000D01*
X99782000Y-90651000D02*
X98440000Y-90651000D01*
X99798000Y-90611000D02*
X98440000Y-90611000D01*
X99814000Y-90571000D02*
X98440000Y-90571000D01*
X99828000Y-90531000D02*
X98440000Y-90531000D01*
X99842000Y-90491000D02*
X98440000Y-90491000D01*
X99855000Y-90451000D02*
X98440000Y-90451000D01*
X99868000Y-90411000D02*
X98440000Y-90411000D01*
X99880000Y-90371000D02*
X98440000Y-90371000D01*
X99891000Y-90330000D02*
X98440000Y-90330000D01*
X99901000Y-90290000D02*
X98440000Y-90290000D01*
X99911000Y-90250000D02*
X98440000Y-90250000D01*
X99920000Y-90210000D02*
X98440000Y-90210000D01*
X99928000Y-90170000D02*
X98440000Y-90170000D01*
X99936000Y-90130000D02*
X98440000Y-90130000D01*
X99943000Y-90090000D02*
X98440000Y-90090000D01*
X99950000Y-90050000D02*
X98440000Y-90050000D01*
X99956000Y-90010000D02*
X98440000Y-90010000D01*
X99961000Y-89970000D02*
X98440000Y-89970000D01*
X99965000Y-89930000D02*
X98440000Y-89930000D01*
X99969000Y-89890000D02*
X98440000Y-89890000D01*
X99973000Y-89850000D02*
X94827000Y-89850000D01*
X99976000Y-89810000D02*
X94824000Y-89810000D01*
X99978000Y-89770000D02*
X94822000Y-89770000D01*
X99979000Y-89730000D02*
X94821000Y-89730000D01*
X99980000Y-89650000D02*
X94820000Y-89650000D01*
X99980000Y-89690000D02*
X94820000Y-89690000D01*
X100020000Y-89650000D02*
G75*
G02*
X94780000Y-89650000I-2620000J0D01*
G01*
X94780000Y-89650000D02*
G75*
G02*
X100020000Y-89650000I2620000J0D01*
G01*
X147460000Y-105070000D02*
X147460000Y-122970000D01*
X147460000Y-122970000D02*
X152760000Y-122970000D01*
X149110000Y-105070000D02*
X147460000Y-105070000D01*
X152760000Y-105070000D02*
X151110000Y-105070000D01*
X152760000Y-122970000D02*
X152760000Y-105070000D01*
X144970000Y-105010000D02*
X155250000Y-105010000D01*
X155250000Y-123030000D01*
X144970000Y-123030000D01*
X144970000Y-105010000D01*
X151110000Y-105070000D02*
G75*
G02*
X149110000Y-105070000I-1000000J0D01*
G01*
X160180000Y-84180000D02*
X160180000Y-84245000D01*
X160180000Y-84180000D02*
X163420000Y-84180000D01*
X160180000Y-86355000D02*
X160180000Y-86420000D01*
X160180000Y-86420000D02*
X163420000Y-86420000D01*
X163420000Y-84180000D02*
X163420000Y-84245000D01*
X163420000Y-86355000D02*
X163420000Y-86420000D01*
M02*
