M48
; DRILL file {KiCad 9.0.0} date 2025-03-02T14:28:11+0900
; FORMAT={-:-/ absolute / metric / decimal}
; #@! TF.CreationDate,2025-03-02T14:28:11+09:00
; #@! TF.GenerationSoftware,Kicad,Pcbnew,9.0.0
; #@! TF.FileFunction,MixedPlating,1,2
FMAT,2
METRIC
; #@! TA.AperFunction,Plated,PTH,ViaDrill
T1C0.300
; #@! TA.AperFunction,Plated,PTH,ComponentDrill
T2C0.800
; #@! TA.AperFunction,Plated,PTH,ComponentDrill
T3C0.900
; #@! TA.AperFunction,Plated,PTH,ComponentDrill
T4C1.000
; #@! TA.AperFunction,Plated,PTH,ComponentDrill
T5C1.100
; #@! TA.AperFunction,NonPlated,NPTH,ComponentDrill
T6C3.200
%
G90
G05
T1
X110.891Y-51.0
X111.48Y-89.024
X112.679Y-70.718
X113.881Y-84.635
X113.888Y-62.913
X114.4Y-77.412
X115.93Y-79.425
X116.652Y-86.34
X118.96Y-61.617
X118.965Y-86.925
X119.214Y-89.34
X120.063Y-90.189
X120.892Y-72.507
X121.157Y-92.489
X121.654Y-62.12
X121.956Y-85.789
X122.025Y-74.173
X122.611Y-59.039
X122.613Y-91.033
X122.759Y-65.378
X122.849Y-101.508
X122.898Y-83.177
X123.897Y-91.645
X124.186Y-65.978
X125.056Y-79.24
X125.756Y-74.05
X125.919Y-95.477
X126.003Y-104.497
X126.872Y-79.382
X127.1Y-73.45
X127.861Y-76.864
X127.861Y-79.393
X129.582Y-80.677
X129.64Y-62.262
X130.107Y-83.31
X130.248Y-101.954
X132.18Y-80.015
X133.396Y-95.136
X133.784Y-91.645
X134.877Y-61.612
X134.877Y-74.09
X135.795Y-98.121
X136.094Y-73.988
X136.443Y-62.262
X137.26Y-70.718
X137.33Y-58.747
X138.501Y-89.777
X138.508Y-100.665
X139.328Y-101.954
X139.828Y-51.652
X140.311Y-121.64
X141.23Y-72.77
X141.837Y-65.378
X143.665Y-72.431
X144.726Y-89.777
X146.266Y-61.014
X146.552Y-88.945
X146.739Y-70.905
X148.18Y-62.132
X148.325Y-94.072
X148.326Y-91.55
X148.403Y-88.868
X148.815Y-78.337
X148.817Y-89.772
X150.01Y-100.522
X150.299Y-69.536
X150.762Y-78.882
X151.779Y-121.64
X152.244Y-65.599
X152.5Y-71.591
X153.263Y-68.698
X153.863Y-77.17
X154.086Y-98.754
X155.56Y-90.879
X156.155Y-61.528
X156.486Y-74.573
X158.85Y-76.135
X159.147Y-106.952
X159.933Y-72.089
X161.122Y-70.637
X161.157Y-77.495
X161.6Y-113.145
X161.868Y-116.545
X162.909Y-121.625
X163.342Y-106.24
X168.84Y-72.299
X170.0Y-71.163
X176.252Y-98.784
X177.926Y-88.39
X179.137Y-74.398
X180.06Y-63.744
T2
X93.56Y-100.4
X93.56Y-115.64
X96.1Y-100.4
X96.1Y-115.64
X97.4Y-88.4
X97.4Y-90.9
X98.64Y-100.4
X98.64Y-115.64
X101.18Y-100.4
X101.18Y-115.64
X102.295Y-56.5
X103.72Y-100.4
X103.72Y-115.64
X104.795Y-56.5
X105.2Y-80.52
X105.2Y-90.68
X106.26Y-100.4
X106.26Y-115.64
X108.5Y-62.02
X108.5Y-72.18
X108.8Y-100.4
X108.8Y-115.64
X111.34Y-100.4
X111.34Y-115.64
X113.88Y-100.4
X113.88Y-115.64
X114.4Y-60.3
X114.4Y-75.54
X114.49Y-82.0
X114.49Y-97.24
X116.42Y-100.4
X116.42Y-115.64
X116.94Y-60.3
X116.94Y-75.54
X117.03Y-82.0
X117.03Y-97.24
X118.96Y-100.4
X118.96Y-115.64
X119.48Y-60.3
X119.48Y-75.54
X119.57Y-82.0
X119.57Y-97.24
X121.5Y-100.4
X121.5Y-115.64
X122.02Y-60.3
X122.02Y-75.54
X122.11Y-82.0
X122.11Y-97.24
X124.04Y-100.4
X124.04Y-115.64
X124.56Y-60.3
X124.56Y-75.54
X124.65Y-82.0
X124.65Y-97.24
X125.5Y-106.75
X125.5Y-109.25
X126.58Y-100.4
X126.58Y-115.64
X127.1Y-60.3
X127.1Y-75.54
X127.19Y-82.0
X127.19Y-97.24
X129.12Y-100.4
X129.12Y-115.64
X129.64Y-60.3
X129.64Y-75.54
X129.73Y-82.0
X129.73Y-97.24
X131.66Y-100.4
X131.66Y-115.64
X132.18Y-60.3
X132.18Y-75.54
X132.27Y-82.0
X132.27Y-97.24
X134.72Y-60.3
X134.72Y-75.54
X134.81Y-82.0
X134.81Y-97.24
X135.18Y-103.86
X135.18Y-106.4
X135.18Y-108.94
X135.18Y-111.48
X135.18Y-114.02
X135.18Y-116.56
X135.18Y-119.1
X135.18Y-121.64
X137.26Y-60.3
X137.26Y-75.54
X137.34Y-78.8
X137.35Y-82.0
X137.35Y-97.24
X139.8Y-60.3
X139.8Y-75.54
X139.88Y-78.8
X139.89Y-82.0
X139.89Y-97.24
X140.2Y-88.45
X140.2Y-90.95
X140.75Y-100.8
X142.34Y-60.3
X142.34Y-75.54
X142.42Y-78.8
X142.43Y-82.0
X142.43Y-97.24
X142.8Y-103.86
X142.8Y-106.4
X142.8Y-108.94
X142.8Y-111.48
X142.8Y-114.02
X142.8Y-116.56
X142.8Y-119.1
X142.8Y-121.64
X143.25Y-100.8
X144.88Y-60.3
X144.88Y-75.54
X144.96Y-78.8
X144.97Y-82.0
X144.97Y-97.24
X145.0Y-68.05
X145.0Y-70.55
X146.3Y-106.4
X146.3Y-108.94
X146.3Y-111.48
X146.3Y-114.02
X146.3Y-116.56
X146.3Y-119.1
X146.3Y-121.64
X147.42Y-60.3
X147.42Y-75.54
X147.5Y-78.8
X147.51Y-82.0
X147.51Y-97.24
X149.96Y-60.3
X149.96Y-75.54
X151.85Y-103.3
X152.5Y-60.3
X152.5Y-75.54
X152.5Y-97.0
X153.25Y-85.3
X153.92Y-106.4
X153.92Y-108.94
X153.92Y-111.48
X153.92Y-114.02
X153.92Y-116.56
X153.92Y-119.1
X153.92Y-121.64
X154.35Y-103.3
X155.04Y-60.3
X155.04Y-75.54
X155.04Y-97.0
X155.65Y-81.0
X155.75Y-85.3
X157.29Y-106.385
X157.29Y-108.925
X157.29Y-111.465
X157.29Y-114.005
X157.29Y-116.545
X157.29Y-119.085
X157.29Y-121.625
X157.58Y-60.3
X157.58Y-75.54
X157.58Y-97.0
X160.12Y-60.3
X160.12Y-75.54
X160.12Y-97.0
X160.53Y-81.0
X160.55Y-85.3
X162.65Y-103.3
X162.66Y-60.3
X162.66Y-75.54
X162.66Y-97.0
X163.05Y-85.3
X164.91Y-106.385
X164.91Y-108.925
X164.91Y-111.465
X164.91Y-114.005
X164.91Y-116.545
X164.91Y-119.085
X164.91Y-121.625
X165.15Y-103.3
X166.25Y-95.4
X166.26Y-64.26
X166.26Y-66.8
X166.26Y-69.34
X166.26Y-71.88
X166.26Y-74.42
X166.26Y-76.96
X166.26Y-79.5
X166.26Y-82.04
X166.26Y-84.58
X166.26Y-87.12
X166.26Y-89.66
X166.26Y-92.2
X167.795Y-103.91
X167.795Y-106.45
X167.795Y-108.99
X167.795Y-111.53
X167.795Y-114.07
X167.795Y-116.61
X167.795Y-119.15
X167.795Y-121.69
X168.75Y-95.4
X172.85Y-100.9
X175.35Y-100.9
X175.415Y-103.91
X175.415Y-106.45
X175.415Y-108.99
X175.415Y-111.53
X175.415Y-114.07
X175.415Y-116.61
X175.415Y-119.15
X175.415Y-121.69
X177.84Y-102.5
X181.5Y-64.26
X181.5Y-66.8
X181.5Y-69.34
X181.5Y-71.88
X181.5Y-74.42
X181.5Y-76.96
X181.5Y-79.5
X181.5Y-82.04
X181.5Y-84.58
X181.5Y-87.12
X181.5Y-89.66
X181.5Y-92.2
X182.1Y-108.42
X182.1Y-113.3
X187.1Y-107.2
X187.1Y-109.7
X187.1Y-112.35
X187.1Y-114.85
X188.0Y-102.5
T3
X108.5Y-75.16
X108.5Y-77.7
X109.5Y-80.62
X109.5Y-90.78
T4
X96.42Y-63.2
X98.96Y-63.2
X101.5Y-63.2
X115.86Y-54.3
X115.86Y-56.84
X118.4Y-54.3
X118.4Y-56.84
X120.94Y-54.3
X120.94Y-56.84
X123.48Y-54.3
X123.48Y-56.84
X126.02Y-54.3
X126.02Y-56.84
X128.56Y-54.3
X128.56Y-56.84
X131.1Y-54.3
X131.1Y-56.84
X133.64Y-54.3
X133.64Y-56.84
X136.18Y-54.3
X136.18Y-56.84
X138.72Y-54.3
X138.72Y-56.84
X141.26Y-54.3
X141.26Y-56.84
X143.8Y-54.3
X143.8Y-56.84
X146.34Y-54.3
X146.34Y-56.84
X148.88Y-54.3
X148.88Y-56.84
X151.42Y-54.3
X151.42Y-56.84
X152.42Y-92.9
X153.96Y-54.3
X153.96Y-56.84
X154.96Y-92.9
X156.5Y-54.3
X156.5Y-56.84
X157.5Y-92.9
X159.04Y-54.3
X159.04Y-56.84
X161.58Y-54.3
X161.58Y-56.84
X164.12Y-54.3
X164.12Y-56.84
X185.5Y-64.88
X185.5Y-67.42
X185.5Y-69.96
X185.5Y-72.5
X185.5Y-75.04
X185.5Y-77.58
T5
X94.2Y-79.8
X94.2Y-84.3
X100.7Y-79.8
X100.7Y-84.3
T6
X95.5Y-54.5
X95.5Y-120.5
X184.5Y-120.5
X186.0Y-54.0
T4
G00X96.5Y-69.7
M15
G01X96.5Y-71.7
M16
G05
G00X98.5Y-75.4
M15
G01X100.5Y-75.4
M16
G05
G00X102.5Y-69.7
M15
G01X102.5Y-71.7
M16
G05
M30
